<?xml version="1.0" encoding="utf-8"?>
<!-- Generator: Adobe Illustrator 27.0.1, SVG Export Plug-In . SVG Version: 6.00 Build 0)  -->
<svg version="1.1" id="Layer_1" xmlns="http://www.w3.org/2000/svg" xmlns:xlink="http://www.w3.org/1999/xlink" x="0px" y="0px"
	 viewBox="0 0 40 40" style="enable-background:new 0 0 40 40;" xml:space="preserve">
<style type="text/css">
	.st0{fill:#FF3939;}
</style>
<path class="st0" d="M20,5L20,5C11.7,5,5,11.7,5,20l0,0c0,8.3,6.7,15,15,15l0,0c8.3,0,15-6.7,15-15l0,0C35,11.7,28.3,5,20,5L20,5z"
	/>
<g>
	<path d="M20,7c7.2,0,13,5.8,13,13s-5.8,13-13,13S7,27.2,7,20S12.8,7,20,7 M20,5L20,5C11.7,5,5,11.7,5,20l0,0c0,8.3,6.7,15,15,15
		l0,0c8.3,0,15-6.7,15-15l0,0C35,11.7,28.3,5,20,5L20,5z"/>
</g>
<g>
	<path d="M13.6,16.1c-1.1,0-2,0.9-2,2s0.9,2,2,2s2-0.9,2-2S14.7,16.1,13.6,16.1L13.6,16.1z"/>
</g>
<g>
	<path d="M26.4,16.1c-1.1,0-2,0.9-2,2s0.9,2,2,2s2-0.9,2-2S27.5,16.1,26.4,16.1L26.4,16.1z"/>
</g>
<g>
	<path d="M13.6,28.4c-0.3,0-0.5-0.1-0.7-0.3c-0.4-0.4-0.4-1,0-1.4c2-1.9,4.4-2.9,7.1-2.9s5.3,1.1,7.1,2.9c0.4,0.4,0.4,1,0,1.4
		s-1,0.4-1.4,0c-1.5-1.5-3.5-2.3-5.7-2.3c-2.1,0-4.1,0.8-5.7,2.3C14.1,28.3,13.8,28.4,13.6,28.4z"/>
</g>
</svg>
