<?xml version="1.0" encoding="utf-8"?>
<svg version="1.1" xmlns="http://www.w3.org/2000/svg" xmlns:xlink="http://www.w3.org/1999/xlink" x="0px" y="0px"
	 viewBox="0 0 50 50" style="enable-background:new 0 0 50 50;" xml:space="preserve">
<style type="text/css">
	.st6{fill:#000000;}
	.st12{fill:url(#SVGID_1_);}

	#circle {
		transform-origin: 22px 16px;
		animation: circle 10s infinite linear;
	}

	#rocket {
		transform-origin: 22px 16px;
		animation: rocket 10s infinite linear;
	}

	#string {
		transform: scaleY(103%)
	}

	@keyframes rocket {
		0% { transform: scale(100%, 100%); }
		25% { transform: scale(0%, 100%); }
		50% { transform: scale(-100%, 100%); }
		75% { transform: scale(0%, 100%); }
		100% { transform: scale(100%, 100%); }
	}

	@keyframes circle {
		0% { transform: translateX(-6px) scale(0%, 100%); }
		25% { transform: translateX(0) scale(20%, 100%); }
		50% { transform: translateX(6px) scale(0%, 100%); }
		75% { transform: translateX(0) scale(20%, 100%); }
		100% { transform: translateX(-6px) scale(0%, 100%); }
	}

</style>
<g id="Layer_5">
	<linearGradient id="SVGID_1_" gradientUnits="userSpaceOnUse" x1="25" y1="0" x2="25" y2="50">
		<stop  offset="0" style="stop-color:#FFA92C"/>
		<stop  offset="1" style="stop-color:#734500"/>
	</linearGradient>
	<rect class="st12" width="50" height="50"/>
</g>
<g id="Object">
	<polygon id="table" points="0,39 0,39 0,50 0,50 50,50 50,50 50,39 50,39 	"/>
</g>
<g id="MovingParts">
	<path id="rocket" class="st6" d="M21.4,13.1c-0.3,0-0.6,0-0.9,0.1c-0.9,0.1-1.8,0.2-2.8,0.3c-0.1,0-0.1,0-0.2-0.1c-0.1-0.1-0.2-0.2-0.3-0.3
		c-0.4-0.4-0.8-0.8-1.2-1.2c0,0,0,0,0,0c-0.1-0.1-0.1-0.1-0.2-0.2c-0.1-0.1-0.2-0.1-0.3-0.1c-0.2,0-0.4,0.1-0.7,0.1
		c-0.5,0.1-1,0.1-1.5,0.2c-0.1,0-0.2,0.1-0.1,0.2c0,0,0,0,0,0.1c0.4,0.6,0.7,1.1,1.1,1.7c0,0,0,0.1,0,0.1c-0.1,0.1-0.1,0.2-0.2,0.3
		c-0.3,0.1-0.5,0.2-0.7,0.3c-0.1,0-0.2,0.1-0.2,0.2c-0.1,0.1-0.1,0.2-0.1,0.3c-0.1,0.5-0.1,1-0.1,1.6c0,0.3,0,0.5,0.1,0.8
		c0,0.1,0.1,0.2,0.2,0.3c0.2,0.1,0.5,0.2,0.7,0.3c0.1,0,0.2,0.1,0.3,0.2c0.1,0.1,0.1,0.1,0,0.2c-0.3,0.4-0.6,0.9-0.8,1.3
		c-0.1,0.1-0.2,0.3-0.3,0.4c-0.1,0.1-0.1,0.2,0.1,0.2c0,0,0,0,0,0c0.6,0.1,1.3,0.1,1.9,0.2c0.4,0.1,0.4,0,0.6-0.2
		c0.3-0.3,0.5-0.5,0.8-0.8c0.3-0.3,0.5-0.5,0.8-0.8c0-0.1,0.1-0.1,0.2-0.1c0.6,0.1,1.2,0.1,1.8,0.2c0.5,0,1.1,0.1,1.6,0.1
		c0.5,0,1.1,0.1,1.6,0.1c0.6,0,1.2,0,1.8,0c0.7-0.1,1.5-0.3,2.2-0.6c0.9-0.4,1.7-0.8,2.5-1.4c0.3-0.3,0.7-0.5,1-0.8
		c0.1-0.1,0.1-0.1,0-0.2c-0.3-0.3-0.5-0.5-0.8-0.7c-0.5-0.4-1-0.7-1.5-1c-0.7-0.4-1.4-0.7-2.1-0.9c-0.7-0.2-1.4-0.3-2.1-0.3
		c-0.4,0-0.8,0-1.2,0c0,0,0,0,0,0L21.4,13.1z M24.6,16.8c-0.5,0.5-1.2,0.5-1.6,0.1c-0.6-0.5-0.6-1.3-0.1-1.8c0.4-0.4,1.2-0.5,1.7,0
		C25,15.5,25.1,16.3,24.6,16.8z"/>
	<circle id="circle" class="st6" cx="21.9" cy="16" r="4.5"/>
	<polygon id="string" class="st6" points="22.4,13.1 22.4,0 21.4,0 21.4,13.1 	"/>
</g>
</svg>
