<?xml version="1.0" encoding="utf-8"?>
<!-- Generator: Adobe Illustrator 26.3.1, SVG Export Plug-In . SVG Version: 6.00 Build 0)  -->
<svg version="1.1" xmlns="http://www.w3.org/2000/svg" xmlns:xlink="http://www.w3.org/1999/xlink" x="0px" y="0px"
	 viewBox="0 0 120 94" style="enable-background:new 0 0 120 94;" xml:space="preserve">
<style type="text/css">
	.st6{fill:#000000;}
	.st12{fill:url(#SVGID_1_);}
	.st13{fill:#937700;}

#lefthand {
	transform-origin: 30px 46px;
	animation: lefthand 6s infinite;
}

@keyframes lefthand {
	0% { transform: rotate(0);}
	10% { transform: rotate(5deg);}
	20% { transform: rotate(5deg);}
	30% { transform: rotate(0);}
	60% { transform: rotate(0);}
	70% { transform: rotate(14deg);}
	80% { transform: rotate(10deg);}
	90% { transform: rotate(0);}
}

@keyframes righthand {
	0% { transform: rotate(0);}
	12% { transform: rotate(-18deg);}
	21% { transform: rotate(-14deg);}
	30% { transform: rotate(0);}
	60% { transform: rotate(0);}
	70% { transform: rotate(-3deg);}
	80% { transform: rotate(-3deg);}
	90% { transform: rotate(0);}
}

#righthand {
	transform-origin: 48px 44px;
	animation: righthand 6s infinite;
}
</style>
<g id="bg">
	<rect class="st13" width="120" height="94"/>
	<radialGradient id="SVGID_1_" cx="103.1309" cy="23.7715" r="34.751" gradientUnits="userSpaceOnUse">
		<stop  offset="0.2472" style="stop-color:#FFFB00"/>
		<stop  offset="1" style="stop-color:#FFFB00;stop-opacity:0"/>
	</radialGradient>
	<path class="st12" d="M120,0l0,54.7c-5,2.8-10.8,4.3-16.9,4.3c-19.5,0-35.2-15.8-35.2-35.2c0-9.2,3.5-17.5,9.3-23.8L120,0z"/>
	
		<radialGradient id="SVGID_00000054946498210836813400000015645543212540298887_" cx="22.6278" cy="-0.1794" r="21.7357" gradientUnits="userSpaceOnUse">
		<stop  offset="0.2472" style="stop-color:#FFFB00"/>
		<stop  offset="1" style="stop-color:#FFFB00;stop-opacity:0"/>
	</radialGradient>
	<path style="fill:url(#SVGID_00000054946498210836813400000015645543212540298887_);" d="M44,0c0,12-9.7,21.6-21.6,21.6
		S0.7,12,0.7,0H44z"/>
</g>
<g id="objects">
	<path class="st6" d="M109.2,12.2c0-0.4-0.4-0.7-0.8-0.7H97.7c-0.4,0-0.7,0.3-0.8,0.7l-1.9,17C95,29.6,95.4,30,95.8,30h6.4v64h1.5
		V30h3.3v4.1c-0.1,0.1-0.2,0.3-0.2,0.6c0,0.4,0.2,0.7,0.4,0.7s0.4-0.3,0.4-0.7c0-0.3-0.1-0.5-0.2-0.6V30h2.9c0.5,0,0.8-0.4,0.8-0.9
		L109.2,12.2z"/>
	<path class="st6" d="M120,52.6v-1.9h-11c-0.5,0-0.9,0.4-0.9,0.9c0,0,0,0,0,0c0,0,0,0,0,0v14.6h-8.2V51.6c0-0.5-0.4-0.9-0.9-0.9H83
		c-0.5,0-0.9,0.4-0.9,0.9c0,0,0,0,0,0c0,0,0,0,0,0v14.6h-9.6H72h-0.4c-0.6,0-1.1,0.1-1.6,0.4l-3.1,1.8h0c-0.4,0.3-0.7,0.7-0.7,1.3
		c0,0.8,0.7,1.5,1.5,1.5h2.5V94h3.6V78.5h8.4v2.9l-3.7,2.9c0,0,0,0-0.1,0l0,0c0,0,0,0,0,0c-0.2,0.2-0.3,0.4-0.3,0.6v9h3.2v-6.1h17.2
		V94h3.2v-9c0-0.1,0-0.1,0-0.2c0-0.1,0-0.1,0-0.2c0,0,0,0,0,0c-0.1-0.1-0.1-0.2-0.2-0.4L99.9,81v-2.5h8.2v2.9l-0.1,3.3
		c0,0.1,0,0.1,0,0.2c0,0,0,0,0,0v9h3.2v-6.1h8.8v-2v-0.4V84v-3.4h-2.1v-2.1h2.1v-9.3v-1.5v-1.5h-2.1V52.6H120z M110,52.6h2v13.7h-2
		V52.6z M91.9,66.2V52.6h2.1v13.7H91.9z M90.1,66.2h-2.1V52.6h2.1V66.2z M90.1,78.5v2.1h-2.1v-2.1H90.1z M91.9,80.7v-2.1h2.1v2.1
		H91.9z M95.9,66.2V52.6h2.1v13.7H95.9z M84,52.6h2v13.7h-2V52.6z M86.1,78.5v2.1h-2v-2.1H86.1z M98.1,80.7h-2.1v-2.1h2.1V80.7z
		 M112,78.5v2.1h-2v-2.1H112z M116,80.7h-2.1v-2.1h2.1V80.7z M116,66.2h-2.1V52.6h2.1V66.2z"/>
	<path class="st6" d="M59.9,67H0v-7.1h59.9c0.5,0,0.9,0.4,0.9,0.9v5.4C60.7,66.6,60.4,67,59.9,67z"/>
	<path class="st6" d="M23.7,43.9H0l0,15.4h0v1.1h2.2v-1.1h18.5v1.1h2.2v-1.1h0.7c0.6,0,1.2-0.5,1.2-1.2V45.1
		C24.8,44.4,24.3,43.9,23.7,43.9z M8.2,49.3c0,0.2-0.1,0.3-0.3,0.3H3.5c-0.2,0-0.3-0.1-0.3-0.3v-2.3c0-0.2,0.1-0.3,0.3-0.3h4.3
		c0.2,0,0.3,0.1,0.3,0.3V49.3z M10.4,56V55h0.4c0.3,0,0.5-0.2,0.5-0.5v-5.7c0-0.3-0.2-0.5-0.5-0.5h-0.4v-1.1c0-0.4,0.3-0.7,0.7-0.7
		h10.6c0.4,0,0.7,0.3,0.7,0.7V56c0,0.4-0.3,0.7-0.7,0.7H11.1C10.7,56.7,10.4,56.4,10.4,56z"/>
	<path class="st6" d="M53.5,94c0.5-4.1-0.2-9.3,0-16.1c-0.1-2.7-2.2-14.6-2.6-15.2c-0.2-0.2-0.3-0.4-0.4-0.6
		c-0.3-0.6-0.3-1-0.2-1.6c0.2-1.5-0.7-6.1-0.3-8.8c0.4-2.7,1-6.3,0.2-7.8c-0.8-1.5-0.4-2.7-3.9-3.4c-0.6-0.3-1.2-1.3-2.1-1.3
		c0,0,0,0.1,0,0.1c0,0,0,0,0,0c-0.1-0.1-0.3-0.2-0.4-0.2c0-0.3-0.1-0.6-0.1-0.9c0.2-0.2,0.3-0.4,0.5-0.6c0.9-0.7,0.6-2.2,0.8-2.5
		c0.1-0.4,0.2-0.5,0.5-0.7c0.3-0.2,0.3-1,0.6-2c0-0.4,0-0.8-0.4-1c0,0,0,0,0,0c-0.4-2,0.2-4.1-1.5-5.6c-1.3-1.2-3.2-1.7-4.9-1.2
		c-1.9,0.5-3.3,2.2-4.1,4c-0.6,1.2-0.7,2.2-0.4,3.3l0.5,0.8c0,0-0.5,0.5-0.4,1.1c0.1,0.6,0.4,1.2,1.2,1.7l0.7,0.5
		c0,0,0.4,1.2,0.9,1.7v0c0,1.1-0.2,1.9-1.3,2.7c0,0-0.3-0.4-0.8-0.3c-0.4,0.1-0.5,0.8-1.1,0.9c-1,0.2-1.7,0.9-2.5,1.6
		c-0.1,0.1-0.4,0.2-0.5,0.3c0,0-1.3,1-0.9,4.2s0.3,5.6,0.6,7.6c0.1,0.6,0.2,1.3,0.2,2c0,1.1-0.4,2.5-1,3.6c-1.1,2-1.2,5.9-1.2,5.9
		c-2.5,5.1-0.9,11.7-2.1,17.2c-0.4,1.7-1,7-0.7,10.7L53.5,94z"/>
	<path class="st6" d="M36.2,27c-0.7-0.1-1.6,0-1.9,0.5
		c-0.1,0.2-0.1,0.3-0.1,0.5c0,0.2,0,0.5-0.2,0.6c-0.4,0.3-0.6,0.7-0.7,1.1c-0.1,0.4,0,0.8,0.3,1.1c0.1,0.2,0.1,0.3,0.1,0.5
		c0,0.2,0,0.4,0,0.6c0.1,0.3,0.2,0.5,0.4,0.7c0.2,0.2,0.3,0.5,0.2,0.7c-0.1,0.4-0.1,0.9,0.1,1.2c0.1,0.2,0.3,0.3,0.4,0.3
		c0,0.2,0.1,0.4,0.3,0.5c0.2,0.2,0.5,0.1,0.8,0.1L36.2,27z"/>
</g>
<g id="movingParts">
	<path id="lefthand" class="st6" d="M32.2,56.8c0.1-0.7,0.1-1.5,0.1-2.2
		c0.2-4.2,0.7-3.9,1.5-7.2c0.8-3.3-0.8-4.8-2.4-4.7c-2,1.2-2.9,3.1-3.4,5.3c-0.1,0.5,0.1,1.3,0,1.9c-0.2,1.7-0.4,3.3-0.4,5v0v0
		c-0.1,2.7-1.5,4.3,0.2,6.4c1.3,1.6,5.1-0.3,6.5-1c1.4-0.8,1.5-2.3,0.8-3.3C34.1,55.3,32.2,56.8,32.2,56.8z"/>
	<path id="righthand" class="st6" d="M44,59.9c-0.3,1.2-0.2,2.4,2.8,3
		s5.1,0.5,5.1,0.5c1.2-0.2,1.5-0.8,1.5-2.6c0-1,0.4-2,0-2.9c-0.2-1.7-0.9-2.1-1-3.9c-0.1-2,0.3-1.4,0.1-3.4c0,0-0.6-2.1-0.6-2.1
		c0,0,0,0,0-0.1c0-1.5-0.1-3.1-0.7-4.5c-0.1-0.4-0.7-1.4-1.3-1.9c-0.2-0.3-0.5-0.6-0.7-0.8c-0.8-0.7-1.9-0.8-2.9-0.8
		c-2,0.2-2.1,3.9-1.3,5.6c0.5,1.2,1.1,3.2,1.7,5.1c0.2,0.8,0.4,2.4,0.6,3.1c0.7,2.2,1.3,4.4,1.3,4.4s-2-0.5-3-0.4
		C44.4,58.5,44.2,59.3,44,59.9z"/>
</g>
</svg>
