<?xml version="1.0" encoding="utf-8"?>
<svg version="1.1" xmlns="http://www.w3.org/2000/svg" xmlns:xlink="http://www.w3.org/1999/xlink" x="0px" y="0px"
	 viewBox="0 0 210 130" style="enable-background:new 0 0 210 130;" xml:space="preserve">
<style type="text/css">
	.st6{fill:#000000;}
	.st11{fill:#A34D00;}
	.st12{fill:url(#SVGID_1_);}
	.st22{fill:#A34D00;}

	#momhand, #mompoint1 {
		transform-origin: 185px 85px;
		animation: momhand 30s infinite;
	}
	@keyframes momhand {
		0% { transform: translate(0, 0) rotate(0);}
		16% { transform: translate(0, 0) rotate(0);}
		20% { transform: translate(0, 0) rotate(-10deg);}
		30% { transform: translate(0, 0) rotate(-10deg);}
		32% { transform: translate(0, 0) rotate(0);}
		40% { transform: translate(0, 0) rotate(0);}
		42% { transform: translate(-2px, 2px) rotate(55deg);}
		88% { transform: translate(-2px, 2px) rotate(55deg);}
		90% { transform: translate(0, 0) rotate(0);}
		100% { transform: translate(0, 0) rotate(0);}
	}
	#manarm1, #manarm2, #manhand {
		transform-origin: 93px 73px;
		animation: manarm 10s infinite;
	}
	@keyframes manarm {
		0% { transform: translate(0, 0) rotate(0);}
		10% { transform: translate(0, 0) rotate(0);}
		14% { transform: translate(0, 0) rotate(20deg);}
		36% { transform: translate(0, 0) rotate(20deg);}
		40% { transform: translate(0, 0) rotate(0);}
		55% { transform: translate(0, 0) rotate(0);}
		60% { transform: translate(0, 0) rotate(20deg);}
		70% { transform: translate(0, 0) rotate(10deg);}
		85% { transform: translate(0, 0) rotate(20deg);}
		90% { transform: translate(0, 0) rotate(0);}
		100% { transform: translate(0, 0) rotate(0);}
	}
	#manhead {
		transform-origin: 93px 65px;
		animation: manhead 10s infinite;
	}
	@keyframes manhead {
		0% { transform: translate(0, 0) rotate(0);}
		8% { transform: translate(0, 0) rotate(0);}
		10% { transform: translate(0, 0) rotate(15deg);}
		30% { transform: translate(0, 0) rotate(20deg);}
		34% { transform: translate(0, 0) rotate(0);}
		55% { transform: translate(0, 0) rotate(-20deg);}
		75% { transform: translate(0, 0) rotate(-20deg);}
		80% { transform: translate(0, 0) rotate(0);}
		100% { transform: translate(0, 0) rotate(0);}
	}
	#momarm {
		transform-origin: 167px 84px;
		animation: momarm 20s infinite;
	}
	#mompoint {
		transform-origin: 167px 84px;
		animation: mompoint 20s infinite;
	}
	@keyframes momarm {
		0% { transform: translate(1px, 1px) rotate(0);}
		8% { transform: translate(1px, 1px) rotate(0);}
		10% { transform: translate(1px, 6px) rotate(-40deg);}
		50% { transform: translate(1px, 6px) rotate(-40deg);}
		54% { transform: translate(1px, 1px) rotate(0);}
		65% { transform: translate(1px, 1px) rotate(-20deg);}
		75% { transform: translate(1px, 1px) rotate(-20deg);}
		80% { transform: translate(1px, 1px) rotate(0);}
		90% { transform: translate(1px, 1px) rotate(0);}
		92% { transform: translate(1px, 1px) rotate(0);}
		94% { transform: translate(1px, 1px) rotate(0);}
		100% { transform: translate(1px, 1px) rotate(0);}
	}
	@keyframes mompoint {
		0% { transform: translate(3px, -1px) rotate(-10deg);}
		8% { transform: translate(3px, -1px) rotate(-10deg);}
		10% { transform: translate(3px, 4px) rotate(-40deg);}
		50% { transform: translate(3px, 4px) rotate(-40deg);}
		54% { transform: translate(1px, 1px) rotate(0);}
		65% { transform: translate(3px, -1px) rotate(-30deg);}
		75% { transform: translate(3px, -1px) rotate(-30deg);}
		80% { transform: translate(3px, -1px) rotate(-10deg);}
		90% { transform: translate(3px, -1px) rotate(-10deg);}
		92% { transform: translate(3px, -1px) rotate(-10deg);}
		94% { transform: translate(3px, -1px) rotate(-10deg);}
		100% { transform: translate(3px, -1px) rotate(-10deg);}
	}
	#momhead {
		transform-origin: 182px 77px;
		animation: momhead 4s infinite;
	}
	@keyframes momhead {
		0% { transform: rotate(0deg);}
		30% { transform: rotate(20deg);}
		60% { transform: rotate(20deg);}
		0% { transform: rotate(0deg);}
	}
	#screen {
		animation: tv 12s infinite;
	}
	@keyframes tv {
		0% {fill:#FFFB96;}
		30% {fill:#FFFB96;}
		31% {fill:#FFC52C;}
		60% {fill:#FFC52C;}
		61% {fill:#FFFB96;}
		64% {fill:#FFFB96;}
		65% {fill:#FFFB00;}
		98% {fill:#FFFB00;}
		99% {fill:#FFFB96;}
		100% {fill:#FFFB96;}
	}
</style>
<g id="bg">
	<rect class="st11" width="210" height="130"/>
	<radialGradient id="SVGID_1_" cx="107.4709" cy="41.0673" r="41.067" gradientUnits="userSpaceOnUse">
		<stop  offset="0.2" style="stop-color:#FFA92C"/>
		<stop  offset="1" style="stop-color:#FFC52C;stop-opacity:0"/>
	</radialGradient>
	<circle class="st12" cx="107.5" cy="41.1" r="41.1"/>
</g>
<g id="objects">
	<path id="tv" class="st6" d="M57.9,104.4l-14.3-1.3v-2.2c3-1.2,5-2,5.3-2.1c1.8-0.8,1.8-1.2,1.8-3.4c0-1.5,0-24.3,0-26.5c0-1.7-0.8-2-2-1.9
		l-35.9,3.4c0,0-2.9,0.4-2.9,2.8s0,32.4,0,34.4c0,1.7,0.5,4.2,2.8,4.4L0,116.5V130h33.4l25.1-18.1v-6.9
		C58.5,104.7,58.3,104.4,57.9,104.4z"/>
	<path id="screen" class="st22" d="M15.7,73.8V108c0,0.3,0.3,0.6,0.7,0.5l32-11.3c0.2-0.1,0.3-0.3,0.3-0.5V69.5c0-0.3-0.3-0.5-0.6-0.5l-32,4.3
		C15.9,73.3,15.7,73.6,15.7,73.8z"/>
	<g id="light">
		<path class="st6" d="M93.8,26.8V0h-1v26.8C89,27.1,86,30.2,86,34.1c0,4,3.3,7.3,7.3,7.3s7.3-3.3,7.3-7.3
			C100.7,30.2,97.6,27.1,93.8,26.8z"/>
		<path class="st6" d="M108.5,37.8V0h-1v37.8c-3.8,0.3-6.8,3.4-6.8,7.3c0,4,3.3,7.3,7.3,7.3s7.3-3.3,7.3-7.3
			C115.3,41.2,112.3,38,108.5,37.8z"/>
		<path class="st6" d="M122.8,20.6V0h-1v20.6c-3.8,0.3-6.8,3.4-6.8,7.3c0,4,3.3,7.3,7.3,7.3s7.3-3.3,7.3-7.3
			C129.6,24,126.6,20.9,122.8,20.6z"/>
	</g>
	<path id="sofa" class="st6" d="M189.5,81.5c1.1,1.5,1,1.9,1.3,4.7c0,0.2,0,0.8,0,1c0,0.1,0,0.1,0,0.2c9.9,2.1,19.1,4.2,19.1,4.2l0,38.4l-74.5-0.1
		c-0.1,0-2.8,0.1-2.9,0c-2.4-1.8-4.2-3.1-6.9-4.9c-1.2-0.8-1.9-1.1-3-1.5c-1.1-0.4-2-0.4-3.8-0.4c-12.4,0-30.9,0.1-43.3,0.1
		c-4,0-6.1-2.2-6.1-4.9v-11.5c0-1.4,0-2.7,0-4.3c0-0.7,0.5-1.4,1.1-1.8c0.6-0.3,1.4-0.4,2.1-0.4c0.6,0,1.2,0,1.9-0.1
		c5.1-0.1,16.3,0.2,21.4-0.1c1.4-0.1,2.8-0.2,4.2,0.2c0.5-0.6,1.6-0.5,2.4-0.5c1.3,0,2.9-0.2,3.7-0.1c0.1-1,0.1-2.6,0.3-3.6
		c0.2-0.8,0.7-1.6,1.4-2c0.7-0.4,1.5-0.4,2.2-0.5c2-0.1,4.5-0.3,7.3-0.3l6-0.3c2.6-4,4.5-7.5,7.1-11.5c0.8-1.2,1.6-2.5,2.7-3.4
		c1.1-0.9,2.9-1.7,4.3-1.4c0.2,0,0.4-0.1,0.6-0.1c1.1,0,2.8,0.1,3.9,0.3c6.9,1.1,12.6,1.9,18.6,3.2c0.4-0.1,7.6,1.5,7.6,1.5l2.6,0.9
		c1.3-0.5,2.9-4.7,4.2-5.2c2.6-1.2,5.4-1,7.8-0.7C183.1,76.7,188.5,80,189.5,81.5z"/>
	<path id="body" class="st6" d="M80.4,96.8c-0.3,1.3-0.3,2.9,0.3,4.1c-0.5,1.2,0.7,3.3,1,4.4c1,3.7,0.3,7.4,0.6,11
		c-0.7,1.8-1,4.1-1.3,6c-0.3,1.9-0.5,3.7-0.6,5.5c-0.2,1.1-0.4,2.1-0.5,3.2c-0.4,2.7-0.2,5.4,0.6,8c-0.5,1.4-0.7,3.5,0,4.7
		c-0.3,0.9,0,2.1,0.5,2.7c0.6,0.7,1.8,0.6,2.8,0.5c0.9,0.5,2.1,0.8,2.9,0.9c1.2,0.2,3.3,0.5,4.3-0.1c0.7-0.4,0.8-1.4,0.4-2
		c-0.5-0.7-1.3-0.6-2-1c-0.7-0.4-1.7-1.5-2.3-2.4c0.3-0.8,0.5-1.7,0.3-2.7c-0.2-1.1-0.8-1.8-0.8-3c0-0.8,0-1.6,0.2-2.4
		c0.5,0.7,0.8,1.3,1,2.2c0.2,0.9,0.4,1.6,0.8,2.3c-0.4,1.7,0.7,3.2,2.5,2.5c1.6-0.7,2.7-1.4,4.5-1.6c0.7-0.1,1.4-0.1,2.1-0.2
		c1.1-0.1,2.8-0.4,3.7-1.3c1-1,0.4-1.7-0.9-1.9c-2.2-0.3-3.3,0.6-5-1.4c-0.5-0.7-0.9-1.6-1.6-2.1c0.3-2.4-0.3-4.9-1.3-7.1
		c0.1-0.9,0-1.8-0.1-2.8c0.5-0.7,1-1.5,1.4-2.2c0.3-0.6,0.5-1.3,0.6-2c0-0.3,0-0.6,0-0.9c0.9-4.2,2.2-8.3,2-12.6
		c-0.2-4-0.6-8.2-1.4-12.2l0.1,0c0,0.1,0.1,0.2,0.2,0.1c1.3-1.1,0.3-3.1,0.4-4.6c0-2.1,0.4-4.2,0.6-6.4c1-2,1.6-4,1.6-6.3
		c0-2.6-0.9-4.3-1.9-6.5c0.2-0.1,0.3-0.3,0.5-0.5c0,0-0.6-1.4-1.7-2.7c-1.2-1.3-2.1-2.1-2.7-2.7c0-0.1-0.1-0.1-0.2-0.1
		c-1,0.3-1.8,1.3-2.4,2.2c-2.9,0.8-6.2,1-7.8,3.4c-0.9,1.9-1.3,2.7-1.6,4.4c-0.3,1.7-0.5,2,0,4.7c1,4.8,1.3,9.8,1.1,14.7
		C81.3,94.4,81,95.2,80.4,96.8z"/>
</g>
<g id="movingParts">
	<path id="manarm1" class="st6" d="M109.2,73c0.1,0.6,0.1,1.1,0,1.6c-0.2,0.4-0.4,0.8-0.7,1.2c-0.9,1.2-1.9,2.5-3.1,3.5c-0.7,0.9-1.4,1.7-2.3,2.4
		c-1,0.7-2,1.4-3.2,1.9c-1.7,0.6-2.9-0.3-3.1-1.7c-0.1-0.6,0-1.4,0.5-2.1c1.3-2.2,4.2-3.5,5.8-5.4c0.5-0.6,1-1.3,1.6-1.8
		c0.5-0.4,1.2-0.5,1.6-1c0.4-0.4,0.2-0.6,0.4-1c0.2-0.4,0.3-1.1,1.4-1s1.9,0.3,1.9,1S109.1,72.3,109.2,73z"/>
	<path id="manarm2" class="st6" d="M99.7,77.4c0.6,1.1,1.2,2.3,1.1,3.6c0,0.8-0.3,1.5-0.9,2.1c-0.6,0.5-1.4,0.8-2.2,0.5c-0.6-0.2-1.1-0.7-1.6-1.2
		c-0.7-0.8-1.5-1.5-2.2-2.3c-1.1-1.2-2.3-2.4-3.1-3.8c-0.8-1.4-1.3-3.1-1-4.7c0.1-0.5,0.2-0.9,0.5-1.3c1.5-1.7,3.8-0.6,4.9,0.7
		C97,73,98.5,75.1,99.7,77.4z"/>
	<path id="manhand" class="st6" d="M110.3,70.7c0.5-1.1,0.9-2.2,1.6-3.1c0.8-1,1.4-2.3,1.1-2.4c-0.4-0.1-1.8,1.7-1.9,1.6
		c-0.4-0.2,1.6-2.9,0.8-3.2c-0.5-0.2-1.4,2.3-2.1,2.9c0.1-1,0.8-2.1,1-3.2c0.1-0.5,0.3-0.9-0.1-1c-0.4-0.1-0.7,0.2-0.8,0.6
		c-0.5,1-1.1,3.4-1.7,3.3s0.4-3.9-0.4-3.9c-0.8,0-0.9,5.8-1.6,5.9c-0.7,0.1-1-1.3-1.4-1.5s-1.4-0.4-1.4,0.1s0.8,1,0.9,1.6
		c0.2,0.6,0.4,0.9,0.6,1.5c0.2,0.8,1,1,1.4,1.3c0.6,0.5,1.2,0.7,2.2,0.6C109.6,71.5,110,71.3,110.3,70.7z"/>
	<path id="manhead" class="st6" d="M96.8,68.5c0.6,0.2,1.2,0.6,1.8,0.6
		c0.3,0,0.7-0.1,0.9-0.3c0.2-0.1,0.2-0.3,0.3-0.5c0.2,0,0.3,0,0.4-0.1c0,0,0,0,0.1-0.1l0.5-0.7c0.2-0.1,0.3-0.4,0.4-0.6
		c0.3,0.2,0.7,0.5,1,0.1c0.2-0.3,0.1-0.7,0.1-1c0-0.5,0-0.9,0-1.3c0.6-0.8,0.9-1.4,1-2.4c0,0,0,0,0,0l0,0c0.4-2,0.3-3.4-0.9-5.1
		c-1.1-1.5-2.6-2.7-4.6-2.4c-1.7,0.2-3.3,1.5-4.4,2.9c-1.3,1.8-1,3.7-1.3,5.6c-0.4,1.7,0.8,3.2,1.9,4S96.1,68.2,96.8,68.5z"/>
	<path id="manarm3" class="st6" d="M83,94.6c0.8-0.8,0.7-1.9,0.4-2.4
		c-0.3-0.6-1.1,0.5-2,0.3c-0.3-0.1-0.7-0.3-1-0.4c-0.5-0.3-0.9-0.7-1.4-1.1c-0.5-0.3-0.9-0.4-1.3-0.3c0-0.7-0.4-1.3-0.6-2.1
		c-0.2-0.7-0.5-1.3-0.8-2c0-0.4,0.1-0.7,0-1c0-0.7-0.1-1.5-0.1-2.3c-0.1-1.5-0.5-2.9-0.6-4.3c1,0,2.1-0.2,3.1-0.5
		c0.6-0.2,1.2-0.5,1.7-0.7c0,0,1.1-0.2,3.5-1s2.1-1.4,3.4-4.1c1.3-2.6-0.1-4.4-1.5-4.9s-2.4,0-3.7,0.8c-1.7,0.9-3.3,2.1-4.9,3.2
		c-1.9,0.7-3.6,1.8-5.3,3c-1.2,0.8-2.1,1.3-2.4,2.8c-0.6,2.9,0.7,7.2,2.7,9.7c0.1,0.8,0.3,1.5,0.5,2.3c0.2,0.7,0.3,1.5,0.7,2.1
		c0.3,0.6,0.9,0.7,1.4,0.6c0,0,0,0,0,0.1c0.2,0.5,0.5,0.8,0.8,1.2c0.3,0.5,0.6,1,1,1.4c0.4,0.4,0.8,0.6,1.3,0.5
		c0.1,0,0.1,0.1,0.2,0.1c0.4,0.2,0.8,0.4,1.2,0.7c0.3,0.1,0.7,0.4,1.1,0.5C82.5,96.3,82.3,95.4,83,94.6z"
		/>
	<path id="momarm" class="st6" d="M160.1,67.3c1.1,1.7,2.3,3.9,3.4,5.7c0.3,0.5,1.1-0.1,1.4,0.5c1.5,2.5,2.5,5.6,3.7,8.3c0.4,0.8,0.4,1.7,0.5,2.6
		c0,0.6,0.1,1.3-0.2,1.8c-0.4,0.7-1.2,1.1-2,1.3c0.1,0.1,0.1,0.3,0.2,0.4c-0.1,0.2-0.3,0-0.5-0.1c-0.1-0.1-0.1-0.2-0.2-0.3
		c-0.1,0-0.1,0-0.2,0c-0.1,0-0.3,0-0.4-0.1c-0.1-0.1-0.7-1.3-1.2-2.2c-1.8-2.3-3.5-4.8-5-7.3c-0.3-0.5-0.5-1.1-0.5-1.7
		c0.5-0.1,1.1-0.4,1.6-0.8c-0.5-1.5-1-3.1-1.7-5.1c-0.2-0.5-0.3-0.7-0.5-1c-0.2-0.3-0.6-1.1,0-1.6C158.9,66.9,159.6,66.9,160.1,67.3
		"/>
	<path id="mompoint" class="st6" d="M157.9,64.2c-0.2-0.2-0.5-0.5-0.9-0.4c-0.2,0.2-0.2,0.7,0.1,1c0.4,0.4,0.6,0.7,0.5,0.8c-1.3,0-2.1-0.4-3.3-0.1
		c-0.8,0.2-1.5,0.7-2.1,1.3c-0.1,0.1-0.1,0.1-0.2,0.2c0,0.1-0.7,0.6-0.7,0.7c0,0.3-0.2,0.6-0.3,0.9c-0.2,0.5,0.5,0.6,0.7,1.1
		c0.5,0.3,1.1,0.1,1.7,0c1.5-0.4,3.2-0.7,4.8-0.3c0.5,0.1,1.1,0.3,1.6,0.2c1.4-0.3,0.4-1.7,0.1-2.5
		C159.5,66.1,158.8,65.1,157.9,64.2z"/>
	<path id="momhead" class="st6" d="M189.5,81.5c0.2-1,0.3-2-0.1-2.9c0-0.1-0.1-0.2-0.1-0.3c0-0.1,0.1-0.1,0.1-0.2c0.3-0.4,0.1-1,0-1.6
		c-0.3-1.1-0.5-2.2-0.5-3.4c0-0.4,0-0.9-0.2-1.3c-0.1-0.3-0.3-0.6-0.5-0.9c-0.5-0.9-0.8-2-1.1-3c-0.1-0.2-0.1-0.4-0.3-0.6
		c-0.2-0.3-0.5-0.5-0.8-0.7c-0.3-0.3-0.4-0.7-0.7-1c-0.5-0.4-1.3-0.4-1.8-0.8c-0.1-0.1-0.2-0.2-0.4-0.3c-0.2-0.1-0.4-0.1-0.6-0.1
		c-0.5-0.1-0.9-0.1-1.4-0.2c-0.4,0-0.8-0.1-1.1,0c-0.3,0.1-0.6,0.3-0.9,0.4c-1,0.5-2.2,0.5-3,1.2c-0.5,0.4-0.9,1.1-1.2,1.7
		c-0.1,0.1-0.1,0.4-0.1,0.6c-0.3,0.5-0.3,0.8-0.5,1.4c-0.1,0.2,0.2,1,0,1.2c-0.2,0.4-0.3,0.5-0.4,1c-0.1,0.9-0.1,2,0.1,2.9
		c0.2,0.6,0,1.2,0.3,1.8c0.1,0.4,0.3,0.7,0.6,0.9c0.6,0.5,1.5,0.9,3,0.9c1.5,0,4.1-0.7,4.1-0.7s-0.1,3.1,1.2,3.8s5.1,1.6,5.6,1.1
		S189.5,81.5,189.5,81.5z"/>
	<path id="mompoint1" class="st6" d="M203.8,77.1c0.3,0,0.7,0,0.9,0.2c0,0.2-0.3,0.7-0.7,0.7c-0.6,0-0.9,0.1-0.9,0.2c1,0.8,1.9,1,2.7,2c0.5,0.7,0.7,1.5,0.8,2.3
		c0,0.1,0,0.2,0,0.2c0,0.1,0.1,0.9,0.1,1c-0.2,0.3-0.3,0.6-0.4,0.9c-0.1,0.3-0.4,0.3-0.7,0.3c-0.2,0-1.1-1.8-1.2-1.7
		c-0.2,0,0.5,1.4,0.1,1.5s-0.5-0.5-0.7-0.8c-0.9-1.3-2.1-2.5-3.5-3.2c-0.5-0.2-1-0.4-1.4-0.9c-0.9-1.2,0.8-1.6,1.5-1.9
		C201.5,77.5,202.7,77.2,203.8,77.1z"/>
	<path id="momhand" class="st6" d="M199.1,78.6c-1.6,1.3-1.5,1.6-3.1,2.9c-0.5,0.4-1-0.4-1.5,0c-2.2,1.9-6,6.1-7.9,8.2c-0.6,0.7-0.9,1.5-1.2,2.3
		c-0.2,0.6-0.4,1.2-0.4,1.8c0.1,0.8,0.8,1.5,1.5,1.8c-0.1,0.1-0.2,0.2-0.3,0.3c0,0.2,0.3,0.1,0.5,0c0.1-0.1,0.2-0.1,0.3-0.2
		c0.1,0,0.1,0,0.2,0.1c0.1,0,0.3,0.1,0.4,0c0.1,0,1.1-1,1.8-1.7c2.4-1.7,6.3-5.9,8.6-7.8c0.5-0.4,0.8-0.9,1-1.5
		c-0.4-0.3-0.9-0.7-1.3-1.3c0.9-1.3,0.4-0.3,1.6-2c0.3-0.4,0.5-0.6,0.8-0.8c0.3-0.2,0.9-0.9,0.5-1.5
		C200.3,78.7,199.6,78.4,199.1,78.6"/>
</g>
</svg>
