<?xml version="1.0" encoding="utf-8"?>
<svg version="1.1" xmlns="http://www.w3.org/2000/svg" xmlns:xlink="http://www.w3.org/1999/xlink" x="0px" y="0px"
	 viewBox="0 0 170 70" style="enable-background:new 0 0 170 70;" xml:space="preserve">
<style type="text/css">
	.st4{display:inline;fill:#0000000;}
	.st12{fill:url(#SVGID_1_);}
	.st22{fill:#FFA92C;}

	#spoon {
		transform-origin: 75px 40px;
		animation: spoon 12s infinite;
	}
	@keyframes spoon {
		0% { transform: translate(0, 0) rotate(0);}
		35% { transform: translate(0, 0) rotate(0);}
		45% {transform: translate(-3px, 1px) rotate(-80deg);}
		65% {transform: translate(-3px, 1px) rotate(-80deg);}
		75% { transform: translate(0, 0) rotate(0);}
		80% { transform: translate(-1px, -1px) rotate(-5deg);}
		90% { transform: translate(-1px, -1px) rotate(-5deg);}
		95% { transform: translate(0, 0) rotate(0);}
		100% { transform: translate(0, 0) rotate(0);}
	}

	#head {
		transform-origin: 57px 24px;
		animation: head 12s infinite;
	}
	@keyframes head {
		0% { transform: translate(0, 0) rotate(0);}
		75% { transform: translate(0, 0) rotate(0);}
		80% { transform: translate(0, 1px) rotate(5deg);}
		90% { transform: translate(0, 1px) rotate(5deg);}
		95% { transform: translate(0, 0) rotate(0);}
		100% { transform: translate(0, 0) rotate(0);}
	}

	#face {
		transform-origin: 57px 24px;
		animation: face 24s infinite;
	}
	@keyframes face {
		0% { transform: translate(0, 0) rotate(0);}
		37.5% { transform: translate(0, 0) rotate(0);}
		40% { transform: translate(0, 1px) rotate(5deg);}
		45% { transform: translate(0, 1px) rotate(5deg);}
		47.5% { transform: translate(0, 0) rotate(0);}
		57.5% { transform: translate(-2px, 0) rotate(0);}
		87.5% { transform: translate(-2px, 0) rotate(0);}
		90% { transform: translate(-2px, 1px) rotate(5deg);}
		95% { transform: translate(-2px, 1px) rotate(5deg);}
		97.5% { transform: translate(-2px, 0) rotate(0);}
		100% { transform: translate(0, 0) rotate(0);}
	}

	.phone {
		transform-origin: 40px 45px;
		animation: phone 24s infinite;
	}
	@keyframes phone {
		0% { transform: rotate(0);}
		47.5% { transform: rotate(0);}
		52.5% { transform: rotate(15deg);}
		87.5% { transform: rotate(15deg);}
		90% { transform: rotate(5deg);}
		95% { transform: rotate(5deg);}
		97.5% { transform: rotate(0);}
		100% { transform: rotate(0);}
	}
	#screen {
		animation: tv 24s infinite;
	}
	@keyframes tv {
		0% { transform: rotate(0); fill:#FFFB96;}
		27.5% { transform: rotate(0); fill:#FFFB96;}
		37.5% { transform: rotate(0); fill:#FFC52C;}
		47.5% { transform: rotate(0); fill:#FFC52C;}
		52.5% { transform: rotate(15deg); fill:#FFFB96;}
		87.5% { transform: rotate(15deg); fill:#FFFB96;}
		90% { transform: rotate(5deg); fill:#FFFB00;}
		95% { transform: rotate(5deg); fill:#FFFB00;}
		97.5% { transform: rotate(0); fill:#FFFB96;}
		100% { transform: rotate(0); fill:#FFFB96;}
	}

	#tail {
		transform-origin: 130px 67px;
		animation: tail 0.5s infinite;
		animation-timing-function: ease-in-out;
	}
	@keyframes tail {
		0% { transform: translateY(-2px) rotate(0) scale(100%);}
		50% {transform: translateY(-2px) rotate(-35deg) scale(90%);}
		100% { transform: translateY(-2px) rotate(0) scale(100%);}
	}
</style>
<g id="bg">
	<linearGradient id="SVGID_1_" gradientUnits="userSpaceOnUse" x1="0" y1="35" x2="170" y2="35">
		<stop  offset="0" style="stop-color:#FFFB00"/>
		<stop  offset="1" style="stop-color:#8F5C00"/>
	</linearGradient>
	<rect class="st12" width="170" height="70"/>
</g>
<g id="objects">
	<g>
		<path id="dog" class="st4" d="M131.8,70h-18.5c-0.1-0.7,0.1-1.5-0.1-2.2c-0.2-0.9-0.1-2-0.7-2.5c-1.1-1.1-0.5-2.7-2.1-3.3c-1.3-0.6-1.9-1.8-2.3-3.1
			c0.1-1.2,0.8-2.3,0.2-3.5c-0.1-0.2,0-0.5,0-0.8c0-0.6,0.2-1.2-0.1-1.8c-0.1-0.2,0.1-0.6,0.2-0.8c0.3-0.8,0.1-1-0.7-1.4
			c-0.6-0.3-1.2-0.3-1.8-0.1c-0.4,0.1-0.8,0-1.1-0.2c-0.1-0.1-0.3-0.3-0.5-0.3c-0.6-0.2-0.7-0.4-0.2-0.9c0.4-0.4,0.9-0.5,1.5-0.8
			c-1.3-0.2-2.3-0.6-2.7-1.9c-0.2-0.5-0.1-0.7,0.4-0.8c0.7-0.2,1.4-0.3,2.1-0.4c0.9,0,1.5-0.4,2-1.1c0.4-0.6,1-1,1.8-0.9
			c0.6,0.1,1.3,0,2,0c0.2,0,0.5,0,0.6,0.1c1.1,0.9,2.5,1.5,2.5,3.3c0,0.1,0.1,0.3,0.2,0.3c1.1,0.9,1.2,2.4,2.1,3.4
			c0.1,0.2,0.2,0.4,0.4,0.5c2.3,2.2,4.5,4.4,7.1,6.2c1,0.7,2,1.4,3,2.2c0.4,0.3,1,0.8,1,1.2c0,0.6,0.2,0.7,0.5,1
			c0.4,0.4,0.9,0.7,1.3,1.1c0.7,0.7,1.2,1.6,1.6,2.5l0.1,0.3C132.1,67.3,131.9,68.6,131.8,70z"/>
	</g>
	<g id="fridge">
		<path class="st4" d="M170,13.3h-29.1c-0.6,0-1.2,0.5-1.2,1.2V35c0,0.6,0.5,1.2,1.2,1.2H170V13.3z M144.7,32.6c0,0.3-0.2,0.5-0.5,0.5h-0.9
			c-0.3,0-0.5-0.2-0.5-0.5v-6.8c0-0.3,0.2-0.5,0.5-0.5h0.9c0.3,0,0.5,0.2,0.5,0.5V32.6z"/>
		<path class="st4" d="M170,36.6h-29.1c-0.6,0-1.2,0.5-1.2,1.2V70H170V36.6z M144.7,47.1c0,0.3-0.2,0.5-0.5,0.5h-0.9c-0.3,0-0.5-0.2-0.5-0.5
			v-6.8c0-0.3,0.2-0.5,0.5-0.5h0.9c0.3,0,0.5,0.2,0.5,0.5V47.1z"/>
	</g>
	<path id="jacket" class="st4" d="M13.9,11.7c1.3,1,1.7,2.1,2.1,3.7c1.7,6.3,2.5,11.7,2.5,18.1c-1.3,0.2-2.3,0.5-3.6,0.4c-0.1,2,0,4.3-0.2,6.3
		C9.6,41,4.8,41,0,41.1L0,9.7c0.6-0.2,1.1-0.4,1.7-0.4c0.9,0,1.9,0.4,3,0.4c2.3,0,1.9-0.3,2.9-0.3c0.6,0,1.5,0.2,2,0.5
		C11.2,10.6,12.7,10.9,13.9,11.7z"/>
	<path id="hanger" class="st4" d="M0,10.9c0.7,0,1.4,0,2,0c2.6,0,5.2,0.1,7.8-0.1c-0.7-0.3-1.4-0.6-2.1-0.9c-1-0.4-2-0.9-3-1.3C3.7,9.1,2.7,9.6,1.7,10
		c-0.6,0.2-1.1,0.5-1.7,0.8l0-0.5C0.5,10,1,9.8,1.5,9.6c1-0.5,2.1-0.9,3.2-1.4l0.1,0l0.1,0c1,0.4,2,0.9,3.1,1.3
		c1,0.5,2.1,0.9,3.1,1.3l1,0.4L11,11.3c-1.8,0.1-3.6,0.1-5.4,0.1c-1.2,0-2.4,0-3.6,0c-0.7,0-1.3,0-2,0L0,10.9z"/>
	<path id="hanger2" class="st4" d="M4.8,8.7C4.8,8.7,4.8,8.7,4.8,8.7c-0.1,0-0.3-0.1-0.2-0.3c0-0.2,0-0.4,0-0.6c0-0.1,0-0.3,0.1-0.5C4.9,7.1,5,7.1,5.2,7
		c0.1,0,0.1,0,0.2-0.1c0.1-0.1,0.2-0.2,0.2-0.3c0-0.1,0-0.3-0.1-0.3C5.3,6.1,4.9,6.1,4.6,6.2c-0.1,0-0.2,0-0.3,0.1
		C4.1,6.4,4,6.6,4.1,6.7C4.1,6.9,4,7,3.9,7C3.8,7.1,3.6,7,3.6,6.9C3.5,6.5,3.7,6,4,5.8c0.2-0.1,0.3-0.1,0.5-0.2c0.6-0.1,1,0,1.3,0.3
		C6,6.2,6.1,6.4,6,6.7C6,7,5.8,7.2,5.6,7.4c-0.1,0-0.2,0.1-0.2,0.1c-0.1,0-0.2,0.1-0.2,0.1c0,0,0,0.2,0,0.2c0,0.2,0,0.4,0,0.6
		C5.1,8.6,5,8.7,4.8,8.7z"/>
	<circle id="hook" class="st4" cx="4.8" cy="6.3" r="0.4"/>
	<g id="hat">
		<path class="st4" d="M28.1,5.1c-3.5,0-6.3,3.2-6.3,7.1s2.8,7.1,6.3,7.1s6.3-3.2,6.3-7.1S31.5,5.1,28.1,5.1z M28,17.1c-2.8,0-5.1-2.3-5.1-5.2
			c0-2.9,2.3-5.2,5.1-5.2S33,9,33,11.9C33,14.7,30.8,17.1,28,17.1z"/>
		<ellipse class="st4" cx="27.6" cy="11.3" rx="4.5" ry="4.7"/>
	</g>
</g>
<g id="movingParts">
	<path id="head" class="st4" d="M61.9,24.5c-0.6,0.6-0.7,0.4-1.5,0.7c-0.7,0.3-1.4,0.3-2.1,0.3c-0.7,0-1.4-0.1-2.1-0.2c-0.4-0.1-0.7-0.1-1-0.3
		c-0.3-0.2-0.7-0.5-0.9-0.8c0.1-0.3-0.1-0.8-0.1-1.2c0-0.8-0.6-1.2-1-2.3c-0.3-1.3-0.3-2.3-0.4-3.7c0-0.5,0.1-1.3,0.3-1.9
		c0.5-1.4,1-2.4,2.1-2.9c1-0.5,1.4-0.8,2.5-0.9c0.8-0.1,1.8,0.3,2.7,0.5c0.8,0.2,1.5,0.6,2,1.2c0.5,0.6,0.9,1.5,1,2.3
		s0.3,1.9,0.1,3.3c-0.1,0.9,0,1.6-0.4,2.8c-0.2,0.6-0.8,1.2-0.9,1.7C61.9,23.8,62,24.3,61.9,24.5z"/>
	<path id="tail" class="st4" d="M129.2,70c-0.7-0.2-1.4-0.8-1.7-1.5c-0.3-0.7-0.4-1.5,0-2.2c0.1-0.3,0.3-0.5,0.6-0.7c0.3-0.1,0.6-0.1,0.9-0.1
		c0.9,0,1.8,0,2.7,0.1c0.1,0,0.4-0.1,0.5-0.1c1.1-0.3,1.9-1.1,2.3-2.2c0.4-1.1,0.6-2.4,0.5-3.6c0-0.2-0.1-0.3-0.1-0.5
		c-0.5-1-1.1-1.7-2-2.6c1.1-0.2,2.1-0.5,2.9,0c0.5,0.3,1,0.8,1.6,1.1c0,0,0.1,0.1,0.1,0.1c-0.1,1,0.5,1.8,0.4,2.8
		c-0.2,1.7,0.6,3.4,0,5c-0.4,0.9-2.4,3.2-4.2,4.5c-0.5,0-0.9,0-1.4,0H129.2z"/>

	<path id="spoon" class="st4" d="M78.7,38c-0.3-1.3-0.5-2.3-0.8-2.9c-0.7-1.4-1.1-3.1-1.4-4.6c-0.2-0.8-0.2-1.8-0.4-2.7c-0.1-0.4-0.2-1-0.3-1.3
		c-0.1-0.3-0.4-0.6-0.4-1c0-0.7,0.3-1.7,0.4-2.4c0.1-0.9-0.2-1.5-0.9-2c-0.8-0.5-1.5-1.2-2.3-1.7c-0.5-0.3-0.6-0.1-1.2,0.3
		c-0.4,0.3-1.2,0.6-1.6,1.1c-0.2,0.2-0.9,0.9-0.9,1.1c0,0.2,0.3,0.2,0.5,0.2l-2.8,1.4c-0.3-0.1-1.1,0.2-1.9,0.5
		c-1,0.4-1.6,0.8-1.5,1.1c0.2,0.3,1.2,0.3,2.1-0.1c0.9-0.4,1.4-1,1.4-1.3c0.9-0.5,1.8-0.8,2.6-1.1c0,0.1,0,0.2,0.1,0.5
		c0.4,0.7,0.4,1.5,0.9,2c0.2,0.2,0.7,0.5,0.9,0.7c0.1,0.1,0.1,0.7,0.1,0.9c0,0.4,0.2,0.9,0.2,1.3c0,0.4,0.2,1,0.2,1.3
		c0,1.4,0.1,2.1,0,3c-0.3,2.6,0.4,4.3,0.4,7.9c0,1.6,0.3,2.1,0.6,2.7c0.1,0.2,1.6,1.7,3.2,1.1c0.3-0.1,1.9-0.4,2.2-1.5
		C78.5,41.1,79,39.3,78.7,38z"/>
	<path class="st4 phone" d="M43.1,29l-4.9,0.9c-0.2,0-0.4-0.1-0.4-0.3l-1.4-7.8c0-0.2,0.1-0.4,0.3-0.4l4.9-0.9c0.2,0,0.4,0.1,0.4,0.3l1.4,7.8
		C43.4,28.8,43.3,29,43.1,29z"/>
	<path class="st22 phone" id="screen" d="M42.8,28.7l-4.4,0.8c-0.1,0-0.2-0.1-0.3-0.2L36.9,22c0-0.1,0.1-0.2,0.2-0.3l4.4-0.8c0.1,0,0.2,0.1,0.3,0.2
		l1.3,7.4C43,28.6,42.9,28.7,42.8,28.7z"/>
	<path class="st4 phone" d="M37.4,42.6c-0.5-2.9-1.2-5.7-1.2-8.5c0-0.1,0.3-0.1,0.3-0.3c0-1.8,0-3.6,0.2-5.5c0-0.4-0.1-0.6,0.1-1
		c0.3-0.9,1.2-1.3,2.1-1.5c0.3,0.1,0.4,1.1,0.1,1.5c-0.2,0.3-0.6,0.7-0.9,1c0.1,0.7,0.1,1.4,0.1,1.4l4.7-0.7
		c0.2,1.2-0.4,2.7-1.4,3.4c-0.3,0.2-0.7,0.3-0.8,0.7c0,0,0,0.1,0.1,0.3c0,0,0.4,0.1,0.4,0.3c0.8,3,1,6.1,1.7,9.1
		c0.3,1.3,0.5,3-0.7,3.7C39,48.1,37.9,45,37.4,42.6z"/>
	<path id="face" class="st4 phone" d="M63,23.3c0.2-0.1,0.3-0.5,0.4-0.7c0.1-0.4,0.4-0.5,0.4-0.9c0-0.4,0.1-0.4,0.1-0.7c0-0.2-0.4-0.3-0.2-0.7
		c0.2-0.3,0.5-0.3,0.6-1c0-0.6-0.8-1.7-0.9-2.3c0-0.9,0.1-0.7,0.1-1.6c0-0.8-0.6-2.1-1-2.6c-0.6-0.7-1.7-0.6-2.5-0.4
		c-0.2,0.1-0.5,0.1-0.7,0.3c-0.3,0.2-0.5,0.6-0.6,1c-0.6,1.8-0.6,3.8,0.1,5.6c0.5,1.2,1.1,3.2,2,4c0.5,0.4,1.1,0.4,1.7,0.2
		C62.4,23.6,62.8,23.4,63,23.3z"/>
</g>
<path id="table" class="st4" d="M90,53.1v-2l-5.9-5H72.5l-0.6,0c0,0,0-0.6-0.4-0.9c-0.4-0.3-2.8-0.1-2.8-0.1s0.1-3.3,0.1-3.6c0-0.7,0-1.4,0-2.4
		c0.7,1,1.2,1.7,1.7,2.5l1.2,1.4c0,0,0.7,0.6,1.1,0.9c0.3,0.3,1.8,0.5,2.2,0.4c0.9-0.1,0.9-0.2,1.7-0.5c0.9-0.3,1.6-1.3,1.9-2.2
		c0.5-1.2-0.1-2.6-0.7-3.7c-0.7-1.1-1.4-2.2-2.3-3.1c-1.1-1.2-2.4-2.1-3.3-3.5c-2.1-3.4-1.6-3.3-7.1-6c-0.7-0.3-1.5-0.4-1.9-0.6
		c-0.1-0.1-0.2-0.5-0.4-0.6c-0.2-0.1-0.6,0-0.6-0.1c-0.5-0.3-1.1-0.6-1.7-0.8c-0.2-0.1-0.3-0.1-0.5-0.2c-0.2-0.1-0.4-0.2-0.7-0.2
		c-0.6-0.2-1.2-0.2-1.8-0.2c-0.5,0-0.9,0-1.4,0.1c-0.4,0.1-0.9,0.3-1.2,0.6c-0.1,0.1-0.3,0.3-0.4,0.4c-0.2,0.1-0.2,0.2-0.4,0.2
		c0,0.1-0.3-0.1-0.5,0c-0.3,0.2-0.5,0.5-0.9,0.6c-0.5,0.2-0.8,0.4-1.3,0.6c-3.5,1.3-6.2,3.5-7.9,7.2c-0.8,1.7-2,3.2-3,4.9
		c-0.2,0.4-1.8,4.3-2.9,5.9c-0.2,0.3,0.5,1.4,0.5,1.4s-1.3,0-1.4,0c-0.1,0,0.5-9.8,0.5-9.8s-0.5-0.2-1.2-0.2c-0.7,0-1.1,0.2-1.1,0.2
		L35,36.6l-3,0l-13.3-0.1l-2.9,0v-1.7c-0.3-0.3-2.2-0.3-2.4,0l0.2,7.2l0.1,4.5l-4.6,0.1H0l0,10.2h14.3l0.1,3.4l-1.8,3.5V70l3.8,0
		l0.1-6.1l18.4,0l0.1,6.1l7.7,0c0,0,0-1.7,0-1.7c0-3.6,0-7.1,0-10.7c0-0.3,0-1.1,0-1.1l3.1,0c0,0,0.5,11,0.5,13.5l10,0
		c-0.2-0.8-0.7-1.5-1-2.6c-0.3-1-0.8-1.9-1.1-3c-0.1-0.4,0-0.9,0-0.9s0.5,0,0.8,0c1.2,0,7.7,0,7.7,0s0,0.6,0,0.9
		c-0.1,1.2,0.1,2.4-0.2,3.6c-0.2,0.6-0.4,1.3-0.5,1.9l8.2,0c0.2-1.7,0.9-3.3,1.1-5.3c0.2-1.9,0.2-3,0-4.4c-0.2-1.1-0.4-1.6-0.6-2.7
		c-0.1-0.6-0.2-1.2-0.2-1.2l13.9-0.1V70h5.3V53.2L90,53.1z M34.8,44.1c0,0-17.7,0-17.9,0h-1l0-2.2c0-0.2,0-0.7,0-1c0,0,0.4,0,0.9,0
		c0.3,0,18.2,0,18.2,0L34.8,44.1z M34.8,58.7c0,0-17.1,0-17.3,0h-1l0-1.1c0-0.2,0-0.7,0-1c0,0,0.4,0,0.9,0c0.3,0,17.6,0,17.6,0
		L34.8,58.7z M36.5,56.5l1.3,0c0,0,0.1,0.4,0.1,0.6c0,1.9,0,3.8,0,5.7L36.5,59V56.5z M44.8,46.4H43c0,0,0.7-2.7,0.5-2.3
		s0.3-0.5,0.9-1c0.4,0.2,0.6,0.3,0.6,1.4C45,44.9,44.8,46.4,44.8,46.4z"/>
	
</svg>
