<?xml version="1.0" encoding="utf-8"?>
<!-- Generator: Adobe Illustrator 26.3.1, SVG Export Plug-In . SVG Version: 6.00 Build 0)  -->
<svg version="1.1" xmlns="http://www.w3.org/2000/svg" xmlns:xlink="http://www.w3.org/1999/xlink" x="0px" y="0px"
	 viewBox="0 0 70 100" style="enable-background:new 0 0 70 100;" xml:space="preserve">
<style type="text/css">
	.st6{fill:#000000;}
	.st12{fill:url(#SVGID_1_);}
	.st23{fill:#895800;}

</style>
<g id="Layer_5">
	<linearGradient id="SVGID_1_" gradientUnits="userSpaceOnUse" x1="77.5029" y1="7.5029" x2="-7.5029" y2="92.5087">
		<stop  offset="0" style="stop-color:#FF8900"/>
		<stop  offset="1" style="stop-color:#663500"/>
	</linearGradient>
	<rect class="st12" width="70" height="100"/>
</g>
<g id="Layer_6">
	<path d="M23.7,49.5V27.9c0-0.2-0.1-0.3-0.3-0.4L4.1,22.8c-0.1,0-0.2,0-0.3,0l-1.3,0.7c-0.1,0.1-0.2,0.2-0.2,0.3v26L0,50v14.1
		l30-9.5c0.2-0.1,0.3-0.2,0.3-0.4v-4.3c0-0.2-0.2-0.4-0.4-0.4H23.7z"/>
	<path class="st23" d="M21.3,50.7L6.8,52.4c-0.2,0-0.4-0.2-0.4-0.4V27.3c0-0.2,0.2-0.4,0.5-0.4l14.5,2.7c0.2,0,0.3,0.2,0.3,0.4v20.3
		C21.7,50.5,21.5,50.7,21.3,50.7z"/>
	<path d="M39.2,74c-0.3,2-9.2,0.4-9.5,2.4c-0.2,0.9,1.6,2.1,1.6,3c0,0.9-0.1,1.9,0.2,2.7c0.2,0.5,0.2,1,0.8,1.1
		c-0.1,0,0.3,0,0.3,0.1c0.4,0,1.3,0.8,1.7,0.8c2.6,0.3,5,0.5,7.3,0.6v6.6c0,0.2,0,4,0.1,6.4L29.5,100c0,0,12.4,0,12.4,0
		c0,0,3.2,0,3.2,0h12.6l-12.5-2.3c0,0,0,0,0-0.1c0.1-2,0.2-4,0.3-6c0.1-2.3,0.2-4.5,0.3-6.8c2.9,0,5.8-0.1,9.1-0.4
		c0.6,0,1.3-0.4,1.4-1l3.5-15.2c0.4-1.9,0.9-3.7,0.8-5.6c0-1.7-0.5-3.4-1.5-4.7c0.3,0.1,0.7,0.2,1,0.3c0.5,0.1,0.7-0.3,1-0.8
		c0.3-0.5,0.3-1.1,0.4-1.6c0.2-2.3,0.2-4.5,0-6.8c-0.1-0.7-0.1-1.5-0.4-2.2c-0.3-0.7-1.7-2.3-2.1-2.4c-1.3-0.5-2.8-0.7-4.2-0.6
		c-0.7,0-1.4,0.2-1.9,0.6c-0.5,0.4-0.7,1.1-0.8,1.7c-0.2,0.9-0.4,1.7-0.5,2.6c-0.3,2.1-0.6,4.2-0.4,6.3c-2.1,1.7-2.7,4.6-3.3,7.3
		c-0.8,3.5-1.6,7.1-2.4,10.6c-6.6,0.1-10.4,0.3-16.9,0.7c-0.6,0-1.4,0.1-1.7,0.7c-0.2,0.3-0.2,0.6-0.3,0.9c-0.2,2.2,1,4.4,2.4,6.1
		c0.6,0.8,1.4,1.6,2.3,2.1c0.9,0.5,2,0.7,3.1,0.8c3.3,0.4,3.8,0.5,7,0.2"/>
	<path d="M59.4,21.9l-0.6-3h1.1c0.9,0,1.6-0.7,1.6-1.6l0.3-2c0-1-0.8-1.8-1.8-1.8h-0.2c0.1-0.2,0.2-0.3,0.2-0.5c0-0.6-0.5-1-1-1
		c-0.6,0-1,0.5-1,1c0,0.2,0.1,0.4,0.2,0.5h-0.7c0.1-0.2,0.2-0.3,0.2-0.5c0-0.6-0.5-1-1-1c-0.6,0-1,0.5-1,1c0,0.2,0.1,0.4,0.2,0.5
		h-0.1c-1,0-1.8,0.8-1.8,1.8l0.3,2c0,0.9,0.7,1.6,1.6,1.6h1l-0.6,3h-6.9l-0.6-3h1.1c0.9,0,1.6-0.7,1.6-1.6l0.3-2
		c0-1-0.8-1.8-1.8-1.8h-4.4c-1,0-1.8,0.8-1.8,1.8l0.3,2c0,0.9,0.7,1.6,1.6,1.6h1l-0.6,3h-7.8c0.2-0.2,0.3-0.5,0.3-0.8l0.9-3.7
		c0-0.8-0.4-1.4-1.1-1.8c0.1-0.2,0.1-0.5,0.1-0.7c0-1.6-1.3-2.9-2.9-2.9c-1.6,0-2.9,1.3-2.9,2.9c0,0.3,0.1,0.6,0.2,0.9
		c-0.5,0.4-0.8,0.9-0.8,1.6l0.9,3.7c0,0.3,0.1,0.6,0.3,0.8h-3.8c-0.1,0-0.3,0.1-0.3,0.3v1.3c0,0.1,0.1,0.3,0.3,0.3H70v-1.8H59.4z
		 M35.8,17.9c0.7,0,1.2,0.5,1.2,1.2s-0.5,1.2-1.2,1.2c-0.7,0-1.2-0.5-1.2-1.2S35.2,17.9,35.8,17.9z M57.6,18.9H58l0.6,3H57
		L57.6,18.9z M47.5,18.9h0.4l0.6,3h-1.6L47.5,18.9z"/>
	<path d="M50.6,69.1c-5.9-0.1-11.9-0.2-17.8-0.2c-1.4,0-3.5-0.7-3.5-1.6s2.7-0.9,4.1-1c5.7-0.4,11.4-0.8,17-1.3
		C50.3,66,50.4,67.9,50.6,69.1z"/>
	<path d="M55.5,74.2c-5.9-0.1-11.9-0.2-17.8-0.2c-1.4,0-3.5-0.7-3.5-1.6s2.7-0.9,4.1-1c5.7-0.4,11.4-0.8,17-1.3
		C55.2,71.2,55.3,73.1,55.5,74.2z"/>
	<path d="M37.2,74.4c0,0.1,0.1,0.3,0.2,0.4c0.1,0.1,0.2,0.1,0.3,0.1c0.9,0.1,1.8,0.1,2.7,0.2c-1.9-2-2.9-4.4-3.4-7
		c-0.7-0.2-1.8-0.8-2-0.3C34.5,69,37,73.5,37.2,74.4z"/>
</g>
</svg>
