<?xml version="1.0" encoding="utf-8"?>
<!-- Generator: Adobe Illustrator 26.3.1, SVG Export Plug-In . SVG Version: 6.00 Build 0)  -->
<svg version="1.1" xmlns="http://www.w3.org/2000/svg" xmlns:xlink="http://www.w3.org/1999/xlink" x="0px" y="0px"
	 viewBox="0 0 150 70" style="enable-background:new 0 0 150 70;" xml:space="preserve">
<style type="text/css">
	.st6{fill:#000000;}
	.st12{fill:url(#SVGID_1_);}
	.st14{fill:#A34D00;}
	.st22{fill:#FFA92C;}
#arm {
	transform-origin: 40px 40px;
	animation: arm 24s infinite;
}
#arm2 {
	transform-origin: 45px 58px;
	animation: arm2 24s infinite;
}
@keyframes arm {
	0% { transform: translate(0, 0) rotate(0);}
	85% { transform: translate(0, 0) rotate(0);}
	88% {transform: translate(-1.5px, 0) rotate(-35deg);}
	98% {transform: translate(-1.5px, 0) rotate(-35deg);}
	100% { transform: translate(0, 0) rotate(0);}
}
@keyframes arm2 {
	0% { transform: translate(0, 0) rotate(0);}
	85% { transform: translate(0, 0) rotate(0);}
	88% {transform: translate(7px, -6px) rotate(-25deg) scale(1, 0.8);}
	98% {transform: translate(7px, -6px) rotate(-25deg) scale(1, 0.8);}
	100% { transform: translate(0, 0) rotate(0);}
}
#hand, #bottle {
	transform-origin: 48px 41px;
	animation: hand 24s infinite;
}
@keyframes hand {
	0% { transform: translate(0, 0) rotate(0);}
	30% { transform: translate(0, 0) rotate(0);}
	40% { transform: translate(0, 0) rotate(10deg);}
	45% { transform: translate(0, 0) rotate(0);}
	50% { transform: translate(0, 0) rotate(20deg);}
	55% { transform: translate(0, 0) rotate(0);}
	58% { transform: translate(0, 0) rotate(10deg);}
	85% { transform: translate(0, 0) rotate(0);}
	88% {transform: translate(0, -2px) rotate(-42deg);}
	98% {transform: translate(0, -2px) rotate(-42deg);}
	100% { transform: translate(0, 0) rotate(0);}
}
#face, #hair {
	transform-origin: 36px 36px;
	animation: head 24s infinite;
}
@keyframes head {
	0% { transform: translate(0, 0) rotate(0);}
	10% { transform: translate(-1px, 0) rotate(30deg);}
	85% { transform: translate(-1px, 0) rotate(30deg);}
	88% {transform: translate(0, 1px) rotate(-14deg);}
	98% {transform: translate(0, 1px) rotate(-14deg);}
	100% { transform: translate(0, 0) rotate(0);}
}

#light1 {
	animation: lights 15s infinite;
}

@keyframes lights {
	0% { opacity: 1; }
	30% { opacity: 1; }
	34% { opacity: 0; }
	36% { opacity: 1; }
	40% { opacity: 0; }
	70% { opacity: 0; }
	73% { opacity: 1; }
	0% { opacity: 1; }
}
#bg {
	animation: bg 15s infinite;
}
@keyframes bg {
	0% { fill:#A34D00; }
	30% { fill:#A34D00; }
	34% { fill:#523700; }
	36% { fill:#A34D00; }
	40% { fill:#523700; }
	70% { fill:#523700; }
	73% { fill:#A34D00; }
	0% { fill:#A34D00; }
}

#screen {
		animation: tv 24s infinite;
	}
@keyframes tv {
		0% {fill:#FFFB96;}
		30% {fill:#FFFB96;}
		31% {fill:#FFC52C;}
		60% {fill:#FFC52C;}
		61% {fill:#FFFB96;}
		64% {fill:#FFFB96;}
		65% {fill:#FFFB00;}
		98% {fill:#FFFB00;}
		99% {fill:#FFFB96;}
		100% {fill:#FFFB96;}
	}

</style>
<g>
	<rect id="bg" class="st14" width="150" height="70"/>
	<radialGradient id="SVGID_1_" cx="127.5962" cy="16.9576" r="27.9085" gradientUnits="userSpaceOnUse">
		<stop  offset="0.2" style="stop-color:#FFC52C"/>
		<stop  offset="1" style="stop-color:#FFC52C;stop-opacity:0"/>
	</radialGradient>
	<path id="light1" class="st12" d="M150,34c-5.1,6.8-13.2,11.2-22.4,11.2c-15.4,0-28-12.5-28-28c0-6.5,2.2-12.5,5.9-17.2L150,0L150,34z"/>
		<radialGradient id="SVGID_00000054228618306120721980000007893126367307072441_" cx="52.3838" cy="50.3971" r="17.5809" gradientUnits="userSpaceOnUse">
		<stop  offset="0.2" style="stop-color:#FFC52C"/>
		<stop  offset="1" style="stop-color:#FFC52C;stop-opacity:0"/>
	</radialGradient>
	<circle id="light2" style="fill:url(#SVGID_00000054228618306120721980000007893126367307072441_);" cx="52.4" cy="50.4" r="17.6"/>
</g>
<g id="objects">
	<g id="clock">
		<path class="st6" d="M53.9,10c-4.4,0-8,3.6-8,8c0,4.4,3.6,8,8,8c4.4,0,8-3.6,8-8C61.9,13.6,58.3,10,53.9,10z M53.9,24
			c-3.3,0-6-2.7-6-6s2.7-6,6-6s6,2.7,6,6S57.2,24,53.9,24z"/>
		<path class="st6" d="M54,17.1l-0.8-1.6l-0.5-1.2c-0.2-0.4-0.6-0.6-1-0.9c0,0.5,0,1,0.1,1.4l0.5,1.1l0.8,1.6c0,0.1-0.1,0.1-0.1,0.2
			c-0.7,0.2-1.5,0.4-1.7,0.4c-0.5,0.1-0.9,0.5-1.4,0.8c0.5,0.1,1.1,0.3,1.6,0.1c0.2-0.1,1.1-0.2,1.7-0.4c0.2,0.2,0.4,0.3,0.6,0.3
			c0.5,0,0.9-0.4,0.9-0.9C54.8,17.5,54.5,17.1,54,17.1z"/>
	</g>
	<path id="body" class="st6" d="M51.9,61.4c0.2,0.4,0.3,0.8,0.4,1.2c0.1,0.2,0.2,0.5,0.2,0.7c0,0,0,0.1,0,0.1c0,0,0,0,0,0l0,0c0,2.2,1.2,4.5,1.9,6.5
		l-8.6,0c-0.1-0.3-0.3-0.6-0.4-1c-0.3-1.1-1.4-2-1.4-2l0.1,3L0,70l0-38c1.3-0.1,1.9,0.1,3.1,0.4c0.2,0,0.4,0.1,0.5,0.2
		c0.1,0.1,0.1,0.2,0.2,0.4c0.9,3.5,0.9,7.2,1.3,10.8C5.1,44.3,5.4,45,6,45.3s1.2,0.3,1.8,0.4c5,0.4,9.8,0.6,14.8,0.9
		c0.1-0.2,0.2-0.5,0.3-0.7c0.6-1.3,1.4-2.4,2.2-3.6c0.6-0.9,1.3-1.8,1.9-2.6c0.5-0.6,0.9-1.3,1.5-1.8c0.8-0.7,2.6-1.9,3.8-2
		c0.6-0.1,0.9-0.3,1.1-0.6c0.3-0.3,0.3-0.6,0.3-0.8c0-0.6,0.2-0.9,0.5-1.2c0.2-0.2,0.8-0.5,1.1-0.6c0.9-0.3,1.3-0.2,2.2,0.1
		c0.9,0.3,1.7,0.9,2.1,1.7c0.4,0.8,1.3,2.6-0.1,2.9c-0.6,0.2-1.2,0.3-1.3,0.9c0.3,0.6,1.5,0.5,2.3,1.5c0.3,0.4,0.2,1,0.2,1.4
		c-0.1,1.2-0.4,2.5-1,3.5c-0.6,0.9-1.6,1.8-1.7,2.9c-0.1,0.9-0.2,1.9-0.3,2.8c1.4,0.4,2.5,1.6,3.3,2.8c0.8,1.3,1.4,2.7,1.9,4.1
		c0.7,0.1,1.4,0.1,2.2,0.2c1,0.1,2,0.1,2.9,0.5C49.2,58.8,51.4,60.1,51.9,61.4z"/>
	<path id="couch" class="st6" d="M64.8,57v5.7V70h74.1v-7.3l-9.9-7.2h-0.5v-34c1.1,0,2.1-0.1,3-0.1v3.3c-0.1,0.1-0.2,0.3-0.2,0.6c0,0.4,0.2,0.7,0.4,0.7
		s0.4-0.3,0.4-0.7c0-0.3-0.1-0.5-0.2-0.6v-3.3c2.7-0.2,4.5-0.6,4.5-1.1v-6.1c0-0.7-3.8-1.2-8.4-1.2s-8.4,0.5-8.4,1.2v6.1
		c0,0.6,3.4,1.1,7.7,1.2v34h-5.3c0-1.3,0-2.4,0-3c0-2.2-1.6-2.8-2.8-3.4c-2.3-1.1-3.2-1.3-3.9-1.8c-1.8-1.1-1.7-2.5-2.6-4.4
		c-0.4-0.7-0.7-1.6-1.4-1.8c-0.3-0.1-0.7-0.1-1-0.1c-0.7,0-27.3,0.6-29.6,0.6c-0.5,0-1.3,0.4-1.5,2.2c-0.2,4.3-0.3,8-0.4,12.8h-7.2
		L64.8,57z"/>
</g>
<g id="movingParts">
	<path class="st6 phone" d="M56.1,50.4c0-0.1,0-0.1-0.1-0.2l-2.5-2.3c-0.2-0.2-0.6-0.2-0.8,0l-7,4.1c-0.2,0.1-0.2,0.2-0.2,0.4l0,0v0.2
		c0,0.1,0,0.2,0.1,0.3l2.5,2.3c0.2,0.2,0.6,0.2,0.8,0l7-4.1c0.1-0.1,0.2-0.2,0.2-0.3L56.1,50.4L56.1,50.4z"/>
	<path class="st22 phone" id="screen" d="M49,54l-2.2-2c-0.1-0.1-0.1-0.3,0.1-0.4l5.8-3.4c0.2-0.1,0.4-0.1,0.5,0l2.2,2c0.1,0.1,0.1,0.3-0.1,0.4
		L49.5,54C49.4,54.1,49.1,54.1,49,54z"/>
	<path class="st6 phone" d="M49.7,50.2c-0.6-0.4-1.4-0.6-2.1-0.4c-0.4,0.1-0.7,0.2-1.1,0.4c-1,0.5-0.5,0.4-1.6,0.9c-2.2,1-4.6,1.8-6.9,2.7
		c-0.8,0.3-1.5,0.9-1.7,1.8c-0.1,0.4-0.1,0.8,0.2,1.1c0.2,0.1,0.4,0.2,0.6,0.2c0.6,0.1,1.1,0.1,1.7,0.1c0.4,0,0.7,0,1.1-0.1
		c0.3-0.1,0.2-0.4,0.5-0.3c2.3-0.9,4.2-2.6,6.4-3.6c-0.4-0.3-0.8-0.6-1.2-0.7c0.1-0.3,2.3-1.4,2.3-1.4c0.3,0,0.6,0.1,0.9,0.2
		c0.3,0.1,0.7,0,0.9-0.2c0.1-0.1,0.1-0.1,0.1-0.2C50,50.4,49.8,50.3,49.7,50.2z"/>
	<path id="face" class="st6" d="M33.3,29.5c0,0.6-0.1,1.2-0.1,1.7c-0.1,0.8-0.1,1.7,0.2,2.4c0.1,0.3,0.2,0.5,0.3,0.8c0.4,1,0.9,2.1,1.9,2.6
		c0.4,0.2,0.9,0.2,1.4,0.3c0.9,0.1,1.8,0.1,2.7,0.1c0.6,0,1.3,0.1,1.9,0.1c0.2,0,0.7-0.1,0.9-0.2c0.3-0.2,0.4-0.4,0.5-0.6
		c0.1-0.5,0.3-0.4,0.4-0.5c0.1-0.1,0.5,0,0.4-0.6c0.5-0.2,0.4-0.5,0.3-0.6c0-0.1-0.1-0.2-0.2-0.3c0-0.1,0-0.2,0.3-0.3
		c0.2,0,0.4-0.2,0.4-0.4c0.1-0.3-0.1-0.7-0.2-1c-0.3-0.5-0.7-0.9-0.7-1.4c0-0.3,0.1-0.5,0.2-0.8c0.6-1.7-0.5-4.3-1.8-5.6
		c-1.3-1.3-3.4-1.7-5.1-1.1c-0.7,0.2-1.2,0.6-1.6,1.1C34.4,26.4,33.4,27.9,33.3,29.5z"/>
	<path id="arm" class="st6" d="M43,58.8c-0.7-1.1-1-1.7-1.7-2.8c-0.4-0.6-1-1.2-1.2-1.9c-0.2-0.7-0.6-1.3-0.8-1.9c-0.6-1.4-1-2.9-1.2-4.4
		c-0.3-2.3-1.8-4.7-1.6-7c0-0.4,0.1-0.8,0.3-1.1c0.4-0.5,1.2-0.8,1.9-0.8c0.8,0,1.5,0.3,1.9,1c0.9,1.2,1.5,1.5,1.6,2.8
		c0.2,3,1.3,6.3,1.9,9.6c0.2,0.9,0.2,2.1,0.5,3c0.3,0.9,0.5,1.9,0.3,2.8c-0.1,0.3-0.2,0.7-0.5,0.9C43.8,59.3,43.5,59.4,43,58.8z"/>
	<path id="arm2" class="st6" d="M47.5,41c-0.3,0.6-0.1,1.9-0.4,2.8c-0.3,0.9-0.9,1.7-1.8,4.4c-0.7,1.9-1.1,3.3-1.3,4.1c-0.5,2-0.8,3.7-1.1,5.7
		c0,0.3-0.1,0.7,0.2,0.9c0.1,0.1,0.5,0.4,0.7,0.5c0.2,0,0.5,0,0.7,0c0.2,0,0.4,0,0.6-0.1c0.2-0.1,0.3-0.3,0.4-0.4
		c0.1-0.3,0.2-0.5,0.3-0.8c1.9-3.9,3.3-8,3.9-12.3c0.1-0.9,0.3-1.8,0.6-2.6c0.1-0.4,0.2-0.8,0.3-1.2c0.1-0.4,0.2-0.9-0.1-1.2
		c-0.2-0.2-0.5-0.3-0.8-0.3c-0.6-0.1-1.2,0.1-1.7,0.3C47.8,40.7,47.6,40.8,47.5,41z"/>
	<path id="hair" class="st6" d="M37.2,24.1c-0.6-0.4-1.2-0.8-1.8-0.9c-0.6-0.1-1.4,0-1.8,0.5c-0.2,0.2-0.3,0.4-0.5,0.6c-0.1,0.1-0.3,0.1-0.5,0.2
		c-0.7,0.2-1.2,1.1-0.9,1.9c0.1,0.2,0.2,0.3,0.2,0.5c0,0.1,0,0.3,0,0.4c-0.2,1.1,0.6,2.2,1.6,2.4c1.1,0.2,2.1,0.1,3-0.5
		c0.6-0.4,0.9-1,1.1-1.6c0.2-0.6,0.2-1.3,0.2-2C37.6,24.9,37.6,24.3,37.2,24.1z"/>
	<path id="hand" d="M50.4,43.1c0.5,0,1.1-0.1,1.6-0.2c0.7-0.2,1.4-0.5,1.6-1.2c0.1-0.5-0.1-1-0.4-1.4s-0.6-0.8-0.7-1.2
		c-0.1-0.3-0.1-0.7-0.4-0.9C51.8,38,51.5,38,51.2,38c-0.6,0.1-1.2,0.2-1.8,0.5c-0.5,0.2-1,0.4-1.5,0.8c-0.4,0.4-0.6,1.2-0.5,1.7
		c0.1,0.4,0.3,0.7,0.5,0.9c0.4,0.5,1.1,0.7,1.8,0.9C50,42.8,50.2,43,50.4,43.1z"/>
	<polygon id="bottle" class="st6" points="52.4,41.1 49.5,42.1 45.9,34.6 50.6,33 	"/>
</g>
</svg>
