<?xml version="1.0" encoding="utf-8"?>
<!-- Generator: Adobe Illustrator 27.0.1, SVG Export Plug-In . SVG Version: 6.00 Build 0)  -->
<svg version="1.1" id="Layer_1" xmlns="http://www.w3.org/2000/svg" xmlns:xlink="http://www.w3.org/1999/xlink" x="0px" y="0px"
	 viewBox="0 0 252 60" style="enable-background:new 0 0 252 60;" xml:space="preserve">
<style type="text/css">
	.st0{fill:none;}
	.st1{fill:none;stroke:#231F20;stroke-width:4.8;}
	.st2{fill:#231F20;}
	.st3{fill:#03E538;stroke:#231F20;}
	.st4{fill:#A8FF00;stroke:#231F20;}
	.st5{fill:#FFFB00;stroke:#231F20;}
	.st6{fill:#FF9100;stroke:#231F20;}
	.st7{fill:#FF3939;stroke:#231F20;}
	.st8{enable-background:new    ;}
	.st9{fill:url(#SVGID_1_);stroke:#231F20;}
	.st10{fill:url(#SVGID_00000114066676594086751210000003915261151600477324_);stroke:#000000;}
	.st11{fill:none;stroke:#000000;stroke-miterlimit:10;}
</style>
<pattern  y="60" width="72" height="72" patternUnits="userSpaceOnUse" id="_x36__lpi_40_x25_" viewBox="72.2 -72 72 72" style="overflow:visible;">
	<g>
		<rect x="72.2" y="-72" class="st0" width="72" height="72"/>
		<g>
			<line class="st1" x1="144" y1="-6" x2="216.5" y2="-6"/>
			<line class="st1" x1="144" y1="-30" x2="216.5" y2="-30"/>
			<line class="st1" x1="144" y1="-54" x2="216.5" y2="-54"/>
			<line class="st1" x1="144" y1="-18" x2="216.5" y2="-18"/>
			<line class="st1" x1="144" y1="-42" x2="216.5" y2="-42"/>
			<line class="st1" x1="144" y1="-66" x2="216.5" y2="-66"/>
		</g>
		<g>
			<line class="st1" x1="72" y1="-6" x2="144.5" y2="-6"/>
			<line class="st1" x1="72" y1="-30" x2="144.5" y2="-30"/>
			<line class="st1" x1="72" y1="-54" x2="144.5" y2="-54"/>
			<line class="st1" x1="72" y1="-18" x2="144.5" y2="-18"/>
			<line class="st1" x1="72" y1="-42" x2="144.5" y2="-42"/>
			<line class="st1" x1="72" y1="-66" x2="144.5" y2="-66"/>
		</g>
		<g>
			<line class="st1" x1="0" y1="-6" x2="72.5" y2="-6"/>
			<line class="st1" x1="0" y1="-30" x2="72.5" y2="-30"/>
			<line class="st1" x1="0" y1="-54" x2="72.5" y2="-54"/>
			<line class="st1" x1="0" y1="-18" x2="72.5" y2="-18"/>
			<line class="st1" x1="0" y1="-42" x2="72.5" y2="-42"/>
			<line class="st1" x1="0" y1="-66" x2="72.5" y2="-66"/>
		</g>
	</g>
</pattern>
<pattern  y="60" width="28.8" height="28.8" patternUnits="userSpaceOnUse" id="SVGID_0000006002327456710037665" viewBox="2.9 -31.7 28.8 28.8" style="overflow:visible;">
	<g>
		<rect x="2.9" y="-31.7" class="st0" width="28.8" height="28.8"/>
		<g>
			<rect x="2.9" y="-31.7" class="st0" width="28.8" height="28.8"/>
			<g>
				<rect x="2.9" y="-31.7" class="st0" width="28.8" height="28.8"/>
				<g>
					<rect x="2.9" y="-31.7" class="st0" width="28.8" height="28.8"/>
					<g>
						<rect x="2.9" y="-31.7" class="st0" width="28.8" height="28.8"/>
						<g>
							<rect x="2.9" y="-31.7" class="st0" width="28.8" height="28.8"/>
							<g>
								<rect x="2.9" y="-31.7" class="st0" width="28.8" height="28.8"/>
								<g>
									<path class="st2" d="M31.7,0c1.6,0,2.9-1.3,2.9-2.9s-1.3-2.9-2.9-2.9s-2.9,1.3-2.9,2.9C28.8-1.3,30.1,0,31.7,0z"/>
									<path class="st2" d="M17.3,0c1.6,0,2.9-1.3,2.9-2.9s-1.3-2.9-2.9-2.9s-2.9,1.3-2.9,2.9S15.7,0,17.3,0z"/>
									<path class="st2" d="M31.7-14.4c1.6,0,2.9-1.3,2.9-2.9s-1.3-2.9-2.9-2.9s-2.9,1.3-2.9,2.9S30.1-14.4,31.7-14.4z"/>
									<path class="st2" d="M17.3-14.4c1.6,0,2.9-1.3,2.9-2.9s-1.3-2.9-2.9-2.9s-2.9,1.3-2.9,2.9S15.7-14.4,17.3-14.4z"/>
									<path class="st2" d="M10.1-7.2c1.6,0,2.9-1.3,2.9-2.9S11.7-13,10.1-13s-2.9,1.3-2.9,2.9C7.2-8.5,8.5-7.2,10.1-7.2z"/>
									<path class="st2" d="M24.5-7.2c1.6,0,2.9-1.3,2.9-2.9S26.1-13,24.5-13s-2.9,1.3-2.9,2.9S22.9-7.2,24.5-7.2z"/>
									<path class="st2" d="M10.1-21.6c1.6,0,2.9-1.3,2.9-2.9s-1.3-2.9-2.9-2.9s-2.9,1.3-2.9,2.9C7.2-22.9,8.5-21.6,10.1-21.6z"/>
									<path class="st2" d="M24.5-21.6c1.6,0,2.9-1.3,2.9-2.9s-1.3-2.9-2.9-2.9s-2.9,1.3-2.9,2.9S22.9-21.6,24.5-21.6z"/>
								</g>
								<g>
									<path class="st2" d="M2.9,0c1.6,0,2.9-1.3,2.9-2.9S4.5-5.8,2.9-5.8S0-4.5,0-2.9C0-1.3,1.3,0,2.9,0z"/>
									<path class="st2" d="M2.9-14.4c1.6,0,2.9-1.3,2.9-2.9s-1.3-2.9-2.9-2.9S0-18.9,0-17.3S1.3-14.4,2.9-14.4z"/>
								</g>
								<g>
									<path class="st2" d="M31.7-28.8c1.6,0,2.9-1.3,2.9-2.9s-1.3-2.9-2.9-2.9s-2.9,1.3-2.9,2.9C28.8-30.1,30.1-28.8,31.7-28.8z"
										/>
									<path class="st2" d="M17.3-28.8c1.6,0,2.9-1.3,2.9-2.9s-1.3-2.9-2.9-2.9s-2.9,1.3-2.9,2.9S15.7-28.8,17.3-28.8z"/>
								</g>
								<g>
									<path class="st2" d="M2.9-28.8c1.6,0,2.9-1.3,2.9-2.9s-1.3-2.9-2.9-2.9S0-33.3,0-31.7S1.3-28.8,2.9-28.8z"/>
								</g>
							</g>
						</g>
					</g>
				</g>
			</g>
		</g>
	</g>
</pattern>
<rect x="77.3" y="15.8" class="st3" width="34.9" height="26"/>
<rect x="112.2" y="15.8" class="st4" width="34.9" height="26"/>
<rect x="147" y="15.8" class="st5" width="34.9" height="26"/>
<rect x="181.9" y="15.8" class="st6" width="34.9" height="26"/>
<rect x="216.8" y="15.8" class="st7" width="34.9" height="26"/>
<g>
	<g>
		<g class="st8">
			<path d="M2.6,6.2L2,9.2H1.1L2.6,2h1.6c1.5,0,2.2,0.6,2.2,1.8c0,1.1-0.6,1.9-1.8,2.2l1.2,3.2h-1l-1-3H2.6z M3.3,2.7
				C2.9,4.3,2.7,5.2,2.7,5.4h0.8C4.2,5.4,4.6,5.3,5,5s0.5-0.7,0.5-1.2c0-0.4-0.1-0.7-0.3-0.9C4.9,2.8,4.6,2.7,4.1,2.7H3.3z"/>
			<path d="M9.5,3.7c0.3,0,0.6,0.1,0.8,0.2c0.2,0.2,0.4,0.4,0.5,0.7h0.1l0.3-0.8h0.6l-1.1,5.4H10l0.1-1l0,0c-0.6,0.7-1.2,1-1.8,1
				C7.8,9.2,7.5,9,7.2,8.7S6.8,8,6.8,7.4c0-0.7,0.1-1.3,0.3-1.9s0.6-1,1-1.4C8.5,3.7,9,3.7,9.5,3.7z M8.6,8.5c0.3,0,0.6-0.2,0.9-0.5
				c0.3-0.3,0.6-0.7,0.8-1.2s0.3-1,0.3-1.5c0-0.3-0.1-0.6-0.3-0.8S9.9,4.4,9.6,4.4c-0.3,0-0.7,0.1-0.9,0.4S8.1,5.4,7.9,5.9
				s-0.2,1-0.2,1.5c0,0.4,0.1,0.6,0.2,0.8C8.1,8.5,8.3,8.5,8.6,8.5z"/>
			<path d="M14.5,9.2c-0.6,0-1.1-0.2-1.5-0.5s-0.5-0.8-0.5-1.5s0.1-1.3,0.4-1.8s0.6-1,1-1.3s0.9-0.5,1.4-0.5c0.4,0,0.9,0.1,1.3,0.2
				l-0.2,0.7c-0.4-0.2-0.7-0.2-1.1-0.2c-0.4,0-0.7,0.1-1,0.4c-0.3,0.2-0.5,0.6-0.7,1s-0.3,0.9-0.3,1.4c0,0.4,0.1,0.7,0.3,1
				c0.2,0.3,0.5,0.3,0.9,0.3c0.2,0,0.5,0,0.7-0.1s0.4-0.1,0.6-0.2v0.7C15.4,9.1,15,9.2,14.5,9.2z"/>
			<path d="M17.6,9.1h-0.8l1.1-5.4h0.8L17.6,9.1z M18.2,2.4c0-0.2,0.1-0.3,0.2-0.4c0.1-0.1,0.2-0.2,0.4-0.2c0.3,0,0.4,0.1,0.4,0.4
				c0,0.2-0.1,0.3-0.2,0.5s-0.2,0.2-0.4,0.2c-0.1,0-0.2,0-0.3-0.1C18.2,2.7,18.2,2.6,18.2,2.4z"/>
			<path d="M22.2,3.7c0.3,0,0.6,0.1,0.8,0.2c0.2,0.2,0.4,0.4,0.5,0.7h0.1l0.3-0.8h0.6l-1.1,5.4h-0.6l0.1-1l0,0
				c-0.6,0.7-1.2,1.1-1.8,1.1c-0.5,0-0.8-0.2-1.1-0.5S19.5,8,19.5,7.4c0-0.7,0.1-1.3,0.3-1.9s0.6-1,1-1.4
				C21.2,3.8,21.7,3.7,22.2,3.7z M21.2,8.5c0.3,0,0.6-0.2,0.9-0.5s0.6-0.7,0.8-1.2c0.2-0.5,0.3-1,0.3-1.5c0-0.3-0.1-0.6-0.3-0.8
				s-0.4-0.3-0.7-0.3c-0.3,0-0.7,0.1-0.9,0.4c-0.3,0.3-0.5,0.7-0.7,1.1s-0.2,1-0.2,1.5c0,0.4,0.1,0.6,0.2,0.8
				C20.8,8.5,21,8.5,21.2,8.5z"/>
			<path d="M25.8,9.1H25l1.6-7.6h0.8L25.8,9.1z"/>
			<path d="M35.7,9.1l-0.8-6.3l0,0c0,0.2-0.1,0.6-0.1,1c-0.1,0.4-0.1,0.7-0.2,1l-0.9,4.4h-0.8L34.4,2h1.2l0.7,5.9l0,0L39.5,2h1.3
				l-1.5,7.1h-0.8c0.4-1.9,0.7-3.4,0.9-4.4s0.4-1.7,0.5-1.9l0,0l-3.5,6.3H35.7z"/>
			<path d="M43.9,3.7c0.3,0,0.6,0.1,0.8,0.2c0.2,0.2,0.4,0.4,0.5,0.7h0.1l0.3-0.8h0.6l-1.1,5.4h-0.6l0.1-1l0,0
				c-0.6,0.7-1.2,1.1-1.8,1.1c-0.5,0-0.8-0.2-1.1-0.5S41.3,8,41.3,7.4c0-0.7,0.1-1.3,0.3-1.9s0.5-1,1-1.4S43.4,3.7,43.9,3.7z
				 M43,8.5c0.3,0,0.6-0.2,0.9-0.5c0.3-0.3,0.6-0.7,0.8-1.2s0.3-1,0.3-1.5c0-0.3-0.1-0.6-0.3-0.8S44.3,4.4,44,4.4s-0.7,0.1-0.9,0.4
				c-0.3,0.3-0.5,0.7-0.7,1.1s-0.2,1-0.2,1.5c0,0.4,0.1,0.6,0.2,0.8C42.5,8.5,42.7,8.5,43,8.5z"/>
			<path d="M45.8,11.5c-0.2,0-0.4,0-0.6-0.1v-0.7c0.2,0.1,0.4,0.1,0.6,0.1c0.4,0,0.7-0.3,0.8-1l1.3-6.1h0.8l-1.3,6.1
				c-0.1,0.6-0.3,1-0.6,1.2C46.6,11.4,46.2,11.5,45.8,11.5z M48.1,2.4c0-0.2,0.1-0.3,0.2-0.4c0.1-0.1,0.2-0.2,0.4-0.2
				c0.3,0,0.4,0.1,0.4,0.4c0,0.2-0.1,0.3-0.2,0.5c-0.1,0.1-0.2,0.2-0.4,0.2c-0.1,0-0.2,0-0.3-0.1C48.2,2.7,48.1,2.6,48.1,2.4z"/>
			<path d="M52.1,3.7c0.6,0,1.1,0.2,1.5,0.5c0.4,0.4,0.5,0.9,0.5,1.5S54,6.9,53.7,7.4s-0.6,1-1,1.3S52,9.2,51.5,9.2
				c-0.6,0-1.1-0.2-1.5-0.6s-0.5-0.9-0.5-1.5s0.1-1.2,0.4-1.7c0.2-0.5,0.6-1,1-1.3C51.2,3.9,51.6,3.7,52.1,3.7z M53.3,5.7
				c0-0.4-0.1-0.7-0.3-0.9c-0.2-0.2-0.5-0.3-0.8-0.3c-0.4,0-0.7,0.1-1,0.4c-0.3,0.2-0.5,0.6-0.7,1s-0.2,0.9-0.2,1.4
				c0,0.4,0.1,0.8,0.3,1s0.5,0.3,0.9,0.3c0.3,0,0.6-0.1,0.9-0.4s0.5-0.6,0.6-1C53.2,6.7,53.3,6.2,53.3,5.7z"/>
			<path d="M58.3,3.7c0.2,0,0.4,0,0.6,0.1l-0.2,0.7c-0.2,0-0.3-0.1-0.5-0.1c-0.3,0-0.6,0.1-0.8,0.3c-0.3,0.2-0.5,0.5-0.7,0.8
				s-0.3,0.7-0.4,1.2l-0.5,2.5H55l1-5.4h0.7l-0.1,1l0,0c0.2-0.3,0.4-0.5,0.6-0.7c0.2-0.1,0.3-0.2,0.5-0.3
				C57.9,3.7,58.1,3.7,58.3,3.7z"/>
			<path d="M59.7,9.1h-0.8L60,3.8h0.8L59.7,9.1z M60.2,2.4c0-0.2,0.1-0.3,0.2-0.4c0.1-0.1,0.2-0.2,0.4-0.2c0.3,0,0.4,0.1,0.4,0.4
				c0,0.2-0.1,0.3-0.2,0.5c-0.1,0.1-0.2,0.2-0.4,0.2c-0.1,0-0.2,0-0.3-0.1C60.3,2.7,60.2,2.6,60.2,2.4z"/>
			<path d="M63,8.6c0.2,0,0.4,0,0.7-0.1v0.6c-0.1,0-0.2,0.1-0.4,0.1s-0.3,0-0.4,0c-0.4,0-0.7-0.1-0.9-0.3S61.7,8.4,61.7,8
				c0-0.2,0-0.5,0.1-0.7l0.6-2.9h-0.8l0-0.4l0.9-0.4l0.6-1.1h0.5l-0.3,1.2h1.3l-0.1,0.6h-1.3l-0.6,2.9c-0.1,0.3-0.1,0.5-0.1,0.6
				c0,0.2,0,0.3,0.1,0.4S62.9,8.6,63,8.6z"/>
			<path d="M64.8,3.8h0.8L66,6.4c0,0.2,0.1,0.6,0.1,1s0,0.8,0,1.1l0,0c0.1-0.3,0.3-0.6,0.4-1s0.3-0.6,0.4-0.8l1.6-3h0.9L66,10
				c-0.3,0.6-0.6,0.9-0.9,1.2s-0.7,0.3-1.1,0.3c-0.2,0-0.5,0-0.7-0.1v-0.7c0.2,0.1,0.4,0.1,0.6,0.1c0.3,0,0.5-0.1,0.7-0.2
				c0.2-0.2,0.4-0.4,0.6-0.7l0.4-0.7L64.8,3.8z"/>
		</g>
	</g>
</g>
<g>
	<g class="st8">
		<path d="M96.4,34.8L96,32.9h-3.2l-0.5,1.9h-3l3.3-10h3.6l3.3,10C99.5,34.8,96.4,34.8,96.4,34.8z M95.4,30.7L95,29
			c-0.1-0.4-0.2-0.8-0.4-1.4s-0.2-1-0.3-1.2c0,0.2-0.1,0.6-0.2,1.1s-0.4,1.6-0.8,3.2H95.4z"/>
	</g>
</g>
<g>
	<g class="st8">
		<path d="M125.7,24.8h3.5c1.4,0,2.4,0.2,3,0.6c0.7,0.4,1,1,1,1.9c0,0.6-0.1,1-0.4,1.4s-0.7,0.7-1.1,0.8v0.1
			c0.6,0.2,1.1,0.4,1.3,0.8c0.3,0.4,0.4,0.9,0.4,1.5c0,0.9-0.3,1.6-1,2.1s-1.6,0.8-2.8,0.8h-3.9C125.7,34.8,125.7,24.8,125.7,24.8z
			 M128.4,28.6h0.8c0.4,0,0.7-0.1,0.9-0.2s0.3-0.4,0.3-0.7c0-0.6-0.4-0.8-1.3-0.8h-0.8v1.7H128.4z M128.4,30.6v2.1h1
			c0.8,0,1.3-0.4,1.3-1.1c0-0.3-0.1-0.6-0.3-0.8s-0.6-0.3-1-0.3L128.4,30.6L128.4,30.6z"/>
	</g>
</g>
<g>
	<g class="st8">
		<path d="M3,50.1h2.5c1,0,1.7,0.1,2.2,0.4c0.5,0.3,0.7,0.7,0.7,1.3c0,0.4-0.1,0.7-0.3,1s-0.5,0.5-0.8,0.5l0,0
			c0.4,0.1,0.8,0.3,1,0.6s0.3,0.6,0.3,1.1c0,0.6-0.2,1.2-0.7,1.5c-0.5,0.4-1.1,0.6-2,0.6H3V50.1z M4.9,52.9h0.6
			c0.3,0,0.5-0.1,0.6-0.2s0.2-0.3,0.2-0.5c0-0.4-0.3-0.6-0.9-0.6H4.9V52.9z M4.9,54.3v1.5h0.7c0.6,0,0.9-0.3,0.9-0.8
			c0-0.2-0.1-0.4-0.2-0.5s-0.4-0.2-0.7-0.2H4.9z"/>
		<path d="M11.5,57.3H9.6v-7.6h1.9V57.3z"/>
		<path d="M16.4,57.3L16,56.6l0,0c-0.3,0.3-0.5,0.5-0.8,0.7s-0.6,0.2-1,0.2c-0.5,0-0.9-0.2-1.2-0.5s-0.4-0.8-0.4-1.3
			c0-0.6,0.2-1,0.6-1.3c0.4-0.3,1-0.4,1.8-0.5h0.9v-0.1c0-0.5-0.2-0.7-0.7-0.7c-0.4,0-0.9,0.1-1.5,0.4l-0.6-1.3
			c0.6-0.3,1.5-0.5,2.4-0.5c0.7,0,1.3,0.2,1.6,0.5s0.6,0.8,0.6,1.5v3.6C17.7,57.3,16.4,57.3,16.4,57.3z M15,56
			c0.2,0,0.4-0.1,0.6-0.2s0.2-0.3,0.2-0.6v-0.4h-0.4c-0.6,0-0.9,0.3-0.9,0.7C14.5,55.8,14.7,56,15,56z"/>
		<path d="M21.6,57.4c-0.9,0-1.6-0.2-2.1-0.7s-0.7-1.2-0.7-2.1c0-0.9,0.3-1.6,0.8-2.1s1.2-0.8,2.2-0.8c0.6,0,1.2,0.1,1.8,0.4
			L23,53.5c-0.2-0.1-0.4-0.2-0.6-0.2c-0.2-0.1-0.4-0.1-0.6-0.1c-0.3,0-0.5,0.1-0.7,0.4s-0.3,0.6-0.3,1c0,0.9,0.3,1.3,1,1.3
			c0.6,0,1.1-0.2,1.6-0.5v1.5C22.9,57.2,22.3,57.4,21.6,57.4z"/>
		<path d="M26.3,54.1c0.2-0.4,0.4-0.7,0.6-0.9l1.2-1.6h2.1L28.3,54l2,3.2h-2.2l-1.2-2l-0.6,0.5v1.5h-1.9v-7.6h1.9v3
			C26.4,53.2,26.3,53.7,26.3,54.1L26.3,54.1z"/>
	</g>
</g>
<g>
	<g class="st8">
		<path d="M46.5,57.3h-2.3l-0.7-3.1c0-0.1-0.1-0.4-0.2-0.8s-0.1-0.7-0.2-1c0,0.2-0.1,0.5-0.1,0.8c-0.1,0.3-0.1,0.6-0.2,0.9
			s-0.3,1.3-0.7,3.2H40l-1.8-7.1h1.9l0.8,3.6c0.2,0.8,0.3,1.4,0.4,1.9c0-0.3,0.1-0.8,0.2-1.4s0.2-1,0.3-1.4l0.6-2.7h1.8l0.6,2.7
			c0.1,0.4,0.2,0.9,0.3,1.5s0.2,1,0.2,1.3c0-0.4,0.2-1,0.3-1.9l0.8-3.6h1.9L46.5,57.3z"/>
		<path d="M52.6,57.3v-3c0-0.7-0.2-1.1-0.7-1.1c-0.3,0-0.5,0.1-0.7,0.4c-0.1,0.3-0.2,0.7-0.2,1.3v2.4h-1.9v-7.6H51v1.1
			c0,0.5,0,1-0.1,1.7H51c0.2-0.3,0.4-0.5,0.6-0.6s0.5-0.2,0.9-0.2c0.6,0,1.1,0.2,1.4,0.5c0.3,0.4,0.5,0.9,0.5,1.5v3.6
			C54.4,57.3,52.6,57.3,52.6,57.3z"/>
		<path d="M55.8,50.3c0-0.3,0.1-0.5,0.2-0.6s0.4-0.2,0.8-0.2s0.6,0.1,0.8,0.2s0.2,0.4,0.2,0.6c0,0.6-0.3,0.8-1,0.8
			C56.1,51.2,55.8,50.9,55.8,50.3z M57.7,57.3h-1.9v-5.5h1.9V57.3z"/>
		<path d="M61.8,55.8c0.3,0,0.6-0.1,0.9-0.2V57c-0.3,0.1-0.5,0.2-0.7,0.2s-0.5,0.1-0.8,0.1c-0.6,0-1.1-0.2-1.4-0.5
			c-0.3-0.3-0.4-0.8-0.4-1.4v-2.3h-0.7v-0.8l0.8-0.6l0.5-1.2h1.2v1.1h1.4V53h-1.4v2.2C61.3,55.7,61.4,55.8,61.8,55.8z"/>
		<path d="M66.3,57.4c-0.9,0-1.6-0.2-2.1-0.7s-0.8-1.2-0.8-2.1c0-0.9,0.2-1.7,0.7-2.2s1.1-0.7,2-0.7c0.8,0,1.5,0.2,1.9,0.7
			c0.5,0.4,0.7,1.1,0.7,1.9V55h-3.4c0,0.3,0.1,0.6,0.3,0.7c0.2,0.2,0.5,0.3,0.9,0.3c0.3,0,0.6,0,0.9-0.1s0.6-0.2,0.9-0.3V57
			c-0.3,0.2-0.6,0.3-0.9,0.3S66.8,57.4,66.3,57.4z M66.2,52.9c-0.2,0-0.4,0.1-0.6,0.2c-0.2,0.1-0.2,0.4-0.3,0.7H67
			c0-0.3-0.1-0.5-0.2-0.6C66.7,53,66.5,52.9,66.2,52.9z"/>
	</g>
</g>
<g>
	<g class="st8">
		<path d="M83.4,57.4l-1.5-5.1l0,0c0.1,0.9,0.1,1.6,0.1,2v3.1h-1.7v-7.1h2.6l1.5,5.1l0,0l1.5-5.1h2.6v7.1h-1.8v-3.1
			c0-0.2,0-0.3,0-0.5s0-0.7,0.1-1.5l0,0l-1.4,5.1H83.4z"/>
		<path d="M95.1,54.6c0,0.9-0.2,1.6-0.7,2.1s-1.2,0.8-2,0.8s-1.5-0.3-2-0.8s-0.7-1.2-0.7-2.1c0-0.9,0.2-1.6,0.7-2.1s1.2-0.7,2-0.7
			c0.5,0,1,0.1,1.4,0.3s0.7,0.6,1,1C95,53.5,95.1,54,95.1,54.6z M91.5,54.6c0,0.5,0.1,0.8,0.2,1.1c0.1,0.2,0.3,0.4,0.6,0.4
			c0.3,0,0.5-0.1,0.6-0.4c0.1-0.2,0.2-0.6,0.2-1.1s-0.1-0.8-0.2-1.1s-0.3-0.4-0.6-0.4c-0.3,0-0.5,0.1-0.6,0.4
			C91.6,53.8,91.5,54.1,91.5,54.6z"/>
		<path d="M97.9,57.5c-0.4,0-0.7-0.1-1-0.3s-0.5-0.6-0.7-1S96,55.3,96,54.7c0-0.9,0.2-1.6,0.5-2.1s0.9-0.8,1.5-0.8
			c0.3,0,0.6,0.1,0.8,0.2s0.4,0.3,0.6,0.6l0,0c-0.1-0.4-0.1-0.9-0.1-1.3v-1.5h1.9v7.6h-1.4l-0.4-0.7h-0.1
			C99,57.2,98.6,57.5,97.9,57.5z M98.7,56c0.3,0,0.5-0.1,0.6-0.3s0.2-0.5,0.2-0.9v-0.2c0-0.5-0.1-0.8-0.2-1s-0.4-0.3-0.7-0.3
			c-0.3,0-0.4,0.1-0.6,0.4c-0.1,0.2-0.2,0.6-0.2,1s0.1,0.8,0.2,1S98.4,56,98.7,56z"/>
		<path d="M105.3,57.5c-0.9,0-1.6-0.2-2.1-0.7s-0.8-1.2-0.8-2.1c0-0.9,0.2-1.7,0.7-2.2s1.1-0.7,2-0.7c0.8,0,1.5,0.2,1.9,0.7
			c0.5,0.4,0.7,1.1,0.7,1.9v0.8h-3.4c0,0.3,0.1,0.6,0.3,0.7c0.2,0.2,0.5,0.3,0.9,0.3c0.3,0,0.6,0,0.9-0.1s0.6-0.2,0.9-0.3v1.4
			c-0.3,0.2-0.6,0.3-0.9,0.3S105.7,57.5,105.3,57.5z M105.2,53.1c-0.2,0-0.4,0.1-0.6,0.2c-0.2,0.1-0.2,0.4-0.3,0.7h1.6
			c0-0.3-0.1-0.5-0.2-0.6C105.6,53.1,105.4,53.1,105.2,53.1z"/>
		<path d="M110.7,57.4h-1.9v-7.6h1.9V57.4z"/>
		<path d="M119,57.4h-4.2v-7.1h4.2v1.5h-2.3v1.1h2.1v1.5h-2.1v1.3h2.3V57.4z"/>
		<path d="M123.3,57.4l-1.5-5.1l0,0c0.1,0.9,0.1,1.6,0.1,2v3.1h-1.7v-7.1h2.6l1.5,5.1l0,0l1.5-5.1h2.6v7.1h-1.8v-3.1
			c0-0.2,0-0.3,0-0.5s0-0.7,0.1-1.5l0,0l-1.4,5.1H123.3z"/>
		<path d="M133.1,51.7c-0.5,0-0.8,0.2-1.1,0.6c-0.3,0.4-0.4,0.9-0.4,1.6c0,1.4,0.5,2.1,1.6,2.1c0.3,0,0.6,0,0.9-0.1s0.6-0.2,0.9-0.3
			v1.6c-0.6,0.3-1.3,0.4-2,0.4c-1.1,0-1.9-0.3-2.5-0.9c-0.6-0.6-0.9-1.5-0.9-2.7c0-0.7,0.1-1.4,0.4-1.9c0.3-0.6,0.7-1,1.2-1.3
			s1.1-0.5,1.8-0.5c0.8,0,1.5,0.2,2.2,0.5l-0.6,1.5c-0.3-0.1-0.5-0.2-0.8-0.3S133.4,51.7,133.1,51.7z"/>
	</g>
</g>
<g>
	<g class="st8">
		<path d="M186.1,50.3v4.3c0,0.9-0.3,1.7-0.8,2.2s-1.3,0.8-2.3,0.8s-1.7-0.2-2.2-0.7s-0.8-1.2-0.8-2.1v-4.3h1.9v4.2
			c0,0.5,0.1,0.9,0.3,1.1c0.2,0.2,0.5,0.3,0.8,0.3c0.4,0,0.7-0.1,0.9-0.3s0.3-0.6,0.3-1.1v-4.2h1.9V50.3z"/>
		<path d="M190.9,57.4v-3c0-0.4-0.1-0.6-0.2-0.8c-0.1-0.2-0.3-0.3-0.5-0.3c-0.3,0-0.6,0.1-0.7,0.4c-0.1,0.3-0.2,0.7-0.2,1.3v2.4
			h-1.9v-5.5h1.4l0.2,0.7h0.1c0.2-0.3,0.4-0.5,0.7-0.6s0.6-0.2,1-0.2c0.6,0,1.1,0.2,1.4,0.5c0.3,0.4,0.5,0.9,0.5,1.5v3.6
			C192.7,57.4,190.9,57.4,190.9,57.4z"/>
		<path d="M197.8,57.4l-0.4-0.7l0,0c-0.3,0.3-0.5,0.5-0.8,0.7c-0.3,0.1-0.6,0.2-1,0.2c-0.5,0-0.9-0.2-1.2-0.5s-0.4-0.8-0.4-1.3
			c0-0.6,0.2-1,0.6-1.3c0.4-0.3,1-0.4,1.8-0.5h0.9v-0.1c0-0.5-0.2-0.7-0.7-0.7c-0.4,0-0.9,0.1-1.5,0.4l-0.6-1.3
			c0.6-0.3,1.5-0.5,2.4-0.5c0.7,0,1.3,0.2,1.6,0.5c0.4,0.4,0.6,0.8,0.6,1.5v3.6C199.1,57.4,197.8,57.4,197.8,57.4z M196.3,56.1
			c0.2,0,0.4-0.1,0.6-0.2c0.2-0.1,0.2-0.3,0.2-0.6v-0.4h-0.4c-0.6,0-0.9,0.3-0.9,0.7C195.8,56,196,56.1,196.3,56.1z"/>
		<path d="M202.9,57.5c-0.9,0-1.6-0.2-2.1-0.7s-0.7-1.2-0.7-2.1c0-0.9,0.3-1.6,0.8-2.1s1.2-0.8,2.2-0.8c0.6,0,1.2,0.1,1.8,0.4
			l-0.6,1.4c-0.2-0.1-0.4-0.2-0.6-0.2c-0.2-0.1-0.4-0.1-0.6-0.1c-0.3,0-0.5,0.1-0.7,0.4s-0.3,0.6-0.3,1c0,0.9,0.3,1.3,1,1.3
			c0.6,0,1.1-0.2,1.6-0.5V57C204.2,57.3,203.6,57.5,202.9,57.5z"/>
		<path d="M208.3,57.5c-0.9,0-1.6-0.2-2.1-0.7s-0.7-1.2-0.7-2.1c0-0.9,0.3-1.6,0.8-2.1s1.2-0.8,2.2-0.8c0.6,0,1.2,0.1,1.8,0.4
			l-0.6,1.4c-0.2-0.1-0.4-0.2-0.6-0.2c-0.2-0.1-0.4-0.1-0.6-0.1c-0.3,0-0.5,0.1-0.7,0.4s-0.3,0.6-0.3,1c0,0.9,0.3,1.3,1,1.3
			c0.6,0,1.1-0.2,1.6-0.5V57C209.6,57.3,209,57.5,208.3,57.5z"/>
		<path d="M213.8,57.5c-0.9,0-1.6-0.2-2.1-0.7s-0.8-1.2-0.8-2.1c0-0.9,0.2-1.7,0.7-2.2s1.1-0.7,2-0.7c0.8,0,1.5,0.2,1.9,0.7
			c0.5,0.4,0.7,1.1,0.7,1.9v0.8h-3.4c0,0.3,0.1,0.6,0.3,0.7c0.2,0.2,0.5,0.3,0.9,0.3c0.3,0,0.6,0,0.9-0.1c0.3-0.1,0.6-0.2,0.9-0.3
			v1.4c-0.3,0.2-0.6,0.3-0.9,0.3S214.3,57.5,213.8,57.5z M213.7,53.1c-0.2,0-0.4,0.1-0.6,0.2c-0.2,0.1-0.2,0.4-0.3,0.7h1.6
			c0-0.3-0.1-0.5-0.2-0.6C214.2,53.1,214,53.1,213.7,53.1z"/>
		<path d="M220.7,57.5c-0.3,0-0.5,0-0.8-0.1c-0.2-0.1-0.4-0.3-0.7-0.5h-0.1c0.1,0.4,0.1,0.6,0.1,0.7v2.2h-1.9v-7.9h1.6l0.3,0.7h0.1
			c0.4-0.5,0.8-0.8,1.5-0.8c0.6,0,1.1,0.3,1.4,0.8s0.5,1.2,0.5,2.1c0,0.9-0.2,1.6-0.5,2.1C221.8,57.2,221.3,57.5,220.7,57.5z
			 M220,53.3c-0.3,0-0.5,0.1-0.6,0.3s-0.2,0.5-0.2,0.9v0.2c0,0.5,0.1,0.8,0.2,1s0.3,0.3,0.6,0.3c0.2,0,0.4-0.1,0.5-0.3
			s0.2-0.6,0.2-1c0-0.5-0.1-0.8-0.2-1C220.5,53.4,220.3,53.3,220,53.3z"/>
		<path d="M226.5,56c0.3,0,0.6-0.1,0.9-0.2v1.4c-0.3,0.1-0.5,0.2-0.7,0.2s-0.5,0.1-0.8,0.1c-0.6,0-1.1-0.2-1.4-0.5
			c-0.3-0.3-0.4-0.8-0.4-1.4v-2.3h-0.7v-0.8l0.8-0.6l0.5-1.2h1.2v1.1h1.4v1.4H226v2.2C226,55.8,226.1,56,226.5,56z"/>
		<path d="M232,57.4l-0.4-0.7l0,0c-0.3,0.3-0.5,0.5-0.8,0.7s-0.6,0.2-1,0.2c-0.5,0-0.9-0.2-1.2-0.5s-0.4-0.8-0.4-1.3
			c0-0.6,0.2-1,0.6-1.3c0.4-0.3,1-0.4,1.8-0.5h0.9v-0.1c0-0.5-0.2-0.7-0.7-0.7c-0.4,0-0.9,0.1-1.5,0.4l-0.6-1.3
			c0.6-0.3,1.5-0.5,2.4-0.5c0.7,0,1.3,0.2,1.6,0.5c0.4,0.4,0.6,0.8,0.6,1.5v3.6C233.3,57.4,232,57.4,232,57.4z M230.6,56.1
			c0.2,0,0.4-0.1,0.6-0.2c0.2-0.1,0.2-0.3,0.2-0.6v-0.4H231c-0.6,0-0.9,0.3-0.9,0.7C230,56,230.2,56.1,230.6,56.1z"/>
		<path d="M238,51.8c0.6,0,1.1,0.3,1.4,0.8c0.4,0.5,0.5,1.2,0.5,2.1c0,0.9-0.2,1.6-0.5,2.1c-0.4,0.5-0.9,0.8-1.5,0.8
			c-0.2,0-0.4,0-0.5-0.1c-0.2,0-0.3-0.1-0.4-0.2c-0.1-0.1-0.3-0.2-0.4-0.4h-0.1l-0.3,0.5h-1.5v-7.6h1.9v1.7c0,0.2,0,0.6-0.1,1.1h0.1
			c0.2-0.3,0.4-0.5,0.6-0.6C237.4,51.8,237.7,51.8,238,51.8z M237.3,53.3c-0.3,0-0.5,0.1-0.6,0.3s-0.2,0.5-0.2,0.9v0.3
			c0,0.5,0.1,0.8,0.2,1c0.1,0.2,0.3,0.3,0.6,0.3c0.2,0,0.4-0.1,0.5-0.3s0.2-0.6,0.2-1C238,53.7,237.8,53.3,237.3,53.3z"/>
		<path d="M242.9,57.4H241v-7.6h1.9V57.4z"/>
		<path d="M246.9,57.5c-0.9,0-1.6-0.2-2.1-0.7s-0.8-1.2-0.8-2.1c0-0.9,0.2-1.7,0.7-2.2s1.1-0.7,2-0.7c0.8,0,1.5,0.2,1.9,0.7
			c0.5,0.4,0.7,1.1,0.7,1.9v0.8H246c0,0.3,0.1,0.6,0.3,0.7c0.2,0.2,0.5,0.3,0.9,0.3c0.3,0,0.6,0,0.9-0.1c0.3-0.1,0.6-0.2,0.9-0.3
			v1.4c-0.3,0.2-0.6,0.3-0.9,0.3S247.4,57.5,246.9,57.5z M246.8,53.1c-0.2,0-0.4,0.1-0.6,0.2c-0.2,0.1-0.2,0.4-0.3,0.7h1.6
			c0-0.3-0.1-0.5-0.2-0.6C247.3,53.1,247.1,53.1,246.8,53.1z"/>
	</g>
</g>
<g>
	<g class="st8">
		<path d="M165.3,26.9c-0.6,0-1.1,0.3-1.5,0.8s-0.5,1.3-0.5,2.2c0,1.9,0.7,2.9,2.2,2.9c0.4,0,0.9-0.1,1.3-0.2
			c0.4-0.1,0.8-0.3,1.3-0.4v2.3c-0.8,0.4-1.8,0.6-2.8,0.6c-1.5,0-2.7-0.4-3.5-1.3c-0.8-0.9-1.2-2.1-1.2-3.8c0-1,0.2-1.9,0.6-2.7
			s1-1.4,1.7-1.8s1.6-0.6,2.6-0.6c1.1,0,2.1,0.2,3.1,0.7l-0.8,2.1c-0.4-0.2-0.7-0.3-1.1-0.4S165.7,26.9,165.3,26.9z"/>
	</g>
</g>
<g>
	<g class="st8">
		<path d="M204.2,29.6c0,1.7-0.5,3-1.4,3.9s-2.2,1.4-3.9,1.4h-3.2v-10h3.5c1.6,0,2.8,0.4,3.7,1.2C203.7,26.8,204.2,28,204.2,29.6z
			 M201.4,29.7c0-0.9-0.2-1.6-0.5-2S200,27,199.2,27h-0.8v5.6h0.6c0.8,0,1.4-0.2,1.8-0.7C201.2,31.4,201.4,30.6,201.4,29.7z"/>
	</g>
</g>
<g>
	<g class="st8">
		<path d="M234.4,34.8h-2.7v-10h5.9V27h-3.2v1.9h3V31h-3V34.8z"/>
	</g>
</g>
<pattern  id="SVGID_1_" xlink:href="#SVGID_0000006002327456710037665" patternTransform="matrix(1 0 0 1 -111.4374 48712.125)">
</pattern>
<rect x="0.6" y="15.8" class="st9" width="34.9" height="26"/>
<pattern  id="SVGID_00000093872826486289862130000010056298532417684869_" xlink:href="#_x36__lpi_40_x25_" patternTransform="matrix(0.4243 -0.4243 0.4243 0.4243 -21700.334 19757.3105)">
</pattern>
<rect x="35.4" y="15.8" style="fill:url(#SVGID_00000093872826486289862130000010056298532417684869_);stroke:#000000;" width="34.9" height="26"/>
<g>
	<g>
		<g class="st8">
			<path d="M154.8,5.3h2.2l-0.8,3.5c-0.7,0.2-1.4,0.4-2,0.4c-0.9,0-1.5-0.2-2-0.7s-0.7-1.1-0.7-2s0.2-1.7,0.5-2.4s0.8-1.3,1.4-1.7
				c0.6-0.4,1.2-0.6,1.9-0.6c0.4,0,0.7,0,1.1,0.1c0.3,0.1,0.7,0.2,1,0.3L157.1,3c-0.2-0.1-0.5-0.2-0.8-0.3s-0.6-0.1-1-0.1
				c-0.5,0-1.1,0.2-1.5,0.5c-0.5,0.3-0.8,0.8-1.1,1.4c-0.2,0.6-0.4,1.3-0.4,2c0,0.6,0.2,1.1,0.5,1.5c0.3,0.4,0.8,0.5,1.4,0.5
				c0.5,0,0.9-0.1,1.3-0.2l0.5-2.2h-1.4L154.8,5.3z"/>
			<path d="M161.2,3.6c0.2,0,0.4,0,0.6,0.1l-0.2,0.7c-0.2,0-0.3-0.1-0.5-0.1c-0.3,0-0.6,0.1-0.8,0.3s-0.5,0.5-0.7,0.8
				s-0.3,0.7-0.4,1.2l-0.5,2.5h-0.8l1.1-5.4h0.7l-0.1,1l0,0c0.2-0.3,0.4-0.5,0.6-0.7c0.2-0.1,0.3-0.2,0.5-0.3
				C160.8,3.7,161,3.6,161.2,3.6z"/>
			<path d="M164.6,3.6c0.3,0,0.6,0.1,0.8,0.2c0.2,0.2,0.4,0.4,0.5,0.7h0.1l0.3-0.8h0.6l-1.1,5.4h-0.6l0.1-1l0,0
				c-0.6,0.7-1.2,1.1-1.8,1.1c-0.5,0-0.8-0.2-1.1-0.5S162,7.9,162,7.4c0-0.7,0.1-1.3,0.3-1.9s0.6-1,1-1.4
				C163.7,3.8,164.1,3.6,164.6,3.6z M163.7,8.5c0.3,0,0.6-0.2,0.9-0.5c0.3-0.3,0.6-0.7,0.8-1.2s0.3-1,0.3-1.5c0-0.3-0.1-0.6-0.3-0.8
				c-0.2-0.2-0.4-0.3-0.7-0.3s-0.7,0.1-0.9,0.4c-0.3,0.3-0.5,0.7-0.7,1.1s-0.2,1-0.2,1.5c0,0.4,0.1,0.6,0.2,0.8
				C163.2,8.4,163.4,8.5,163.7,8.5z"/>
			<path d="M170.3,3.6c0.6,0,1.1,0.3,1.4,0.9l0,0c0.1-0.5,0.1-1,0.2-1.3l0.4-1.7h0.8l-1.6,7.6h-0.7l0.1-1l0,0
				c-0.3,0.4-0.6,0.7-0.9,0.9c-0.3,0.2-0.6,0.3-0.9,0.3c-0.5,0-0.8-0.2-1.1-0.5s-0.4-0.8-0.4-1.3c0-0.7,0.1-1.3,0.4-1.9s0.6-1,1-1.3
				C169.3,3.8,169.8,3.6,170.3,3.6z M169.3,8.5c0.3,0,0.6-0.2,0.9-0.5c0.3-0.3,0.6-0.7,0.8-1.2s0.3-1,0.3-1.4s-0.1-0.6-0.3-0.8
				s-0.4-0.3-0.8-0.3c-0.3,0-0.6,0.1-0.9,0.4c-0.3,0.3-0.5,0.6-0.7,1.1s-0.3,1-0.3,1.5C168.5,8.1,168.8,8.5,169.3,8.5z"/>
			<path d="M175.3,9.2c-0.6,0-1.1-0.2-1.4-0.5s-0.5-0.8-0.5-1.5c0-0.6,0.1-1.2,0.4-1.8c0.2-0.6,0.6-1,1-1.3s0.8-0.5,1.3-0.5
				s0.9,0.1,1.1,0.3c0.3,0.2,0.4,0.5,0.4,0.9c0,0.6-0.3,1-0.8,1.4c-0.5,0.3-1.3,0.5-2.3,0.5h-0.2v0.4c0,0.4,0.1,0.8,0.3,1
				s0.5,0.4,0.9,0.4c0.2,0,0.4,0,0.6-0.1c0.2-0.1,0.5-0.2,0.8-0.3v0.7c-0.3,0.1-0.6,0.2-0.8,0.3C175.9,9.1,175.6,9.2,175.3,9.2z
				 M176,4.3c-0.3,0-0.7,0.2-0.9,0.5c-0.3,0.3-0.5,0.7-0.7,1.3h0.1c0.7,0,1.3-0.1,1.7-0.3c0.4-0.2,0.6-0.5,0.6-0.8
				c0-0.2-0.1-0.3-0.2-0.4C176.4,4.4,176.3,4.3,176,4.3z"/>
		</g>
	</g>
</g>
<polyline class="st11" points="147.5,58.1 139.8,53.7 147.5,49.2 "/>
<polyline class="st11" points="167.5,49.2 175.2,53.7 167.5,58.2 "/>
<line class="st11" x1="139.8" y1="53.7" x2="175.2" y2="53.7"/>
</svg>
