<?xml version="1.0" encoding="utf-8"?>
<!-- Generator: Adobe Illustrator 27.0.1, SVG Export Plug-In . SVG Version: 6.00 Build 0)  -->
<svg version="1.1" id="Layer_1" xmlns="http://www.w3.org/2000/svg" xmlns:xlink="http://www.w3.org/1999/xlink" x="0px" y="0px"
	 viewBox="0 0 252 60" style="enable-background:new 0 0 252 60;" xml:space="preserve">
<style type="text/css">
	.st0{fill:#03E538;stroke:#231F20;}
	.st1{fill:#A8FF00;stroke:#231F20;}
	.st2{fill:#FFFB00;stroke:#231F20;}
	.st3{fill:#FF9100;stroke:#231F20;}
	.st4{fill:#FF3939;stroke:#231F20;}
	.st5{enable-background:new    ;}
	.st6{fill:none;stroke:#000000;stroke-miterlimit:10;}
</style>
<rect x="77.3" y="15.8" class="st0" width="34.9" height="26"/>
<rect x="112.2" y="15.8" class="st1" width="34.9" height="26"/>
<rect x="147" y="15.8" class="st2" width="34.9" height="26"/>
<rect x="181.9" y="15.8" class="st3" width="34.9" height="26"/>
<rect x="216.8" y="15.8" class="st4" width="34.9" height="26"/>
<g>
	<g class="st5">
		<path d="M96.4,34.8L96,32.9h-3.2l-0.5,1.9h-3l3.3-10h3.6l3.3,10C99.5,34.8,96.4,34.8,96.4,34.8z M95.4,30.7L95,29
			c-0.1-0.4-0.2-0.8-0.4-1.4s-0.2-1-0.3-1.2c0,0.2-0.1,0.6-0.2,1.1s-0.4,1.6-0.8,3.2H95.4z"/>
	</g>
</g>
<g>
	<g class="st5">
		<path d="M125.7,24.8h3.5c1.4,0,2.4,0.2,3,0.6c0.7,0.4,1,1,1,1.9c0,0.6-0.1,1-0.4,1.4s-0.7,0.7-1.1,0.8v0.1
			c0.6,0.2,1.1,0.4,1.3,0.8c0.3,0.4,0.4,0.9,0.4,1.5c0,0.9-0.3,1.6-1,2.1s-1.6,0.8-2.8,0.8h-3.9C125.7,34.8,125.7,24.8,125.7,24.8z
			 M128.4,28.6h0.8c0.4,0,0.7-0.1,0.9-0.2s0.3-0.4,0.3-0.7c0-0.6-0.4-0.8-1.3-0.8h-0.8v1.7H128.4z M128.4,30.6v2.1h1
			c0.8,0,1.3-0.4,1.3-1.1c0-0.3-0.1-0.6-0.3-0.8s-0.6-0.3-1-0.3L128.4,30.6L128.4,30.6z"/>
	</g>
</g>
<g>
	<g class="st5">
		<path d="M83.4,57.4l-1.5-5.1l0,0c0.1,0.9,0.1,1.6,0.1,2v3.1h-1.7v-7.1h2.6l1.5,5.1l0,0l1.5-5.1h2.6v7.1h-1.8v-3.1
			c0-0.2,0-0.3,0-0.5s0-0.7,0.1-1.5l0,0l-1.4,5.1H83.4z"/>
		<path d="M95.1,54.6c0,0.9-0.2,1.6-0.7,2.1s-1.2,0.8-2,0.8s-1.5-0.3-2-0.8s-0.7-1.2-0.7-2.1c0-0.9,0.2-1.6,0.7-2.1s1.2-0.7,2-0.7
			c0.5,0,1,0.1,1.4,0.3s0.7,0.6,1,1C95,53.5,95.1,54,95.1,54.6z M91.5,54.6c0,0.5,0.1,0.8,0.2,1.1c0.1,0.2,0.3,0.4,0.6,0.4
			c0.3,0,0.5-0.1,0.6-0.4c0.1-0.2,0.2-0.6,0.2-1.1s-0.1-0.8-0.2-1.1s-0.3-0.4-0.6-0.4c-0.3,0-0.5,0.1-0.6,0.4
			C91.6,53.8,91.5,54.1,91.5,54.6z"/>
		<path d="M97.9,57.5c-0.4,0-0.7-0.1-1-0.3s-0.5-0.6-0.7-1S96,55.3,96,54.7c0-0.9,0.2-1.6,0.5-2.1s0.9-0.8,1.5-0.8
			c0.3,0,0.6,0.1,0.8,0.2s0.4,0.3,0.6,0.6l0,0c-0.1-0.4-0.1-0.9-0.1-1.3v-1.5h1.9v7.6h-1.4l-0.4-0.7h-0.1
			C99,57.2,98.6,57.5,97.9,57.5z M98.7,56c0.3,0,0.5-0.1,0.6-0.3s0.2-0.5,0.2-0.9v-0.2c0-0.5-0.1-0.8-0.2-1s-0.4-0.3-0.7-0.3
			c-0.3,0-0.4,0.1-0.6,0.4c-0.1,0.2-0.2,0.6-0.2,1s0.1,0.8,0.2,1S98.4,56,98.7,56z"/>
		<path d="M105.3,57.5c-0.9,0-1.6-0.2-2.1-0.7s-0.8-1.2-0.8-2.1c0-0.9,0.2-1.7,0.7-2.2s1.1-0.7,2-0.7c0.8,0,1.5,0.2,1.9,0.7
			c0.5,0.4,0.7,1.1,0.7,1.9v0.8h-3.4c0,0.3,0.1,0.6,0.3,0.7c0.2,0.2,0.5,0.3,0.9,0.3c0.3,0,0.6,0,0.9-0.1s0.6-0.2,0.9-0.3v1.4
			c-0.3,0.2-0.6,0.3-0.9,0.3S105.7,57.5,105.3,57.5z M105.2,53.1c-0.2,0-0.4,0.1-0.6,0.2c-0.2,0.1-0.2,0.4-0.3,0.7h1.6
			c0-0.3-0.1-0.5-0.2-0.6C105.6,53.1,105.4,53.1,105.2,53.1z"/>
		<path d="M110.7,57.4h-1.9v-7.6h1.9V57.4z"/>
		<path d="M119,57.4h-4.2v-7.1h4.2v1.5h-2.3v1.1h2.1v1.5h-2.1v1.3h2.3V57.4z"/>
		<path d="M123.3,57.4l-1.5-5.1l0,0c0.1,0.9,0.1,1.6,0.1,2v3.1h-1.7v-7.1h2.6l1.5,5.1l0,0l1.5-5.1h2.6v7.1h-1.8v-3.1
			c0-0.2,0-0.3,0-0.5s0-0.7,0.1-1.5l0,0l-1.4,5.1H123.3z"/>
		<path d="M133.1,51.7c-0.5,0-0.8,0.2-1.1,0.6c-0.3,0.4-0.4,0.9-0.4,1.6c0,1.4,0.5,2.1,1.6,2.1c0.3,0,0.6,0,0.9-0.1s0.6-0.2,0.9-0.3
			v1.6c-0.6,0.3-1.3,0.4-2,0.4c-1.1,0-1.9-0.3-2.5-0.9c-0.6-0.6-0.9-1.5-0.9-2.7c0-0.7,0.1-1.4,0.4-1.9c0.3-0.6,0.7-1,1.2-1.3
			s1.1-0.5,1.8-0.5c0.8,0,1.5,0.2,2.2,0.5l-0.6,1.5c-0.3-0.1-0.5-0.2-0.8-0.3S133.4,51.7,133.1,51.7z"/>
	</g>
</g>
<g>
	<g class="st5">
		<path d="M186.1,50.3v4.3c0,0.9-0.3,1.7-0.8,2.2s-1.3,0.8-2.3,0.8s-1.7-0.2-2.2-0.7s-0.8-1.2-0.8-2.1v-4.3h1.9v4.2
			c0,0.5,0.1,0.9,0.3,1.1c0.2,0.2,0.5,0.3,0.8,0.3c0.4,0,0.7-0.1,0.9-0.3s0.3-0.6,0.3-1.1v-4.2h1.9V50.3z"/>
		<path d="M190.9,57.4v-3c0-0.4-0.1-0.6-0.2-0.8c-0.1-0.2-0.3-0.3-0.5-0.3c-0.3,0-0.6,0.1-0.7,0.4c-0.1,0.3-0.2,0.7-0.2,1.3v2.4
			h-1.9v-5.5h1.4l0.2,0.7h0.1c0.2-0.3,0.4-0.5,0.7-0.6s0.6-0.2,1-0.2c0.6,0,1.1,0.2,1.4,0.5c0.3,0.4,0.5,0.9,0.5,1.5v3.6
			C192.7,57.4,190.9,57.4,190.9,57.4z"/>
		<path d="M197.8,57.4l-0.4-0.7l0,0c-0.3,0.3-0.5,0.5-0.8,0.7c-0.3,0.1-0.6,0.2-1,0.2c-0.5,0-0.9-0.2-1.2-0.5s-0.4-0.8-0.4-1.3
			c0-0.6,0.2-1,0.6-1.3c0.4-0.3,1-0.4,1.8-0.5h0.9v-0.1c0-0.5-0.2-0.7-0.7-0.7c-0.4,0-0.9,0.1-1.5,0.4l-0.6-1.3
			c0.6-0.3,1.5-0.5,2.4-0.5c0.7,0,1.3,0.2,1.6,0.5c0.4,0.4,0.6,0.8,0.6,1.5v3.6C199.1,57.4,197.8,57.4,197.8,57.4z M196.3,56.1
			c0.2,0,0.4-0.1,0.6-0.2c0.2-0.1,0.2-0.3,0.2-0.6v-0.4h-0.4c-0.6,0-0.9,0.3-0.9,0.7C195.8,56,196,56.1,196.3,56.1z"/>
		<path d="M202.9,57.5c-0.9,0-1.6-0.2-2.1-0.7s-0.7-1.2-0.7-2.1c0-0.9,0.3-1.6,0.8-2.1s1.2-0.8,2.2-0.8c0.6,0,1.2,0.1,1.8,0.4
			l-0.6,1.4c-0.2-0.1-0.4-0.2-0.6-0.2c-0.2-0.1-0.4-0.1-0.6-0.1c-0.3,0-0.5,0.1-0.7,0.4s-0.3,0.6-0.3,1c0,0.9,0.3,1.3,1,1.3
			c0.6,0,1.1-0.2,1.6-0.5V57C204.2,57.3,203.6,57.5,202.9,57.5z"/>
		<path d="M208.3,57.5c-0.9,0-1.6-0.2-2.1-0.7s-0.7-1.2-0.7-2.1c0-0.9,0.3-1.6,0.8-2.1s1.2-0.8,2.2-0.8c0.6,0,1.2,0.1,1.8,0.4
			l-0.6,1.4c-0.2-0.1-0.4-0.2-0.6-0.2c-0.2-0.1-0.4-0.1-0.6-0.1c-0.3,0-0.5,0.1-0.7,0.4s-0.3,0.6-0.3,1c0,0.9,0.3,1.3,1,1.3
			c0.6,0,1.1-0.2,1.6-0.5V57C209.6,57.3,209,57.5,208.3,57.5z"/>
		<path d="M213.8,57.5c-0.9,0-1.6-0.2-2.1-0.7s-0.8-1.2-0.8-2.1c0-0.9,0.2-1.7,0.7-2.2s1.1-0.7,2-0.7c0.8,0,1.5,0.2,1.9,0.7
			c0.5,0.4,0.7,1.1,0.7,1.9v0.8h-3.4c0,0.3,0.1,0.6,0.3,0.7c0.2,0.2,0.5,0.3,0.9,0.3c0.3,0,0.6,0,0.9-0.1c0.3-0.1,0.6-0.2,0.9-0.3
			v1.4c-0.3,0.2-0.6,0.3-0.9,0.3S214.3,57.5,213.8,57.5z M213.7,53.1c-0.2,0-0.4,0.1-0.6,0.2c-0.2,0.1-0.2,0.4-0.3,0.7h1.6
			c0-0.3-0.1-0.5-0.2-0.6C214.2,53.1,214,53.1,213.7,53.1z"/>
		<path d="M220.7,57.5c-0.3,0-0.5,0-0.8-0.1c-0.2-0.1-0.4-0.3-0.7-0.5h-0.1c0.1,0.4,0.1,0.6,0.1,0.7v2.2h-1.9v-7.9h1.6l0.3,0.7h0.1
			c0.4-0.5,0.8-0.8,1.5-0.8c0.6,0,1.1,0.3,1.4,0.8s0.5,1.2,0.5,2.1c0,0.9-0.2,1.6-0.5,2.1C221.8,57.2,221.3,57.5,220.7,57.5z
			 M220,53.3c-0.3,0-0.5,0.1-0.6,0.3s-0.2,0.5-0.2,0.9v0.2c0,0.5,0.1,0.8,0.2,1s0.3,0.3,0.6,0.3c0.2,0,0.4-0.1,0.5-0.3
			s0.2-0.6,0.2-1c0-0.5-0.1-0.8-0.2-1C220.5,53.4,220.3,53.3,220,53.3z"/>
		<path d="M226.5,56c0.3,0,0.6-0.1,0.9-0.2v1.4c-0.3,0.1-0.5,0.2-0.7,0.2s-0.5,0.1-0.8,0.1c-0.6,0-1.1-0.2-1.4-0.5
			c-0.3-0.3-0.4-0.8-0.4-1.4v-2.3h-0.7v-0.8l0.8-0.6l0.5-1.2h1.2v1.1h1.4v1.4H226v2.2C226,55.8,226.1,56,226.5,56z"/>
		<path d="M232,57.4l-0.4-0.7l0,0c-0.3,0.3-0.5,0.5-0.8,0.7s-0.6,0.2-1,0.2c-0.5,0-0.9-0.2-1.2-0.5s-0.4-0.8-0.4-1.3
			c0-0.6,0.2-1,0.6-1.3c0.4-0.3,1-0.4,1.8-0.5h0.9v-0.1c0-0.5-0.2-0.7-0.7-0.7c-0.4,0-0.9,0.1-1.5,0.4l-0.6-1.3
			c0.6-0.3,1.5-0.5,2.4-0.5c0.7,0,1.3,0.2,1.6,0.5c0.4,0.4,0.6,0.8,0.6,1.5v3.6C233.3,57.4,232,57.4,232,57.4z M230.6,56.1
			c0.2,0,0.4-0.1,0.6-0.2c0.2-0.1,0.2-0.3,0.2-0.6v-0.4H231c-0.6,0-0.9,0.3-0.9,0.7C230,56,230.2,56.1,230.6,56.1z"/>
		<path d="M238,51.8c0.6,0,1.1,0.3,1.4,0.8c0.4,0.5,0.5,1.2,0.5,2.1c0,0.9-0.2,1.6-0.5,2.1c-0.4,0.5-0.9,0.8-1.5,0.8
			c-0.2,0-0.4,0-0.5-0.1c-0.2,0-0.3-0.1-0.4-0.2c-0.1-0.1-0.3-0.2-0.4-0.4h-0.1l-0.3,0.5h-1.5v-7.6h1.9v1.7c0,0.2,0,0.6-0.1,1.1h0.1
			c0.2-0.3,0.4-0.5,0.6-0.6C237.4,51.8,237.7,51.8,238,51.8z M237.3,53.3c-0.3,0-0.5,0.1-0.6,0.3s-0.2,0.5-0.2,0.9v0.3
			c0,0.5,0.1,0.8,0.2,1c0.1,0.2,0.3,0.3,0.6,0.3c0.2,0,0.4-0.1,0.5-0.3s0.2-0.6,0.2-1C238,53.7,237.8,53.3,237.3,53.3z"/>
		<path d="M242.9,57.4H241v-7.6h1.9V57.4z"/>
		<path d="M246.9,57.5c-0.9,0-1.6-0.2-2.1-0.7s-0.8-1.2-0.8-2.1c0-0.9,0.2-1.7,0.7-2.2s1.1-0.7,2-0.7c0.8,0,1.5,0.2,1.9,0.7
			c0.5,0.4,0.7,1.1,0.7,1.9v0.8H246c0,0.3,0.1,0.6,0.3,0.7c0.2,0.2,0.5,0.3,0.9,0.3c0.3,0,0.6,0,0.9-0.1c0.3-0.1,0.6-0.2,0.9-0.3
			v1.4c-0.3,0.2-0.6,0.3-0.9,0.3S247.4,57.5,246.9,57.5z M246.8,53.1c-0.2,0-0.4,0.1-0.6,0.2c-0.2,0.1-0.2,0.4-0.3,0.7h1.6
			c0-0.3-0.1-0.5-0.2-0.6C247.3,53.1,247.1,53.1,246.8,53.1z"/>
	</g>
</g>
<g>
	<g class="st5">
		<path d="M165.3,26.9c-0.6,0-1.1,0.3-1.5,0.8s-0.5,1.3-0.5,2.2c0,1.9,0.7,2.9,2.2,2.9c0.4,0,0.9-0.1,1.3-0.2
			c0.4-0.1,0.8-0.3,1.3-0.4v2.3c-0.8,0.4-1.8,0.6-2.8,0.6c-1.5,0-2.7-0.4-3.5-1.3c-0.8-0.9-1.2-2.1-1.2-3.8c0-1,0.2-1.9,0.6-2.7
			s1-1.4,1.7-1.8s1.6-0.6,2.6-0.6c1.1,0,2.1,0.2,3.1,0.7l-0.8,2.1c-0.4-0.2-0.7-0.3-1.1-0.4S165.7,26.9,165.3,26.9z"/>
	</g>
</g>
<g>
	<g class="st5">
		<path d="M204.2,29.6c0,1.7-0.5,3-1.4,3.9s-2.2,1.4-3.9,1.4h-3.2v-10h3.5c1.6,0,2.8,0.4,3.7,1.2C203.7,26.8,204.2,28,204.2,29.6z
			 M201.4,29.7c0-0.9-0.2-1.6-0.5-2S200,27,199.2,27h-0.8v5.6h0.6c0.8,0,1.4-0.2,1.8-0.7C201.2,31.4,201.4,30.6,201.4,29.7z"/>
	</g>
</g>
<g>
	<g class="st5">
		<path d="M234.4,34.8h-2.7v-10h5.9V27h-3.2v1.9h3V31h-3V34.8z"/>
	</g>
</g>
<g>
	<g>
		<g class="st5">
			<path d="M154.8,5.3h2.2l-0.8,3.5c-0.7,0.2-1.4,0.4-2,0.4c-0.9,0-1.5-0.2-2-0.7s-0.7-1.1-0.7-2s0.2-1.7,0.5-2.4s0.8-1.3,1.4-1.7
				c0.6-0.4,1.2-0.6,1.9-0.6c0.4,0,0.7,0,1.1,0.1c0.3,0.1,0.7,0.2,1,0.3L157.1,3c-0.2-0.1-0.5-0.2-0.8-0.3s-0.6-0.1-1-0.1
				c-0.5,0-1.1,0.2-1.5,0.5c-0.5,0.3-0.8,0.8-1.1,1.4c-0.2,0.6-0.4,1.3-0.4,2c0,0.6,0.2,1.1,0.5,1.5c0.3,0.4,0.8,0.5,1.4,0.5
				c0.5,0,0.9-0.1,1.3-0.2l0.5-2.2h-1.4L154.8,5.3z"/>
			<path d="M161.2,3.6c0.2,0,0.4,0,0.6,0.1l-0.2,0.7c-0.2,0-0.3-0.1-0.5-0.1c-0.3,0-0.6,0.1-0.8,0.3s-0.5,0.5-0.7,0.8
				s-0.3,0.7-0.4,1.2l-0.5,2.5h-0.8l1.1-5.4h0.7l-0.1,1l0,0c0.2-0.3,0.4-0.5,0.6-0.7c0.2-0.1,0.3-0.2,0.5-0.3
				C160.8,3.7,161,3.6,161.2,3.6z"/>
			<path d="M164.6,3.6c0.3,0,0.6,0.1,0.8,0.2c0.2,0.2,0.4,0.4,0.5,0.7h0.1l0.3-0.8h0.6l-1.1,5.4h-0.6l0.1-1l0,0
				c-0.6,0.7-1.2,1.1-1.8,1.1c-0.5,0-0.8-0.2-1.1-0.5S162,7.9,162,7.4c0-0.7,0.1-1.3,0.3-1.9s0.6-1,1-1.4
				C163.7,3.8,164.1,3.6,164.6,3.6z M163.7,8.5c0.3,0,0.6-0.2,0.9-0.5c0.3-0.3,0.6-0.7,0.8-1.2s0.3-1,0.3-1.5c0-0.3-0.1-0.6-0.3-0.8
				c-0.2-0.2-0.4-0.3-0.7-0.3s-0.7,0.1-0.9,0.4c-0.3,0.3-0.5,0.7-0.7,1.1s-0.2,1-0.2,1.5c0,0.4,0.1,0.6,0.2,0.8
				C163.2,8.4,163.4,8.5,163.7,8.5z"/>
			<path d="M170.3,3.6c0.6,0,1.1,0.3,1.4,0.9l0,0c0.1-0.5,0.1-1,0.2-1.3l0.4-1.7h0.8l-1.6,7.6h-0.7l0.1-1l0,0
				c-0.3,0.4-0.6,0.7-0.9,0.9c-0.3,0.2-0.6,0.3-0.9,0.3c-0.5,0-0.8-0.2-1.1-0.5s-0.4-0.8-0.4-1.3c0-0.7,0.1-1.3,0.4-1.9s0.6-1,1-1.3
				C169.3,3.8,169.8,3.6,170.3,3.6z M169.3,8.5c0.3,0,0.6-0.2,0.9-0.5c0.3-0.3,0.6-0.7,0.8-1.2s0.3-1,0.3-1.4s-0.1-0.6-0.3-0.8
				s-0.4-0.3-0.8-0.3c-0.3,0-0.6,0.1-0.9,0.4c-0.3,0.3-0.5,0.6-0.7,1.1s-0.3,1-0.3,1.5C168.5,8.1,168.8,8.5,169.3,8.5z"/>
			<path d="M175.3,9.2c-0.6,0-1.1-0.2-1.4-0.5s-0.5-0.8-0.5-1.5c0-0.6,0.1-1.2,0.4-1.8c0.2-0.6,0.6-1,1-1.3s0.8-0.5,1.3-0.5
				s0.9,0.1,1.1,0.3c0.3,0.2,0.4,0.5,0.4,0.9c0,0.6-0.3,1-0.8,1.4c-0.5,0.3-1.3,0.5-2.3,0.5h-0.2v0.4c0,0.4,0.1,0.8,0.3,1
				s0.5,0.4,0.9,0.4c0.2,0,0.4,0,0.6-0.1c0.2-0.1,0.5-0.2,0.8-0.3v0.7c-0.3,0.1-0.6,0.2-0.8,0.3C175.9,9.1,175.6,9.2,175.3,9.2z
				 M176,4.3c-0.3,0-0.7,0.2-0.9,0.5c-0.3,0.3-0.5,0.7-0.7,1.3h0.1c0.7,0,1.3-0.1,1.7-0.3c0.4-0.2,0.6-0.5,0.6-0.8
				c0-0.2-0.1-0.3-0.2-0.4C176.4,4.4,176.3,4.3,176,4.3z"/>
		</g>
	</g>
</g>
<polyline class="st6" points="147.5,58.1 139.8,53.7 147.5,49.2 "/>
<polyline class="st6" points="167.5,49.2 175.2,53.7 167.5,58.2 "/>
<line class="st6" x1="139.8" y1="53.7" x2="175.2" y2="53.7"/>
</svg>
