<?xml version="1.0" encoding="utf-8"?>
<!-- Generator: Adobe Illustrator 27.0.0, SVG Export Plug-In . SVG Version: 6.00 Build 0)  -->
<svg version="1.1" xmlns="http://www.w3.org/2000/svg" xmlns:xlink="http://www.w3.org/1999/xlink" x="0px" y="0px"
	 viewBox="0 0 150 70" style="enable-background:new 0 0 150 70;" xml:space="preserve">
<style type="text/css">
	.st1{fill:#FFC52C;}
	.st3{fill:#000001;}
#arm1 {
	transform-origin: 40px 40px;
	animation: arm1 24s infinite;
}
#arm2 {
	transform-origin: 45px 58px;
	animation: arm2 24s infinite;
}
#hand, #bottle {
	transform-origin: 48px 41px;
	animation: hand 24s infinite;
}
#head, #hair {
	transform-origin: 36px 36px;
	animation: head 24s infinite;
}
#hair {
	transform-origin: 36px 36px;
	animation: hair 24s infinite;
}
#sideface {
	transform-origin: 36px 36px;
	animation: sideface 24s infinite;
}
@keyframes arm1 {
	0% { transform: translate(0, 0) rotate(0);}
	85% { transform: translate(0, 0) rotate(0);}
	88% {transform: translate(-1.5px, 0) rotate(-35deg);}
	98% {transform: translate(-1.5px, 0) rotate(-35deg);}
	100% { transform: translate(0, 0) rotate(0);}
}
@keyframes arm2 {
	0% { transform: translate(0, 0) rotate(0);}
	85% { transform: translate(0, 0) rotate(0);}
	88% {transform: translate(5px, -1px) rotate(-15deg);}
	98% {transform: translate(5px, -1px) rotate(-15deg);}
	100% { transform: translate(0, 0) rotate(0);}
}
@keyframes hand {
	0% { transform: translate(0, 0) rotate(0);}
	30% { transform: translate(0, 0) rotate(0);}
	40% { transform: translate(0, 0) rotate(10deg);}
	45% { transform: translate(0, 0) rotate(0);}
	50% { transform: translate(0, 0) rotate(20deg);}
	55% { transform: translate(0, 0) rotate(0);}
	58% { transform: translate(0, 0) rotate(10deg);}
	85% { transform: translate(0, 0) rotate(0);}
	88% {transform: translate(0, -2px) rotate(-42deg);}
	98% {transform: translate(0, -2px) rotate(-42deg);}
	100% { transform: translate(0, 0) rotate(0);}
}
@keyframes head {
	0% { transform: translate(0, 0) rotate(0);}
	10% { transform: translate(0, 0) rotate(0);}
	12% { transform: translate(0, 0) rotate(6deg);}
	14% { transform: translate(0, 0) rotate(0);}
	15% { transform: translate(0, 0) rotate(3deg);}
	17% { transform: translate(0, 0) rotate(0);}
	26% { transform: translate(-1px, 0) rotate(0);}
	53% { transform: translate(0, 0) rotate(0);}
	55% { transform: translate(0, 0) rotate(6deg);}
	57% { transform: translate(0, 0) rotate(0);}
	85% { transform: translate(0, 0) rotate(0);}
	88% {transform: translate(0, 1px) rotate(-14deg);}
	98% {transform: translate(0, 1px) rotate(-14deg);}
	100% { transform: translate(0, 0) rotate(0);}
}
@keyframes sideface {
	0% { transform: translate(0, 0) rotate(0);}
	10% { transform: translate(0, 0) rotate(0);}
	12% { transform: translate(0, 0) rotate(6deg);}
	14% { transform: translate(0, 0) rotate(0);}
	15% { transform: translate(0, 0) rotate(3deg);}
	17% { transform: translate(0, 0) rotate(0);}
	26% { transform: translate(-1.5px, 0) rotate(0);}
	53% { transform: translate(0, 0) rotate(0);}
	55% { transform: translate(0, 0) rotate(6deg);}
	57% { transform: translate(0, 0) rotate(0);}
	85% { transform: translate(0, 0) rotate(0);}
	88% {transform: translate(0, 1px) rotate(-14deg);}
	98% {transform: translate(0, 1px) rotate(-14deg);}
	100% { transform: translate(0, 0) rotate(0);}
}
@keyframes hair {
	0% { transform: translate(0, 0) rotate(0);}
	10% { transform: translate(0, 0) rotate(0);}
	12% { transform: translate(0, 0) rotate(6deg);}
	14% { transform: translate(0, 0) rotate(0);}
	15% { transform: translate(0, 0) rotate(3deg);}
	17% { transform: translate(0, 0) rotate(0);}
	26% { transform: translate(1px, 0) rotate(0);}
	53% { transform: translate(0, 0) rotate(0);}
	55% { transform: translate(0, 0) rotate(6deg);}
	57% { transform: translate(0, 0) rotate(0);}
	85% { transform: translate(0, 0) rotate(0);}
	88% {transform: translate(0, 1px) rotate(-14deg);}
	98% {transform: translate(0, 1px) rotate(-14deg);}
	100% { transform: translate(0, 0) rotate(0);}
}
#head2 {
	transform-origin: 97px 36px;
	animation: head2 18s infinite;
}
#hat {
	transform-origin: 97px 36px;
	animation: hat 18s infinite;
}
#arm4 {
	transform-origin: 84px 43px;
	animation: arm4 10s infinite;
}
#arm3, #bottle2 {
	transform-origin: 106px 49px;
	animation: arm3 18s infinite;
}
@keyframes head2 {
	0% { transform: translate(0, 0) rotate(0);}
	5% { transform: translate(0, 0) rotate(-5deg);}
	7% { transform: translate(0, 0) rotate(0);}
	17% { transform: translate(0, 0) rotate(5deg);}
	20% { transform: translate(0, 0) rotate(0);}
	30% { transform: translate(1px, 0) rotate(-20deg);}
	55% { transform: translate(1px, 0) rotate(-20deg);}
	60% { transform: translate(0, 0) rotate(0);}
	65% { transform: translate(0, 0) rotate(-5deg);}
	67% { transform: translate(0, 0) rotate(0);}
	77% { transform: translate(0, 0) rotate(5deg);}
	80% { transform: translate(0, 0) rotate(0);}
}
@keyframes hat {
	0% { transform: translate(0, 0) rotate(0);}
	5% { transform: translate(0, 0) rotate(-5deg);}
	7% { transform: translate(0, 0) rotate(0);}
	17% { transform: translate(0, 0) rotate(5deg);}
	20% { transform: translate(0, 0) rotate(0);}
	30% { transform: translate(4px, 0)}
	80% { transform: translate(4px, 0)}
	90% { transform: translate(0, 0) rotate(0);}
}
@keyframes arm4 {
	0% { transform: translate(0, 0) rotate(0);}
	5% { transform: translate(0, 0) rotate(-8deg);}
	7% { transform: translate(0, 0) rotate(0);}
	17% { transform: translate(0, 0) rotate(7deg);}
	20% { transform: translate(0, 0) rotate(0);}
	25% { transform: translate(0, 0) rotate(-8deg);}
	27% { transform: translate(0, 0) rotate(0);}
	37% { transform: translate(0, 0) rotate(7deg);}
	40% { transform: translate(0, 0) rotate(0);}
	60% { transform: translate(0, 0) rotate(0);}
	65% { transform: translate(0, 0) rotate(-8deg);}
	67% { transform: translate(0, 0) rotate(0);}
	77% { transform: translate(0, 0) rotate(7deg);}
	80% { transform: translate(0, 0) rotate(0);}
}
@keyframes arm3 {
	0% { transform: translate(0, 0) rotate(0);}
	5% { transform: translate(0, 0) rotate(-5deg);}
	7% { transform: translate(0, 0) rotate(0);}
	17% { transform: translate(0, 0) rotate(5deg);}
	20% { transform: translate(0, 0) rotate(0);}
	30% { transform: translate(0, -4px) rotate(-25deg)}
	55% { transform: translate(0, -4px) rotate(-25deg)}
	60% { transform: translate(0, 0) rotate(0);}
}
</style>
<g id="bg">
	<rect class="st1" width="150" height="70"/>
</g>
<g id="objects">
	<g id="clock">
		<path class="st3" d="M53.9,10c-4.4,0-8,3.6-8,8c0,4.4,3.6,8,8,8c4.4,0,8-3.6,8-8C61.9,13.6,58.3,10,53.9,10z M53.9,24
			c-3.3,0-6-2.7-6-6s2.7-6,6-6s6,2.7,6,6S57.2,24,53.9,24z"/>
		<path class="st3" d="M54,17.1l-0.8-1.6l-0.5-1.2c-0.2-0.4-0.6-0.6-1-0.9c0,0.5,0,1,0.1,1.4l0.5,1.1l0.8,1.6c0,0.1-0.1,0.1-0.1,0.2
			c-0.7,0.2-1.5,0.4-1.7,0.4c-0.5,0.1-0.9,0.5-1.4,0.8c0.5,0.1,1.1,0.3,1.6,0.1c0.2-0.1,1.1-0.2,1.7-0.4c0.2,0.2,0.4,0.3,0.6,0.3
			c0.5,0,0.9-0.4,0.9-0.9C54.8,17.5,54.5,17.1,54,17.1z"/>
	</g>
	<path class="st3" id="sofa" d="M128.9,55.5h-0.5v-34c1.1,0,2.1-0.1,3-0.1v3.3c-0.1,0.1-0.2,0.3-0.2,0.6c0,0.4,0.2,0.7,0.4,0.7s0.4-0.3,0.4-0.7
		c0-0.3-0.1-0.5-0.2-0.6v-3.3c2.7-0.2,4.5-0.6,4.5-1.1v-6.1c0-0.7-3.8-1.2-8.4-1.2s-8.4,0.5-8.4,1.2v6.1c0,0.6,3.4,1.1,7.7,1.2v34
		h-5.3c0-1.3,0-2.4,0-3c0-2.2-1.6-2.8-2.8-3.4c-2.3-1.1-3.2-1.3-3.9-1.8c-1.8-1.1-1.7-2.5-2.6-4.4c-0.4-0.7-0.7-1.6-1.4-1.8
		c-0.3-0.1-0.7-0.1-1-0.1c-0.7,0-1.4,0-2.1,0c-0.5-0.7-1-1.3-1.5-1.8c-0.2-0.2-0.5-0.4-0.7-0.5c-0.3-0.2-1.2-0.4-1.5-0.5
		c-1.1-0.3-2.3-0.6-3.5-1.1c-0.1-0.3-0.1-0.6,0-0.9c0.2-0.8-0.7-1.7-1.5-2c-0.8-0.3-1.7-0.3-2.5-0.2c-0.3,0-0.6,0-0.8,0.2
		c-0.3,0.1-0.4,0.4-0.6,0.6c-0.1,0.2-0.3,0.3-0.3,0.5c-0.2,0.3-0.2,0.8-0.2,1.1c0,0,0.1,0.1,0,0.3c0,0.1-0.1,0.4-0.1,0.4
		c-0.1,0-0.2,0.3-0.3,0.3c-0.1,0.1-2.3,0.3-3.6,0.6c-0.7,0.2-1.4,0.1-2,0.6c-0.5,0.4-1,0.9-1.4,1.4c-0.4,0.5-0.8,1.1-1.3,1.7
		c-1.6,0-3.4,0-5.6,0.1c-0.5,0-1.3,0.4-1.5,2.2c-0.2,4.3-0.3,8-0.4,11.7h-7.2c0.5-0.7,1-1.4,1.5-2.2c0.7-1,1.5-2.1,1.7-3.3
		c0.1-0.5,0.1-1,0-1.4s0.1-0.8-0.3-0.9c-0.3-0.1-0.6,0-0.9,0.1c-1,0.3-1.8,0.6-2.8,0.9c0.5-0.6,0.7-1.3,0.7-2c0-0.4-0.1-0.9-0.4-1.2
		c-0.3-0.3-0.7-0.5-1.1-0.5c-1.4-0.2-2.8,0.6-4,1.4c-1.2,0.7-2,1.9-3.3,2.2c-0.6,0.2-1.2,0.4-1.8,0.5c-0.4-0.2-0.8-0.3-1.3-0.2
		c-0.4,0-0.9,0.2-1.3,0.2c-0.5,0-1-0.2-1.6-0.1c-0.3,0-0.6,0.1-0.9,0.1c-0.8,0-1.4-0.5-2.2-0.7c-1.3-0.4-2.7-0.6-4-0.7
		c-0.7-0.1-1.5-0.1-2.2,0.1c-0.5,0.1-1,0.3-1.4,0.5c-0.8,0.3-1.6,0.3-2.4,0.6c-0.7,0.2-1.3,0.6-1.9,0.8c-1.2,0.5-2.5,0.7-3.8,0.9
		c0.1-0.9,0.2-1.9,0.3-2.8c0.1-1.1,1.1-2,1.7-2.9c0.7-1,0.9-2.3,1-3.5c0-0.5,0.1-1.1-0.2-1.4c-0.7-1-2-0.9-2.3-1.5
		c0.2-0.6,0.7-0.7,1.3-0.9c1.4-0.4,0.5-2.1,0.1-2.9c-0.4-0.8-1.2-1.4-2.1-1.7c-0.9-0.3-1.3-0.4-2.2-0.1c-0.3,0.1-0.9,0.4-1.1,0.6
		c-0.2,0.3-0.5,0.6-0.5,1.2c0,0.2,0,0.5-0.3,0.8c-0.3,0.3-0.5,0.5-1.1,0.6c-1.2,0.1-3,1.3-3.8,2c-0.6,0.5-1.1,1.1-1.5,1.8
		c-0.6,0.9-1.3,1.8-1.9,2.6c-0.8,1.1-1.7,2.3-2.2,3.6c-0.1,0.2-0.2,0.5-0.3,0.7c-0.9-0.6-1.8-1.1-2.8-1.4c-0.2-0.1-0.5-0.1-0.7-0.3
		c-0.3-0.2-0.5-0.5-0.7-0.8c-0.7-0.9-1.7-1.8-2.9-2.1c0.2-0.3,0.2-0.4,0.2-0.8c0-0.3,0.5-0.4,0.3-1c0.4-0.6-0.4-0.7-0.1-1
		c0.1-0.1,0.2-0.2,0.3-0.2c0.1-0.1,0.4-0.3,0.4-0.6c0-0.1-0.1-0.4-0.2-0.5c-0.2-0.2-0.4-0.2-0.6-0.4c-0.1-0.1-0.2-0.2-0.2-0.3
		c0-0.1,0-0.2,0-0.3c0-0.5-0.1-1.1-0.4-1.6c0.5-1.3-0.4-2.9-1.6-3.6c-1.3-0.7-2.8-0.8-4.2-0.8c-0.7,0-1.5,0-2.2,0.2
		c-0.9,0.2-1.7,0.7-2.5,1.2c-0.3,0.2-0.5,0.4-0.7,0.6c0-0.1,0-0.1-0.1-0.2c0-0.1-0.1-0.3-0.2-0.4c-0.1-0.1-0.3-0.2-0.5-0.2
		C1.9,32,1.3,31.9,0,32l0,38l44.2,0L44,67c0,0,1.1,0.8,1.4,2c0.1,0.4,0.2,0.7,0.4,1l8.6,0c-0.6-2.1-1.9-4.4-1.9-6.5l0,0c0,0,0,0,0,0
		c0,0,0-0.1,0-0.1c0-0.2-0.1-0.5-0.2-0.7c-0.1-0.4-0.2-0.8-0.4-1.2c1.1-0.3,2.1-0.6,3.2-0.9c2.1-0.6,4.2-1.2,6.2-1.8
		c1.1-0.3,2.3-0.6,3.4-1v4.9V70h74.1v-7.3L128.9,55.5z"/>
</g>
<g id="girl">
	<path class="st3" id="sideface" d="M33.3,29.5c0,0.6-0.1,1.2-0.1,1.7c-0.1,0.8-0.1,1.7,0.2,2.4c0.1,0.3,0.2,0.5,0.3,0.8c0.4,1,0.9,2.1,1.9,2.6
		c0.4,0.2,0.9,0.2,1.4,0.3c0.9,0.1,1.8,0.1,2.7,0.1c0.6,0,1.3,0.1,1.9,0.1c0.2,0,0.7-0.1,0.9-0.2c0.3-0.2,0.4-0.4,0.5-0.6
		c0.1-0.5,0.3-0.4,0.4-0.5c0.1-0.1,0.5,0,0.4-0.6c0.5-0.2,0.4-0.5,0.3-0.6c0-0.1-0.1-0.2-0.2-0.3c0-0.1,0-0.2,0.3-0.3
		c0.2,0,0.4-0.2,0.4-0.4c0.1-0.3-0.1-0.7-0.2-1c-0.3-0.5-0.7-0.9-0.7-1.4c0-0.3,0.1-0.5,0.2-0.8c0.6-1.7-0.5-4.3-1.8-5.6
		c-1.3-1.3-3.4-1.7-5.1-1.1c-0.7,0.2-1.2,0.6-1.6,1.1C34.4,26.4,33.4,27.9,33.3,29.5z"/>
	<path class="st3" id="arm1" d="M43,58.8c-0.7-1.1-1-1.7-1.7-2.8c-0.4-0.6-1-1.2-1.2-1.9c-0.2-0.7-0.6-1.3-0.8-1.9c-0.6-1.4-1-2.9-1.2-4.4
		c-0.3-2.3-1.8-4.7-1.6-7c0-0.4,0.1-0.8,0.3-1.1c0.4-0.5,1.2-0.8,1.9-0.8c0.8,0,1.5,0.3,1.9,1c0.9,1.2,1.5,1.5,1.6,2.8
		c0.2,3,1.3,6.3,1.9,9.6c0.2,0.9,0.2,2.1,0.5,3c0.3,0.9,0.5,1.9,0.3,2.8c-0.1,0.3-0.2,0.7-0.5,0.9C43.8,59.3,43.5,59.4,43,58.8z"/>
	<path class="st3" id="arm2" d="M47.5,41c-0.3,0.6-0.1,1.9-0.4,2.8c-0.3,0.9-0.9,1.7-1.8,4.4c-0.7,1.9-1.1,3.3-1.3,4.1c-0.5,2-0.8,3.7-1.1,5.7
		c0,0.3-0.1,0.7,0.2,0.9c0.1,0.1,0.5,0.4,0.7,0.5c0.2,0,0.5,0,0.7,0c0.2,0,0.4,0,0.6-0.1c0.2-0.1,0.3-0.3,0.4-0.4
		c0.1-0.3,0.2-0.5,0.3-0.8c1.9-3.9,3.3-8,3.9-12.3c0.1-0.9,0.3-1.8,0.6-2.6c0.1-0.4,0.2-0.8,0.3-1.2c0.1-0.4,0.2-0.9-0.1-1.2
		c-0.2-0.2-0.5-0.3-0.8-0.3c-0.6-0.1-1.2,0.1-1.7,0.3C47.8,40.7,47.6,40.8,47.5,41z"/>
	<polygon class="st3" id="bottle" points="52.4,41.1 49.5,42.1 45.9,34.6 50.6,33 	"/>
	<path class="st3" id="head" d="M44,31.8c0.2-0.8,0.2-1.7,0.1-2.5c-0.2-1.3-0.7-2.5-1.5-3.4l-0.1-0.3c-0.1-0.1-0.1-0.2-0.2-0.2c-0.2-0.2-0.4-0.6-0.7-0.7
		c-0.9-0.7-2.1-1-3.4-0.9c-1.7,0-3.3,1.1-4.2,2.5c-0.9,1.4-1.2,3.2-1.1,4.9c0.1,1.5,0.4,3,1.2,4.4c0.2,0.4,0.5,0.8,0.9,1.1
		c0.7,0.5,1.6,0.7,2.5,0.8c0.5,0,1,0.1,1.5,0.1c0.4,0,0.8,0,1.3-0.1c0.4,0.1,0.8,0.1,1.2,0.1c0.2,0,0.5,0,0.7-0.2
		c0.3-0.1,0.5-0.4,0.6-0.6c0.6-0.7,1.2-1.4,1.2-2.3c0-0.6-0.2-1.1-0.2-1.7C43.9,32.5,44,32.1,44,31.8z"/>
	<path class="st3" id="hair" d="M37.2,24.1c-0.6-0.4-1.2-0.8-1.8-0.9c-0.6-0.1-1.4,0-1.8,0.5c-0.2,0.2-0.3,0.4-0.5,0.6c-0.1,0.1-0.3,0.1-0.5,0.2
		c-0.7,0.2-1.2,1.1-0.9,1.9c0.1,0.2,0.2,0.3,0.2,0.5c0,0.1,0,0.3,0,0.4c-0.2,1.1,0.6,2.2,1.6,2.4c1.1,0.2,2.1,0.1,3-0.5
		c0.6-0.4,0.9-1,1.1-1.6c0.2-0.6,0.2-1.3,0.2-2C37.6,24.9,37.6,24.3,37.2,24.1z"/>
	<path class="st3" id="hand" d="M50.4,43.1c0.5,0,1.1-0.1,1.6-0.2c0.7-0.2,1.4-0.5,1.6-1.2c0.1-0.5-0.1-1-0.4-1.4s-0.6-0.8-0.7-1.2
		c-0.1-0.3-0.1-0.7-0.4-0.9C51.8,38,51.5,38,51.2,38c-0.6,0.1-1.2,0.2-1.8,0.5c-0.5,0.2-1,0.4-1.5,0.8c-0.4,0.4-0.6,1.2-0.5,1.7
		c0.1,0.4,0.3,0.7,0.5,0.9c0.4,0.5,1.1,0.7,1.8,0.9C50,42.8,50.2,43,50.4,43.1z"/>
</g>
<g>
	<polygon class="st3" id="bottle2" points="111.2,39.3 109,41 103.7,35.7 107.3,32.9"/>
	<path class="st3" id="head2" d="M94,30.5c0,0,0,0.2,0,0.3c-0.1,0.4-0.2,0.5-0.1,0.9c0.1,0.3-0.1,0.8-0.2,1.1c0,0.1-0.1,0.3,0,0.9c0,0.6,0.1,1,0.3,1.5
		c0.1,0.3,0.4,1.1,0.8,1.2c0.9,0.3,1.8,0.8,2.7,0.9c0.9,0.1,2.1-0.1,2.8-0.7c0.4-0.3,0.4-0.6,0.8-1c0.1-0.1,0.3-0.7,0.5-0.9
		c0.2-0.2,0.2-0.4,0.3-0.7c0.2-0.5,0.2-1,0.3-1.5c0-0.1,0.2-0.2,0.2-0.3c0.1-0.6,0.1-1.2,0-1.8c-0.1-0.8-1-1.4-1.5-2.2
		c-0.2-0.3-1.1-0.6-1.4-0.8C99.1,27.1,98.8,27,98,27c-0.9,0.2-0.7,0-1.6,0.2c-0.2,0-1.4,0.4-1.6,0.6c-0.1,0.1-0.3,0.3-0.3,0.4
		c-0.1,0.2-0.1,0.4-0.2,0.7C94.3,29.4,94.3,29.9,94,30.5z"/>
	<path class="st3" id="arm3" d="M105.5,51.2c1-0.1,1.8-0.8,2.3-1.7c0.5-0.8,0.7-1.8,1-2.7c0.2-0.6,0.3-1.3,0.4-1.9c0.1-1.4-0.3-2.9,0.4-4.2
		c0.4-0.2,0.9-0.8,1.1-1.2c-0.1-0.1,0-0.2,0-0.3c0.2-0.3,0.3-0.5,0.5-0.8c0.1-0.3,0.2-0.6,0.1-0.9c-0.1-0.2-0.2-0.3-0.3-0.4
		c-0.4-0.5-0.9-0.9-1.4-1.2c-0.8,0.1-1.5,0.6-2.2,1.2c-0.1,0.1-0.2,0.2-0.2,0.3c0,0.1,0.2,1.2,0.3,1.2c-0.4,1.5-0.9,1.5-1.6,3.1
		c-0.6,1.5-1.2,2.8-1.6,4.5C103.4,49.1,103.2,50.7,105.5,51.2z"/>
	<path class="st3" id="arm4" d="M85.9,44.1c0.1-1.8-0.1-3.5,0-5.3c0-0.6,0.4-1.2,0.4-1.8c0-0.3,0.2-0.7,0.2-1c0-0.9-0.4-1.1-0.4-1.1
		c-0.1-1-0.3-1.6-0.9-2.4c-0.2-0.3-0.4-0.5-0.7-0.7c-0.3-0.1-0.7,0-0.8,0.3c-0.2,0.6,0.6,1,0.6,1.6c0,0.2,0.3,0.6,0.1,0.8
		c0,0-0.1-0.2-0.4-0.1c-0.1,0-0.5,0.2-0.5,0.2s-0.5-0.1-0.5-0.1c-0.2,0.1-0.2,0.3-0.5,0.3c-0.3,0.1-0.5,0-0.7,0.2
		c-0.2,0.2-0.4,0.4-0.4,0.7c0,0.3,0.1,0.9,0.2,1.2c0.1,0.6,0.3,0.9,0.6,1.4c0.1,0.2,0.5,0.6,0.5,0.6s0,0.5,0,0.8
		c0,1-0.3,2.2-0.4,3.3c-0.1,1.1,0.1,2,0,3.1C83.7,45.8,84.7,44.9,85.9,44.1z"/>
	<path class="st3" id="hat" d="M94.4,28.8c-0.9,0-2.7,0.1-3.3,0.4c-0.8,0.4,2.9,1.3,2.9,1.3c0.3,0,0.5,0,0.8,0c0.3,0,0.6,0,0.8-0.1
		c0.1-0.1,0.1-0.1,0.2-0.2c0.1-0.1,0.1-0.2,0.1-0.4c0-0.3-0.2-0.6-0.5-0.8C95.2,28.9,94.8,28.8,94.4,28.8z"/>
</g>
</svg>
