<?xml version="1.0" encoding="utf-8"?>
<svg version="1.1" xmlns="http://www.w3.org/2000/svg" xmlns:xlink="http://www.w3.org/1999/xlink" x="0px" y="0px"
	 viewBox="0 0 50 50" style="enable-background:new 0 0 50 50;" xml:space="preserve">
<style type="text/css">
	.st1{fill:#FFC52C;}
	.st3{fill:#000000;}
	#arm1, #lens1 {
		trasform-origin: 33px 36px;
		animation: arm1 10s infinite;
	}
	#arm2, #lens2 {
		trasform-origin: 33px 36px;
		animation: arm2 10s infinite;
	}
	@keyframes arm1 {
		0% { transform: translate(0, 0) rotate(0);}
		10% { transform: translate(-3px, -1px) rotate(-2deg);}
		40% { transform: translate(-3px, -1px) rotate(-2deg);}
		50% { transform: translate(0, 0) rotate(0);}
	}
	@keyframes arm2 {
		0% { transform: translate(0, 0) rotate(0);}
		10% { transform: translate(-2px, -1px) rotate(-2deg);}
		40% { transform: translate(-2px, -1px) rotate(-2deg);}
		50% { transform: translate(0, 0) rotate(0);}
	}
	#head {
		trasform-origin: 26px 30px;
		animation: head 10s infinite;
	}
	@keyframes head {
		0% { transform: translate(2px, -2px) rotate(4deg);}
		10% { transform: translate(0, 0) rotate(0);}
		40% { transform: translate(0, 0) rotate(0);}
		50% { transform: translate(2px, -2px) rotate(4deg);}
		100% { transform: translate(2px, -2px) rotate(4deg);}
	}
</style>
<g id="bg">
	<rect class="st1" width="50" height="50"/>
</g>
<g id="objects">
	<path class="st3" id="table" d="M50,39H32.3c-0.1-0.6-0.3-1.1-0.3-1.5c-0.2-1.7,1.1-2.9,0.4-4c-0.7-1.1-1.2-1.3-1.6-1.8c-0.6-0.7-0.7-1.3-1.4-1.5
		c-0.4-0.1-0.7-0.1-0.9-0.1c-1.2,0-2.3-0.2-3.4-0.2c-0.4,0-0.7,0-1.1,0.1c-0.3,0.1-0.6,0.1-0.9,0.2c-0.6,0.2-1.3,0.4-1.9,0.2
		c-0.3-0.1-0.6-0.2-1-0.2c-1.4,0.4-1.7,1-2.4,2.6c-0.6,1.3-0.8,2.5-0.8,2.5c-0.5,1.7-1.1,2.1-0.8,3.6H0l0,0v11l0,0h50l0,0V39L50,39z
		"/>
	<path class="st3" id="arm1" d="M34.7,28.6l2.7-0.7c0,0,0.6-0.8,0.4-1.7c-0.2-0.9-0.7-1.1-0.7-1.1l-5.8,1c0,0-0.4,0.4-0.5,0.9L30,26.6L28.9,27
		c0,0-0.4,0.8-0.3,1.3s0.7,0.9,0.7,0.9l0.7,0l0.8-0.6c0,0,0.6,0.7,1.1,0.7l0.3-0.1c0,1.1-0.6,6.3-0.7,6.9c-0.1,0.7-0.4,0.9-0.4,0.9
		s0.8,1.4,2.3,1.1c1-0.1,1.4-0.7,1.5-1.4c0.3-1.7,0.1-4.2-0.2-5.5c-0.4-1.3-0.3-1.8-0.1-2.5C34.6,28.7,34.6,28.7,34.7,28.6z"/>
	<path class="st3" id="head" d="M28.9,26.5c-0.2-0.5-0.2-0.6-0.5-1c-0.2-0.3-0.2-1.5-0.5-1.9c-0.1-0.1-0.2-0.3-0.3-0.4c0,0,0-0.1,0-0.1
		c0-0.2-0.2-0.4-0.4-0.4c0,0,0,0,0,0c0,0,0-0.1,0-0.1c0-0.2-0.2-0.4-0.4-0.4c0,0,0,0-0.1,0c0,0,0,0,0,0c0-0.2-0.2-0.4-0.4-0.4
		c-0.1,0-0.2,0-0.2,0.1c-0.1-0.1-0.2-0.2-0.3-0.2c0,0,0,0,0,0c0-0.2-0.2-0.3-0.3-0.3c-0.2,0-0.3,0.1-0.3,0.3c0-0.2-0.2-0.3-0.3-0.3
		c-0.1,0-0.3,0.1-0.3,0.2c0-0.2-0.2-0.3-0.3-0.3c-0.1,0-0.2,0.1-0.3,0.1c-0.1-0.1-0.2-0.1-0.3-0.1c-0.1,0-0.2,0.1-0.3,0.2
		c-0.1-0.1-0.2-0.2-0.3-0.2c-0.2,0-0.4,0.2-0.4,0.4c0,0,0,0.1,0,0.1c-0.1-0.1-0.1-0.1-0.2-0.1c-0.1,0-0.2,0-0.3,0.1
		c-0.1-0.1-0.2-0.1-0.3-0.1c-0.2,0-0.4,0.2-0.4,0.4c0,0,0,0,0,0.1c-0.1,0-0.1-0.1-0.2-0.1c-0.2,0-0.4,0.2-0.4,0.4
		c-0.1,0-0.3,0.1-0.3,0.2c0,0-0.1,0-0.2,0c-0.2,0-0.4,0.2-0.4,0.4c0,0,0,0.1,0,0.1c-0.2,0-0.3,0.2-0.3,0.4c0,0,0,0.1,0,0.1
		c-0.2,0-0.3,0.2-0.3,0.4c0,0.1,0,0.1,0.1,0.2c-0.2,0-0.3,0.2-0.3,0.4c0,0.1,0.1,0.2,0.1,0.3c-0.1,0.1-0.2,0.2-0.2,0.3
		c0,0.1,0,0.1,0.1,0.2c-0.2,0-0.3,0.2-0.3,0.4c0,0.1,0.1,0.2,0.2,0.3c0,0.1-0.1,0.1-0.1,0.2c0,0.1,0,0.2,0.1,0.2
		c0,0.1-0.1,0.1-0.1,0.2c0,0.1,0.1,0.2,0.2,0.3c0,0,0,0,0,0c0,0.1,0,0.2,0.1,0.3c0,0.1-0.1,0.1-0.1,0.2c0,0.1,0.1,0.3,0.2,0.3
		c0,0,0,0.1,0,0.2c0,0.2,0.2,0.4,0.4,0.4c0.1,0,0.1,0,0.1,0c0,0,0,0,0,0c0,0,0,0,0,0c0,0.1,0.1,0.2,0.2,0.3c0,0.1-0.2,0-0.2,0.2
		c0,0.6,0.4,0.8,0.7,1.2c0.2,0.3,0.2,0.4,0.5,0.6c0.6,0.4,2.1,0.7,3.4,0.7c0.6,0,1.7,0,2.3-0.1c0.6-0.1,1.1-0.3,1.5-0.7
		c0.1-0.2,0.3-0.3,0.4-0.5c0.1-0.4,0.2-1,0.3-1.5C29.3,27.3,29.1,27,28.9,26.5z"/>
	<path class="st3" id="rocket" d="M30.3,15.9c-0.3-0.3-0.5-0.5-0.8-0.7c-0.5-0.4-1-0.7-1.5-1c-0.7-0.4-1.4-0.7-2.1-0.9c-0.7-0.2-1.4-0.3-2.1-0.3
		c-0.4,0-0.8,0-1.2,0c0,0,0,0,0,0V0h-1v13.1c-0.3,0-0.6,0-0.9,0.1c-0.9,0.1-1.8,0.2-2.8,0.3c-0.1,0-0.1,0-0.2-0.1
		c-0.1-0.1-0.2-0.2-0.3-0.3c-0.4-0.4-0.8-0.8-1.2-1.2c0,0,0,0,0,0c-0.1-0.1-0.1-0.1-0.2-0.2c-0.1-0.1-0.2-0.1-0.3-0.1
		c-0.2,0-0.4,0.1-0.7,0.1c-0.5,0.1-1,0.1-1.5,0.2c-0.1,0-0.2,0.1-0.1,0.2c0,0,0,0,0,0.1c0.4,0.6,0.7,1.1,1.1,1.7c0,0,0,0.1,0,0.1
		c-0.1,0.1-0.1,0.2-0.2,0.3c-0.3,0.1-0.5,0.2-0.7,0.3c-0.1,0-0.2,0.1-0.2,0.2c-0.1,0.1-0.1,0.2-0.1,0.3c-0.1,0.5-0.1,1-0.1,1.6
		c0,0.3,0,0.5,0.1,0.8c0,0.1,0.1,0.2,0.2,0.3c0.2,0.1,0.5,0.2,0.7,0.3c0.1,0,0.2,0.1,0.3,0.2c0.1,0.1,0.1,0.1,0,0.2
		c-0.3,0.4-0.6,0.9-0.8,1.3c-0.1,0.1-0.2,0.3-0.3,0.4c-0.1,0.1-0.1,0.2,0.1,0.2c0,0,0,0,0,0c0.6,0.1,1.3,0.1,1.9,0.2
		c0.4,0.1,0.4,0,0.6-0.2c0.3-0.3,0.5-0.5,0.8-0.8c0.3-0.3,0.5-0.5,0.8-0.8c0-0.1,0.1-0.1,0.2-0.1c0.6,0.1,1.2,0.1,1.8,0.2
		c0.5,0,1.1,0.1,1.6,0.1c0.5,0,1.1,0.1,1.6,0.1c0.6,0,1.2,0,1.8,0c0.7-0.1,1.5-0.3,2.2-0.6c0.9-0.4,1.7-0.8,2.5-1.4
		c0.3-0.3,0.7-0.5,1-0.8C30.3,16,30.3,16,30.3,15.9z M24.6,16.8c-0.5,0.5-1.2,0.5-1.6,0.1c-0.6-0.5-0.6-1.3-0.1-1.8
		c0.4-0.4,1.2-0.5,1.7,0C25,15.5,25.1,16.3,24.6,16.8z"/>
	<path class="st3" id="arm2" d="M38.7,24.3c-0.3-0.8-0.8-1-0.8-1l-3.6,0.9c-0.3-0.2-0.5-0.3-0.8-0.2c-0.4,0.2-0.4,0.2-0.8,0.4c-0.1,0-0.1,0.1-0.2,0.2
		l-0.2,0.1c0,0-0.4,0.4-0.4,0.9L31,25.4l-1.1,0.4c0,0-0.2,0.6,0,1.1c0.1,0.5,0.7,0.8,0.7,0.8l0.6-0.2L32,27c0,0,0.1,0.1,0.2,0.3
		c-0.3,0.8-0.7,2-0.9,3.1c-0.4,1.7-0.8,3.6-0.8,3.6l2.7-0.7c0,0,0.3-0.8,0.5-3c0.1-1,0.2-2,0.3-2.7l0.3,0l4.1-1.4
		C38.5,26,39,25.1,38.7,24.3z"/>
	<ellipse class="st1" id="lens1" cx="36.6" cy="26.7" rx="0.7" ry="1"/>
	<ellipse class="st1" id="lens2" cx="37.8" cy="24.8" rx="0.7" ry="1"/>
</g>
</svg>
