<?xml version="1.0" encoding="utf-8"?>
<svg version="1.1" xmlns="http://www.w3.org/2000/svg" xmlns:xlink="http://www.w3.org/1999/xlink" x="0px" y="0px"
	 viewBox="0 0 70 100" style="enable-background:new 0 0 70 100;" xml:space="preserve">
<style type="text/css">
	.st0{fill:#FFA92C;}
	.st3{fill:#000000;}
	#screen {
		animation: tv 7s infinite;
	}
	@keyframes tv {
		0% {fill:#FFFB96;}
		30% {fill:#FFFB96;}
		31% {fill:#FFC52C;}
		60% {fill:#FFC52C;}
		61% {fill:#FFFB96;}
		64% {fill:#FFFB96;}
		65% {fill:#FFFB00;}
		98% {fill:#FFFB00;}
		99% {fill:#FFFB96;}
		100% {fill:#FFFB96;}
	}
	#hands {
		transform-origin: 25px 68px;
		animation: hands 8s infinite;
	}
	@keyframes hands {
		0% { transform: translate(0, 0) rotate(0);}
		10% { transform: translate(0, 0) rotate(0);}
		13% {transform: translate(1px, -0.5px) rotate(-5deg);}
		25% {transform: translate(1px, -0.5px) rotate(-5deg);}
		30% { transform: translate(0, 0) rotate(0);}
		43% {transform: translate(-0.5px, 0) rotate(-1deg);}
		55% {transform: translate(-0.5px, 0) rotate(-1deg);}
		65% {transform: translate(0, 0) rotate(4deg);}
		80% { transform: translate(0, 0) rotate(4deg);}
		90% { transform: translate(0, 0) rotate(0);}
	}
	#head {
		transform-origin: 54px 46px;
		animation: head 6s infinite;
	}
	@keyframes head {
		0% { transform: rotate(0);}
		20% { transform: rotate(8deg);}
		40% { transform: rotate(0);}
		60% { transform: rotate(-5deg);}
		80% { transform: rotate(0);}
	}
	#leg {
		transform-origin: 34px 78px;
		animation: leg 16s infinite;
	}
	#leg2 {
		transform: translate(3px, 0);
	}
	@keyframes leg {
		15% { transform: translate(0, 0) rotate(0);}
		20% { transform: translate(-1px, 2px) rotate(-10deg);}
		65% { transform: translate(-1px, 2px) rotate(-10deg);}
		70% { transform: translate(0, 0) rotate(0);}		
	}
</style>
<g id="bg">
	<rect class="st0" width="70" height="100"/>
</g>
<g id="objects">
	<path class="st3" id="tvframe" d="M23.7,49.5V27.9c0-0.2-0.1-0.3-0.3-0.4L4.1,22.8c-0.1,0-0.2,0-0.3,0l-1.3,0.7c-0.1,0.1-0.2,0.2-0.2,0.3v26L0,50v14.1
		l30-9.5c0.2-0.1,0.3-0.2,0.3-0.4v-4.3c0-0.2-0.2-0.4-0.4-0.4H23.7z"/>
	<path class="st0" id="screen" d="M21.3,50.7L6.8,52.4c-0.2,0-0.4-0.2-0.4-0.4V27.3c0-0.2,0.2-0.4,0.5-0.4l14.5,2.7c0.2,0,0.3,0.2,0.3,0.4v20.3
		C21.7,50.5,21.5,50.7,21.3,50.7z"/>
	<path class="st3" id="body" d="M73.2,48.9c-0.1-0.7-0.1-1.5-0.4-2.2c-0.3-0.7-1.7-2.3-2.1-2.4c-1.3-0.5-2.8-0.7-4.2-0.6c-0.7,0-1.4,0.2-1.9,0.6
		c-0.5,0.4-0.7,1.1-0.8,1.7c-0.2,0.9-0.4,1.7-0.5,2.6c-0.2-0.3-0.6-0.6-0.8-1c-0.8-1.4-1.8-2.3-1.8-2.4c-0.3-1.1-1.8-1.4-2.9-1.5
		c-0.9-0.1-1.7-0.2-2.6,0c-0.8,0.2-1.6,0.8-1.9,1.6c-0.2,0.5-0.2,1-0.4,1.5c-0.1,0.2-0.2,0.4-0.3,0.6c-0.1,0.3-0.1,0.8,0.1,1.1
		c-0.2,0.6-0.5,1.5-0.5,2.2c0,0.2,0,0.3-0.1,0.4c-0.5,0.6-0.7,1.4-0.9,2.1c0,0.2-0.1,0.3-0.2,0.5c-0.2,0.3-0.4,0.7-0.4,1.1
		c0,0.3,0,0.6-0.1,0.8c-0.4,0.7,0.4,1.5,0.1,2.3c-0.1,0.3,0.2,1-0.1,1.2c-0.6,0.3,0.5,0.5,0.3,1.2s-0.2,1.9-0.4,2.6
		c-0.3,1.3,0.6,1.9,0.1,3.2c-0.2,0.6,0.2,1.2,0,1.9c-0.1,0.4,0,1,0.2,1.7c0.2,0.5-0.4,1.2-0.3,1.7c0.3,0.7,0.2,1,0.1,1.4
		c-0.3,2-8.9,1.9-9.3,3.8c-0.2,0.9,1.6,2.1,1.6,3c0,0.9-0.1,1.9,0.2,2.7c0.2,0.5,0.2,1,0.8,1.1c-0.1,0,0.3,0,0.3,0.1
		c0.4,0,1.3,0.8,1.7,0.8c2.6,0.3,5,0.5,7.3,0.6v6.6c0,0.2,0,4,0.1,6.4L41.2,100h12.4c0,0,0,0,0,0h3.2c0,0,0,0,0,0h12.6l-12.5-2.3
		c0,0,0,0,0-0.1c0.1-2,0.2-4,0.3-6c0.1-2.3,0.2-4.5,0.3-6.8c2.9,0,5.8-0.1,9.1-0.4c0.6,0,1.3-0.4,1.4-1l3.5-15.2
		c0.4-1.9,0.9-3.7,0.8-5.6c0-1.7-0.5-3.4-1.5-4.7c0.3,0.1,0.7,0.2,1,0.3c0.5,0.1,0.7-0.3,1-0.8c0.3-0.5,0.3-1.1,0.4-1.6
		C73.4,53.4,73.4,51.1,73.2,48.9z"/>
	<path class="st3" id="shelf" d="M59.4,21.9l-0.6-3h1.1c0.9,0,1.6-0.7,1.6-1.6l0.3-2c0-1-0.8-1.8-1.8-1.8h-0.2c0.1-0.2,0.2-0.3,0.2-0.5c0-0.6-0.5-1-1-1
		c-0.6,0-1,0.5-1,1c0,0.2,0.1,0.4,0.2,0.5h-0.7c0.1-0.2,0.2-0.3,0.2-0.5c0-0.6-0.5-1-1-1c-0.6,0-1,0.5-1,1c0,0.2,0.1,0.4,0.2,0.5
		h-0.1c-1,0-1.8,0.8-1.8,1.8l0.3,2c0,0.9,0.7,1.6,1.6,1.6h1l-0.6,3h-6.9l-0.6-3h1.1c0.9,0,1.6-0.7,1.6-1.6l0.3-2
		c0-1-0.8-1.8-1.8-1.8h-4.4c-1,0-1.8,0.8-1.8,1.8l0.3,2c0,0.9,0.7,1.6,1.6,1.6h1l-0.6,3h-7.8c0.2-0.2,0.3-0.5,0.3-0.8l0.9-3.7
		c0-0.8-0.4-1.4-1.1-1.8c0.1-0.2,0.1-0.5,0.1-0.7c0-1.6-1.3-2.9-2.9-2.9c-1.6,0-2.9,1.3-2.9,2.9c0,0.3,0.1,0.6,0.2,0.9
		c-0.5,0.4-0.8,0.9-0.8,1.6l0.9,3.7c0,0.3,0.1,0.6,0.3,0.8h-3.8c-0.1,0-0.3,0.1-0.3,0.3v1.3c0,0.1,0.1,0.3,0.3,0.3H70v-1.8H59.4z
		 M35.8,17.9c0.7,0,1.2,0.5,1.2,1.2s-0.5,1.2-1.2,1.2c-0.7,0-1.2-0.5-1.2-1.2S35.2,17.9,35.8,17.9z M57.6,18.9H58l0.6,3H57
		L57.6,18.9z M47.5,18.9h0.4l0.6,3h-1.6L47.5,18.9z"/>
	<path class="st3" id="head" d="M61.6,46.2c0-0.1-0.1-0.2-0.1-0.3c-0.2-0.6-0.2-1.4-0.2-2.2c0.1-0.7,0.3-1.6,0.2-2.1c-0.1-0.9-0.4-1.6-0.8-2.2
		c-0.2-0.8-0.6-1.5-1.1-2.4c-0.4-0.7-0.9-1.3-1.7-1.7c-0.4-0.2-0.9-0.3-1.3-0.3c-0.3-0.1-0.5-0.1-0.9-0.2c-3.4-0.5-4.6,1.1-5.5,1.7
		c-0.9,0.6-1.3,1.9-1.2,2.2c0,0,0.1,0.1,0.2,0.2c0,0.1-0.1,0.3-0.1,0.5c-0.1,0.5,0,1,0.2,1.2c0.1,0.1,0,0.4,0,0.4c0,0,0,0.1,0,0.1
		c0,0,0,0.3,0,0.4c-0.3,0.4-0.4,0.6-0.7,0.9c-0.4,0.4-0.5,1.4,0,1.6c0.5,0.2,0.6,0.2,0.5,0.5c-0.1,0.1-0.1,0.2-0.1,0.3
		c0,0.3,0.1,0.4,0.4,0.5c0.2,0.1,0.2,0,0.2,0.2c-0.4,0.1-0.4,0.4-0.3,0.6c0.2,0.3,0.2,0.6,0.2,1c-0.1,1,0.7,1,1.7,0.9
		c0.5-0.1,1,0.1,1.4,0.1c1.4,0.2,1.8,1.4,5.2,0.7C61.3,48.1,61.9,47.3,61.6,46.2z"/>
	<path class="st3" id="hands" d="M59.1,62.3c0.1-0.5-0.2-1-0.5-1.4c-0.4-0.5-0.8-0.9-1.3-1.2c-0.1-0.1-0.3-0.2-0.3-0.3c-0.1-0.1-0.1-0.2-0.1-0.4
		c-0.3-0.4-1-0.2-1.4-0.5c-0.2-0.1-0.3-0.4-0.5-0.5c-0.2-0.2-0.7-0.4-0.8-0.2c-0.1,0.2-0.2,0.1-0.2,0c-0.2-0.2-0.6-0.3-0.8-0.1
		c-0.1,0.1-0.2,0.1-0.4,0c-0.1-0.1-0.2-0.1-0.3-0.1c-0.2,0-0.4-0.1-0.5-0.2c-0.3-0.2-0.6-0.4-0.9-0.4c-0.3,0-0.6,0.2-0.9,0
		c-0.6-0.2-1.3-0.4-1.9-0.7c-1.3-0.6-2.6-1.3-3.9-2.1c-1-0.6-1.6-1.3-2-2.4c-0.3-0.7-0.6-1.4-1.2-1.9c-0.2-0.2-0.4-0.4-0.7-0.4
		c-0.2,0-0.4-0.1-0.5-0.4c-0.2-0.5-0.7-0.9-1.2-1.2c-0.2-0.1-0.4-0.2-0.6-0.1c-0.4,0.2-0.7,0.5-1,0.8c-0.2,0.4-0.5,0.6-0.5,0.6
		c-0.2-0.2-0.4-0.1-0.7,0c-0.4,0.2-0.7,0.5-0.9,0.8c-0.4,0.5-0.3,0.7,0.3,0.9c0,0,0,0,0,0.1c-0.1,0.1-0.2,0.1-0.3,0.2
		c-0.3,0.2-0.4,0.4-0.4,0.7c0,0.8-0.1,1.6-0.2,2.5c0,0.2-0.1,0.5,0.1,0.7c0.3,0.6,0.6,1.1,1,1.7c0.9,1.3,1.8,2.5,2.9,3.5
		c0.3,0.3,0.4,0.6,0.2,0.9c-0.1,0.3-0.2,0.6-0.3,1c0,0.2,0.5,0.2,0.5,0.5c0,0.1-0.1,0.2-0.1,0.3c-0.1,0.2,0,0.4,0.1,0.5
		c0.9,1.4,2.8,2,4.1,3.1c0.4,0.3,0.7,0.7,1.1,0.9c0.4,0.2,0.8,0.3,1.3,0.3c1.7,0.2,3.5,0.1,5.2-0.4c1-0.3,1.9-0.7,2.9-0.7
		c0.3,0,0.6,0,0.8-0.1c0.2-0.1,0.3-0.2,0.5-0.3c1.1-1,2.2-1.9,3.3-2.9C58.6,63.2,59.1,62.8,59.1,62.3z M45.8,60.8
		c-0.7,0.1-1.9,0.3-1.9,0.3s-0.2-0.3-1.6-1.5c-1.4-1.2-2.6-2.1-2.6-2.1c-0.2-0.4-0.4-0.7-0.3-1.2c0.1-0.3,0.1-0.7,0.1-1.1
		c0-0.2,0-0.2,0.2-0.1c0.4,0.3,0.9,0.4,1.4,0.5c0.3,0.1,0.5,0.3,0.8,0.5c0,0,2.8,2.7,3.8,3.3C45.7,59.4,46.5,60.7,45.8,60.8z"/>
	<path class="st3" id="leg2" d="M42.3,100l-10.9,0c0.1-0.2,0.3-0.4,0.7-0.5c0.5-0.2,1.1-0.3,1.6-0.4c0.1,0,0.2,0,0.2-0.1c0.7-0.2,1.4-0.4,1.9-0.9
		c0.2-0.1,0.3-0.3,0.2-0.6c0-0.3,0.2-0.6,0.4-0.8c0.1-0.1,0.2-0.2,0.2-0.3c0.1-0.3,0.4-0.4,0.7-0.4c0.2,0,0.3-0.1,0.3-0.3
		c-0.1-0.3,0-0.6,0.1-0.9c0-0.2,0-0.4-0.1-0.5c-0.2-0.2-0.2-0.5-0.2-0.7c0.1-0.9,0.3-1.7,0.1-2.6c0-0.3-0.1-0.7-0.4-0.9l-0.1-0.6
		c0-0.7-0.2-1.3-0.1-2c0-0.3,0.1-0.5,0.2-0.8c0.1-0.5,0-1-0.1-1.5c-0.2-1.2-0.3-2.5-0.3-3.7l7.2,1.6c-0.1,0.2-0.7,3.6-0.7,3.8
		c-0.1,1.7,0,3.5-0.1,5.2c0,0.3,0,0.6-0.1,0.8c-0.1,0.3-0.3,0.6-0.3,0.9c0,0.2,0.1,0.4,0.2,0.5c0.1,0.2,0,0.5,0,0.7
		c0,0.8,0.1,1.6,0.4,2.4c0.2,0.6,0.5,1.2,0.2,1.7C43.3,99.8,42.8,100,42.3,100z"/>
		<path class="st3" id="leg" d="M38,77.4c-1,1.6-1.9,3.2-2.8,4.8c-1,1.8-2.1,3.7-3.2,5.4c-0.8,1.3-1.6,2.6-2.5,3.8c-0.3,0.4-0.6,0.8-1,1
		c-0.4,0.2-0.6,0.5-0.8,0.9c-0.3,0.8-0.5,1.6-1.2,2.2c-0.1,0.1-0.2,0.3-0.3,0c-0.1-0.3-0.4-0.3-0.6-0.2c-0.2,0.1-0.4,0.3-0.5,0.5
		c-0.2,0.3-0.4,0.4-0.7,0.3c-0.3-0.1-0.5,0-0.7,0.2c-0.5,0.4-1,0.8-1.5,1.2c-0.1,0.1-0.3,0.2-0.5,0.1c-0.2,0-0.6-0.1-0.7,0
		c-0.2,0.2-0.6,0.1-0.7,0.5c0,0.1-0.2,0.1-0.3,0.1c-0.4,0-0.8,0.1-1.1,0.1c-0.8,0.1-1.5,0.3-2.1,0.9c-0.2,0.2-0.3,0.4-0.3,0.7l15,0
		c0,0-0.1-0.7-0.1-1.1c0-0.4,0-0.8-0.1-1.3c0-0.2,0-0.3,0.2-0.4c0.3-0.2,0.6-0.4,0.9-0.6c1.3-0.8,2.5-1.8,3.1-3.3
		c0.2-0.4,0.4-0.7,0.7-1c0.4-0.4,0.9-0.8,1.3-1.3c0.6-0.7,1.2-1.4,1.7-2.2c0.7-0.9,1.5-1.7,1.9-2.8c0-0.1,0.1-0.1,0.1-0.2
		c0.4-0.3,0.8-0.7,1.2-0.9c0.4-0.2,0.4-0.4,0.3-0.8c-0.1-0.2-0.2-0.4-0.1-0.6c0.2,0,0.5,0.1,0.7,0.1c0.2,0,0.5-0.1,0.4-0.3
		c-0.1-0.5,0.1-0.3,0.3-0.3c0.1,0,0.3,0.1,0.4,0.1c0.2,0,0.5,0,0.7-0.1c0.4-0.1,0.4-0.7,0.3-1.2c0.5-0.1,1-0.3,1.1-0.8
		c0-0.2,0-0.4,0-0.5c0-0.3,1.4-0.5,1.5-0.8c0.1-0.5-0.2-1.1-0.4-1.5c-0.3-0.5-0.2-1-0.6-1.3c-0.3-0.2-0.5-0.7-0.7-0.8
		c-0.2-0.1-0.7-0.4-0.9-0.5c-0.3-0.2-0.3-0.5-0.7-0.6c-0.5-0.2-2.8,0.3-3.2,0.2C40,75.2,38.7,76.3,38,77.4z"/>
</g>
</svg>
