<?xml version="1.0" encoding="utf-8"?>
<!-- Generator: Adobe Illustrator 27.0.0, SVG Export Plug-In . SVG Version: 6.00 Build 0)  -->
<svg version="1.1" xmlns="http://www.w3.org/2000/svg" xmlns:xlink="http://www.w3.org/1999/xlink" x="0px" y="0px"
	 viewBox="0 0 210 130" style="enable-background:new 0 0 210 130;" xml:space="preserve">
<style type="text/css">
	.st0{fill:#FFA92C;}
	.st3{fill:#000000;}
	#screen {
		animation: tv 12s infinite;
	}
	#hand1 {
		transform-origin: 130px 90px;
		animation: contoller 20s infinite;
	}
	#hand2 {
		transform-origin: 135px 85px;
		animation: cup 18s infinite;
	}
	#kidhand {
		animation: kidhand 25s infinite;
	}
	#kidhair {
		animation: kidhair 12s infinite;
	}
	#kid1 {
		animation: kidface 12s infinite;
	}
	#kid {
		transform-origin: 170px 75px;
		animation: facewidth 12s infinite;
	}
	#momhand {
		transform-origin: 185px 85px;
		animation: momhand 50s infinite;
	}
	@keyframes tv {
		0% {fill:#FFFB96;}
		30% {fill:#FFFB96;}
		31% {fill:#FFC52C;}
		60% {fill:#FFC52C;}
		61% {fill:#FFFB96;}
		64% {fill:#FFFB96;}
		65% {fill:#FFFB00;}
		98% {fill:#FFFB00;}
		99% {fill:#FFFB96;}
		100% {fill:#FFFB96;}
	}
	@keyframes contoller {
		0% { transform: translate(0, 0) rotate(0);}
		10% { transform: translate(0, 0) rotate(0);}
		13% {transform: translate(0, -3px) rotate(-25deg);}
		15% {transform: translate(0, -3px) rotate(-25deg);}
		95% {transform: translate(0, -3px) rotate(-25deg);}
		100% { transform: translate(0, 0) rotate(0);}
	}
	@keyframes cup {
		0% { transform: translate(0, 0) rotate(0);}
		65% { transform: translate(0, -3px) rotate(-25deg);}
		70% { transform: translate(0, 0) rotate(15deg);}
		75% { transform: translate(0, 0) rotate(15deg);}
		100% { transform: translate(0, 0) rotate(0);}
	}
	@keyframes kidhand {
		0% { transform: translate(-2px, 2px);}
		5% { transform: translate(-3px, 10px);}
		95% { transform: translate(-4px, 10px);}
		100% { transform: translate(-2px, 2px);}
	}
	@keyframes kidhair {
		0% { transform: translate(-4px, 0);}
		10% { transform: translate(0, 0);}
		80% { transform: translate(0, 0);}
		100% { transform: translate(-4px, 0);}
	}
	@keyframes kidface {
		0% { transform: translate(-3px, 0);}
		10% { transform: translate(0, 0);}
		80% { transform: translate(0, 0);}
		100% { transform: translate(-3px, 0);}
	}
	@keyframes facewidth {
		0% { transform: scaleX(90%) translate(-2px, 0);}
		10% { transform:  scaleX(100%);}
		80% { transform:  scaleX(100%);}
		100% { transform:  scaleX(90%) translate(-2px, 0);}
	}
	@keyframes momhand {
		0% { transform: translate(0, 0) rotate(0);}
		60% { transform: translate(0, 0) rotate(0);}
		63% { transform: translate(1px, 2px) rotate(-135deg);}
		83% { transform: translate(1px, 2px) rotate(-135deg);}
		90% { transform: translate(0, 0) rotate(0);}
		100% { transform: translate(0, 0) rotate(0);}
	}
</style>
<g id="bg">
	<rect class="st0" width="210" height="130"/>
</g>
<g id="objects">
	<path class="st3" id="tv" d="M57.9,104.4l-14.3-1.3v-2.2c3-1.2,5-2,5.3-2.1c1.8-0.8,1.8-1.2,1.8-3.4c0-1.5,0-24.3,0-26.5c0-1.7-0.8-2-2-1.9
		l-35.9,3.4c0,0-2.9,0.4-2.9,2.8s0,32.4,0,34.4c0,1.7,0.5,4.2,2.8,4.4L0,116.5V130h33.4l25.1-18.1v-6.9
		C58.5,104.7,58.3,104.4,57.9,104.4z"/>
	<path id="screen" d="M15.7,73.8V108c0,0.3,0.3,0.6,0.7,0.5l32-11.3c0.2-0.1,0.3-0.3,0.3-0.5V69.5c0-0.3-0.3-0.5-0.6-0.5l-32,4.3
		C15.9,73.3,15.7,73.6,15.7,73.8z"/>
	<g id="lights">
		<path class="st3" d="M93.8,26.8V0h-1v26.8C89,27.1,86,30.2,86,34.1c0,4,3.3,7.3,7.3,7.3s7.3-3.3,7.3-7.3
			C100.7,30.2,97.6,27.1,93.8,26.8z"/>
		<path class="st3" d="M108.5,37.8V0h-1v37.8c-3.8,0.3-6.8,3.4-6.8,7.3c0,4,3.3,7.3,7.3,7.3s7.3-3.3,7.3-7.3
			C115.3,41.2,112.3,38,108.5,37.8z"/>
		<path class="st3" d="M122.8,20.6V0h-1v20.6c-3.8,0.3-6.8,3.4-6.8,7.3c0,4,3.3,7.3,7.3,7.3s7.3-3.3,7.3-7.3
			C129.6,24,126.6,20.9,122.8,20.6z"/>
	</g>
	<path class="st3" id="sofa" d="M210,91.6c0,0-9.3-2.1-19.1-4.2c0-0.1,0-0.1,0-0.2c0-0.2,0-0.8,0-1c-0.3-2.8-1.6-3.2-1.3-4.7c0.2-1,0.3-2-0.1-2.9
		c0-0.1-0.1-0.2-0.1-0.3c0-0.1,0.1-0.1,0.1-0.2c0.3-0.4,0.1-1,0-1.6c-0.3-1.1-0.5-2.2-0.5-3.4c0-0.4,0-0.9-0.2-1.3
		c-0.1-0.3-0.3-0.6-0.5-0.9c-0.5-0.9-0.8-2-1.1-3c-0.1-0.2-0.1-0.4-0.3-0.6c-0.2-0.3-0.5-0.5-0.8-0.7c-0.3-0.3-0.4-0.7-0.7-1
		c-0.5-0.4-1.3-0.4-1.8-0.8c-0.1-0.1-0.2-0.2-0.4-0.3c-0.2-0.1-0.4-0.1-0.6-0.1c-0.5-0.1-0.9-0.1-1.4-0.2c-0.4,0-0.8-0.1-1.1,0
		c-0.3,0.1-0.6,0.3-0.9,0.4c-1,0.5-2.2,0.5-3,1.2c-0.5,0.4-0.9,1.1-1.2,1.7c-0.1,0.1-0.1,0.4-0.1,0.6c-0.3,0.5-0.3,0.8-0.5,1.4
		c-0.1,0.2,0.2,1,0,1.2c-0.2,0.4-0.3,0.5-0.4,1c-0.1,0.9-0.1,2,0.1,2.9c0.2,0.6,0,1.2,0.3,1.8c0.1,0.4,0.3,0.7,0.6,0.9
		c-1.3,0.5-2.9,1.2-4.3,1.7l-8,0.3c-0.1,0.1-0.8,0.3-1,0.4c-0.4,0.1-0.8,0.3-1.1,0.4c-6-1.4-11.7-2.2-18.6-3.2
		c-1.1-0.2-2.8-0.3-3.9-0.3c-0.2,0-0.4,0-0.6,0.1c-0.3-0.4-0.6-0.6-0.7-0.7c-0.6-1-1.2-1-1.5-2c-0.1-0.2-0.2-0.5-0.2-0.7
		c0-0.1,0.2-0.3,0.2-0.4c0.2-0.5,0.4-1,0.4-1.6c0-1-0.1-1.9-0.2-2.7c0,0-0.2-0.3-0.2-0.4c0-0.3-0.1-0.5-0.2-0.7
		c-0.4-0.6-0.6-0.7-1.3-1.4c-0.8-0.5-1-0.9-1.9-1.3c-0.3-0.2-1.6-0.5-1.9-0.4c-1.2,0.3-1.9,0.2-3,0.7c-0.1,0.1-0.3,0.2-0.4,0.3
		c-1,0.4-1.1,0.8-1.3,1.4c0,0.2,0,0.4-0.1,0.5c-0.4,0.7-0.5,1.8-0.8,2.5c-0.1,0.2-0.2,0.6-0.1,0.7c0.3,0.6,0,1-0.3,1.4
		c-0.5,0.7-0.5,0.9,0.3,1.4c0.1,0.1,0.2,0.1,0.2,0.2c0,0.7,0.5,1,0.5,1.8c0,0.4,0.3,0.7,0.7,0.8c0.6,0.2,1.2,0,1.8,0.2
		c0.3,0.1,0.4,0.5,0.3,0.8c-0.1,0.5-0.8,0.5-1,0.8c-0.8,1-1.8,1.8-2.5,2.9c-0.9,1.5-2,3-3.6,3.7c-0.8,0.4-1.4,1.2-2.2,1.6
		c-0.9,0.5-1.8,1.1-2.2,2c-0.2,0.6-0.2,1.2-0.2,1.8c0,0.4,0,0.8,0.2,1.1c0.1,0.2,0.3,0.3,0.6,0.4c0.3,0.2,0.7,0.3,1.1,0.4
		c-0.3,0.3-0.5,0.7-0.7,1c-2.8,0.1-5.3,0.2-7.3,0.3c-0.8,0.1-1.6,0.1-2.2,0.5c-0.8,0.4-1.2,1.2-1.4,2c-0.2,0-0.3,0-0.5,0
		c-3.3-0.1-6.5,0.2-9.7,1.1c-1,0.3-2,0.4-3.1,0.6c-0.4,0.1-0.9,0.1-1.2,0.5c-0.1,0.1-0.3,0.1-0.5,0.1c-2,0-3.9,0.1-5.9-0.2
		c-1.4-0.2-2.7-0.8-3.9-1.5c-0.3-0.2-0.5-0.5-0.6-0.8c-0.7-1.7-1.6-3.2-2.7-4.6c-0.5-0.7-1.1-1-2-0.9c-0.8,0.1-1.4,0.7-1.6,1.5
		c-0.2,0.6-0.2,1.3-0.2,2c0,0.4-0.1,0.6-0.6,0.7c-1.1,0.2-1.2,0.4-1,1.6c0.3,1.5,0.7,2.9,1.2,4.2c-0.6,0-1.2,0-1.9,0.1
		c-0.7,0-1.5,0-2.1,0.4c-0.6,0.3-1.1,1.1-1.1,1.8c0,1.6,0,2.9,0,4.3v11.5c0,2.7,2.1,4.9,6.1,4.9c12.4,0,30.8-0.1,43.3-0.1
		c1.8,0,2.7,0,3.8,0.4c1.1,0.3,1.8,0.6,3,1.5c2.6,1.8,4.5,3.1,6.9,4.9c0.1,0,2.8,0,2.9,0L210,130L210,91.6z"/>
	<path class="st3" id="mom" d="M163,79.4c-0.1,0.1-0.8,0.3-1,0.4c-1.9,0.6-3.7,1.5-5.2,2.8c-0.8,0.6-1.4,1.6-2,2.3c-0.3,0.4-0.6,0.7-0.9,1
		c-0.3,0.3-0.6,0.5-0.9,0.8c-0.8,0.7-1.5,1.5-2.1,2.3c-0.8,1-1.5,2.1-1.6,3.3c-0.1,1.1,0.4,2.2,0.9,3.3c0.3,0,0.5,0.2,0.8,0.2
		l37.4-2.6c1.3-1.7,3.3-2.4,2.6-5.3c-0.1-0.2-0.1-0.4-0.1-0.7c0-0.2,0-0.8,0-1c-0.3-2.8-1.6-3.2-1.3-4.7c0.2-1,0.3-2-0.1-2.9
		c0-0.1-0.1-0.2-0.1-0.3c0-0.1,0.1-0.1,0.1-0.2c0.3-0.4,0.1-1,0-1.6c-0.3-1.1-0.5-2.2-0.5-3.4c0-0.4,0-0.9-0.2-1.3
		c-0.1-0.3-0.3-0.6-0.5-0.9c-0.5-0.9-0.8-2-1.1-3c-0.1-0.2-0.1-0.4-0.3-0.6c-0.2-0.3-0.5-0.5-0.8-0.7c-0.3-0.3-0.4-0.7-0.7-1
		c-0.5-0.4-1.3-0.4-1.8-0.8c-0.1-0.1-0.2-0.2-0.4-0.3c-0.2-0.1-0.4-0.1-0.6-0.1c-0.5-0.1-0.9-0.1-1.4-0.2c-0.4,0-0.8-0.1-1.1,0
		c-0.3,0.1-0.6,0.3-0.9,0.4c-1,0.5-2.2,0.5-3,1.2c-0.5,0.4-0.9,1.1-1.2,1.7c-0.1,0.1-0.1,0.4-0.1,0.6c-0.3,0.5-0.3,0.8-0.5,1.4
		c-0.1,0.2,0.2,1,0,1.2c-0.2,0.4-0.3,0.5-0.4,1c-0.1,0.9-0.1,2,0.1,2.9c0.2,0.6,0,1.2,0.3,1.8c0.1,0.4,0.3,0.7,0.6,0.9
		c-1.3,0.5-2.9,1.2-4.3,1.7L163,79.4z"/>
	<g id="allkid">
	<path class="st3" id="kid" d="M173.6,73.9c0,0.9,0,1.3-0.1,2.2c-0.1,0.9-0.5,1.7-1,2.4c-0.4,0.5-0.9,0.8-1.5,1.1c-0.1,0.1-0.2,0.1-0.3,0.2
		c-0.1,0.1,0.3,0.4,0.1,0.4c-0.6,0.3-2.4,0.3-4.5,0.2s-2.2-0.6-3.6-1c-0.1-0.2-0.6-0.1-0.7-0.3c-0.1-0.2-0.1-0.5-0.1-0.7
		c0-0.3-0.1-0.2-0.2-0.5s0.1-0.5,0.2-0.6c0-0.1-0.1-0.1-0.1-0.4s0.3-0.4,0.3-0.6c0-0.3-0.6-0.5-0.4-0.9c0.3-0.5,0.8-0.7,0.8-1
		s-0.3-0.9-0.2-1.4c0.1-0.4,0.2-0.4,0.3-0.8c0.1-0.4,0.1-1,0.7-1.7c0.4-0.4,0.6-0.8,1-1.1c0.7-0.7,1.9-0.7,2.9-0.6
		c1,0,1.5-0.1,2.4,0.1c0.5,0.1,1.1,0.3,1.6,0.5c0.8,0.4,1.5,1.1,1.8,1.9C173.6,72.2,173.6,73,173.6,73.9z"/>
	<path class="st3" id="kidhand" d="M157.4,85c-0.5-1.1-0.2-7.1-1.1-7.9c-1-0.9-1.8-2-2.4-3.3c-0.1-0.2-0.3-0.5-0.1-0.7c0.3-0.3,0.6-0.1,0.8,0.1
		c0.6,0.6,1.4,0.7,2.3,0.6c-0.1-0.2-0.1-0.4-0.2-0.5c-0.3-0.4-0.5-0.9,0.1-1.2c0.6-0.3,0.8,0.2,1,0.6c0.3,0.5,0.7,1.1,1.1,1.6
		c0.5,0.5,0.7,0.9,0.7,1.7c-0.1,1.3,0.2,9.5,1.5,9.1L157.4,85z"/>
	<path class="st3" id="kid1" d="M166.2,70.4c1.4-0.1,2.8,0.2,4,1c0.3,0.2,0.7,0.5,0.9,0.9c0.1,0.3,0.2,0.5,0.3,0.8c0.3,1.5,0,3-0.7,4.3
		c-0.5,1-1.3,1.8-2.3,2.3c-1.4,0.7-3.1,0.4-4.5-0.2c-0.3-0.1-0.5-0.3-0.7-0.5c-0.1-0.2-0.2-0.4-0.2-0.6c-0.2-1-0.4-2.2,0.1-3.1
		c0.1-0.2,0.3-0.5,0.4-0.7c0.1-0.2,0-0.4,0-0.6c0-1.1,0.3-2.3,1.1-3.1C165.1,70.4,165.6,70.4,166.2,70.4z"/>
	<path class="st3" id="kidhair" d="M172.2,72.4c0.8,0.1,1.3-0.5,1.8-1.1c0.6-0.6,0.8-1.5,0.6-2.3c-0.1-0.3-0.2-0.5-0.4-0.6c-0.1,0-0.2,0-0.3-0.1
		c-0.1-0.1-0.2-0.3-0.2-0.4c-0.2-0.5-0.9-0.6-1.4-0.6c-0.8,0-1.8,0-2.2,0.7c-0.4,0.1-0.5,0.6-0.6,1c-0.1,0.7-0.2,1.5,0.1,2.1
		c0.2,0.5,0.7,0.8,1.2,1C171.2,72.2,171.7,72.3,172.2,72.4z"/>
	</g>
	<path class="st3" id="momhand" d="M182.1,84.5c-0.4,1.3-0.8,2.6-1.3,3.9c-1.6,4-2.5,8.1-2.2,12.4c0.1,1.8,0.4,2,2.2,2c1.7,0,3.3-1,5-0.5
		c0.3,0.1,0.5-0.2,0.6-0.4c0.2-0.3,0.3-0.8,0.3-0.8c1.2-0.9,3.6-1.2,4.9-1.7c1.4-0.6,3.3-1.4,4.7-1.5c0,0,1.5,0.4,2.6,0.4
		c1.8-0.2,3.3-1,4.7-2.3c0.2-0.2,0.4-0.4,0.5-0.6c0.3-0.4,0-0.8,0.2-1.2c0.2-0.4,0.2-0.9,0-1c-0.2-0.1-0.6,0.2-0.7,0.3
		c-0.7,0.3-1.3,0.9-2,1.2s-1.6,0.1-2.3,0c-0.4,0-0.8-0.2-0.9-0.6c0-0.3,0.2-0.5,0.4-0.7c0.4-0.4,0.8-0.7,1.2-1.1
		c0.2-0.2,0.4-0.3,0.4-0.6s0.1-0.8-0.2-0.8c-0.1,0-0.4,0.3-0.5,0.4c-0.6,0.4-1.6,1.3-2.2,1.7c0,0-1.4,1-2.7,1.6
		c-1.3,0.8-2.6,1.2-4.1,1.5c-1.6,0.2-3.2,0.5-4.8,0.4c-1.9-0.1-2.1-0.5-1.1-2.1c0.9-1.5,1.2-3.2,2.5-4.5c0.8-0.8,1.6-1.5,2.4-2.3
		c1-0.9,1.3-2.2,1.2-3.5s-0.8-2.6-1.8-3.4c-0.2-0.2-0.5-0.3-0.7-0.4c-0.3-0.1-0.6,0-0.9,0.1c-1.3,0.3-2.6,0.9-3.6,1.8
		C183.1,82.8,182.4,83.6,182.1,84.5z"/>
	<path class="st3" id="hand1" d="M118.3,92.3c-2.2-0.9-4.3-1.8-6.2-3.1c-0.7-0.5-1.5-1-2.2-1.4c-0.4-0.2-0.6-0.4-0.4-0.8c0-0.1,0.1-0.3,0.1-0.4
		c0.1-1.6,0.5-1.5-1.4-1.4c-0.7,0.1-1.4-0.1-2-0.6c-0.4-0.4-0.9-1-1.6-0.9c-0.6,0.1-0.9-0.2-1-0.8c-0.1-0.5-0.4-0.6-0.8-0.7
		c-0.7-0.1-1.3-0.3-1.9-0.4c-0.4-0.1-0.6-0.4-0.5-0.8c0.1-0.8,0.5-1.1,1.5-0.7c1.1,0.4,2.2,0.5,3.3,0.7c0.2,0,0.4,0.1,0.5-0.2
		c0.2-0.4,0.5-0.3,0.9-0.1c1.1,0.7,2.3,0.9,3.6,1.2c0.9,0.2,1,0.3,0.8,1.2c0,0.2-0.2,0.5,0.2,0.5c0.6,0,1,0.4,1.5,0.6
		c1.5,0.7,2.9,1.5,4.4,2.1c0.6,0.2,1.5,0.3,2.2,0.8c0.7,0,1.4,0.1,2,0.4c0.7,0.3,1.3,0.9,1.6,1.6c0.1,0.3,0.1,0.7,0.1,1.1
		c0,0.4,0,0.9-0.2,1.2c-0.4,0.6-1.1,0.9-1.8,1C120,92.5,119.1,92.6,118.3,92.3z"/>
	<path class="st3" id="hand2" d="M121.3,83.6c-0.2-0.3-0.4-0.7-0.5-1c-0.1-0.3-0.2-0.6-0.2-0.7c0-0.2,0,0.2-0.2,0.1c-0.5-0.1-1-0.2-1.6-0.6
		c-0.7-0.3-1.1-0.6-1.6-1c-0.4-0.3-0.5-0.6-0.2-1.1c0.6-1.2,1.2-2.3,1.7-3.5c0.3-0.6,0.6-0.7,1.2-0.5c1.3,0.5,2.3,0.8,3.2,2.1
		c0.2,0.3,0,0.5,0,0.7c0,0.2,0.2,0.2,0.2,0.3c0.4,0.6,0.7,1,0.5,1.7c-0.1,0.2-0.1,0.4-0.1,0.6c0,0.3,0,1.2,0.1,1.6
		c0.2,0.6,0.3,1.2,0.4,1.8c0.1,0.4,0.1,0.8,0.1,1.2s-0.2,0.8-0.5,1c-0.3,0.3-0.8,0.4-1.2,0.2s-0.7-0.5-0.8-0.9
		c0-0.2-0.1-0.4-0.1-0.5C121.8,84.6,121.7,84.1,121.3,83.6z"/>
</g>
</svg>
