<?xml version="1.0" encoding="utf-8"?>
<!-- Generator: Adobe Illustrator 27.0.0, SVG Export Plug-In . SVG Version: 6.00 Build 0)  -->
<svg version="1.1" xmlns="http://www.w3.org/2000/svg" xmlns:xlink="http://www.w3.org/1999/xlink" x="0px" y="0px"
	 viewBox="0 0 120 94" style="enable-background:new 0 0 120 94;" xml:space="preserve">
<style type="text/css">
	.st2{fill:#FFFB00;}
	.st3{fill:#000001;}
	#momall { transform: translateX(-50px); 
	animation: mommove 30s infinite;
	animation-timing-function: ease-in-out;}
	#screen {
		animation: tv 20s infinite;
	}
	#front {
		transform-origin: left top;
		animation: front 30s infinite;
	}
	#back {
		transform-origin: left top;
		animation: back 30s infinite;
	}
@keyframes mommove {
	0% {transform: translateX(-55px) translateY(0); opacity: 0;}
	1% {transform: translateX(-55px) translateY(0); opacity: 1;}
	3% {transform: translateX(-42px) translateY(0.5px); opacity: 1;}
	7% {transform: translateX(-30px) translateY(0); opacity: 1;}
	9% {transform: translateX(-22px) translateY(0.5px); opacity: 1;}
	13% {transform: translateX(-10px) translateY(0); opacity: 1;}
	15% {transform: translateX(-2px) translateY(0.5px); opacity: 1;}
	19% {transform: translateX(10px) translateY(0); opacity: 1;}
	21% {transform: translateX(18px) translateY(0.5px); opacity: 1;}
	25% {transform: translateX(30px) translateY(0); opacity: 1;}
	27% {transform: translateX(38px) translateY(0.5px); opacity: 1;}
	31% {transform: translateX(50px) translateY(0); opacity: 1;}
	33% {transform: translateX(58px) translateY(0.5px); opacity: 1;}
	37% {transform: translateX(70px) translateY(0); opacity: 1;}
	39% {transform: translateX(78px) translateY(0.5px); opacity: 1;}
	43% {transform: translateX(90px) translateY(0); opacity: 1;}
	45% {transform: translateX(98px) translateY(0.5px); opacity: 1;}
	49% {transform: translateX(110px); opacity: 1;}
	51% {transform: translateX(110px); opacity: 0;}
	100% {transform: translateX(-55px); opacity: 0;}
}
@keyframes front {
	0% {transform: translateX(0) translateY(0); opacity: 0;}
	1% {transform: translateX(0) translateY(0); opacity: 1;}
	3% {transform: translateX(-5px) translateY(0.5px); opacity: 1;}
	7% {transform: translateX(0) translateY(0); opacity: 1;}
	9% {transform: translateX(-5px) translateY(0.5px); opacity: 1;}
	13% {transform: translateX(0) translateY(0); opacity: 1;}
	15% {transform: translateX(-5px) translateY(0.5px); opacity: 1;}
	19% {transform: translateX(0) translateY(0); opacity: 1;}
	21% {transform: translateX(-5px) translateY(0.5px); opacity: 1;}
	25% {transform: translateX(0) translateY(0); opacity: 1;}
	27% {transform: translateX(-5px) translateY(0.5px); opacity: 1;}
	31% {transform: translateX(0) translateY(0); opacity: 1;}
	33% {transform: translateX(-5px) translateY(0.5px); opacity: 1;}
	37% {transform: translateX(0) translateY(0); opacity: 1;}
	39% {transform: translateX(-5px) translateY(0.5px); opacity: 1;}
	43% {transform: translateX(0) translateY(0); opacity: 1;}
	45% {transform: translateX(-5px) translateY(0.5px); opacity: 1;}
	49% {transform: translateX(0); opacity: 1;}
	51% {transform: translateX(-5px); opacity: 0;}
	100% {transform: translateX(0); opacity: 0;}
}
@keyframes back {
	0% {transform: translateX(0) translateY(0); opacity: 0;}
	1% {transform: translateX(0) translateY(0); opacity: 1;}
	3% {transform: translateX(2px) translateY(0.5px); opacity: 1;}
	7% {transform: translateX(0) translateY(0); opacity: 1;}
	9% {transform: translateX(2px) translateY(0.5px); opacity: 1;}
	13% {transform: translateX(0) translateY(0); opacity: 1;}
	15% {transform: translateX(2px) translateY(0.5px); opacity: 1;}
	19% {transform: translateX(0) translateY(0); opacity: 1;}
	21% {transform: translateX(2px) translateY(0.5px); opacity: 1;}
	25% {transform: translateX(0) translateY(0); opacity: 1;}
	27% {transform: translateX(2px) translateY(0.5px); opacity: 1;}
	31% {transform: translateX(0) translateY(0); opacity: 1;}
	33% {transform: translateX(2px) translateY(0.5px); opacity: 1;}
	37% {transform: translateX(0) translateY(0); opacity: 1;}
	39% {transform: translateX(2px) translateY(0.5px); opacity: 1;}
	43% {transform: translateX(0) translateY(0); opacity: 1;}
	45% {transform: translateX(2px) translateY(0.5px); opacity: 1;}
	49% {transform: translateX(0); opacity: 1;}
	51% {transform: translateX(2px); opacity: 0;}
	100% {transform: translateX(0); opacity: 0;}
}
	@keyframes tv {
		0% {fill:#FFFB96;}
		30% {fill:#FFFB96;}
		31% {fill:#FFC52C;}
		60% {fill:#FFC52C;}
		61% {fill:#FFFB96;}
		64% {fill:#FFFB96;}
		65% {fill:#FFA92C;}
		98% {fill:#FFA92C;}
		99% {fill:#FFFB96;}
		100% {fill:#FFFB96;}
	}
</style>
<g id="bg">
	<rect class="st2" width="120" height="94"/>
</g>
<g id="objects">
	<path class="st3" id="ramp" d="M109.2,12.2c0-0.4-0.4-0.7-0.8-0.7H97.7c-0.4,0-0.7,0.3-0.8,0.7l-1.9,17C95,29.6,95.4,30,95.8,30h6.4v64h1.5
		V30h3.3v4.1c-0.1,0.1-0.2,0.3-0.2,0.6c0,0.4,0.2,0.7,0.4,0.7s0.4-0.3,0.4-0.7c0-0.3-0.1-0.5-0.2-0.6V30h2.9c0.5,0,0.8-0.4,0.8-0.9
		L109.2,12.2z"/>
	<path class="st3" id="table" d="M120,52.6v-1.9h-11c-0.5,0-0.9,0.4-0.9,0.9c0,0,0,0,0,0c0,0,0,0,0,0v14.6h-8.2V51.6c0-0.5-0.4-0.9-0.9-0.9H83
		c-0.5,0-0.9,0.4-0.9,0.9c0,0,0,0,0,0c0,0,0,0,0,0v14.6h-9.6H72h-0.4c-0.6,0-1.1,0.1-1.6,0.4l-3.1,1.8h0c-0.4,0.3-0.7,0.7-0.7,1.3
		c0,0.8,0.7,1.5,1.5,1.5h2.5V94h3.6V78.5h8.4v2.9l-3.7,2.9c0,0,0,0-0.1,0l0,0c0,0,0,0,0,0c-0.2,0.2-0.3,0.4-0.3,0.6v9h3.2v-6.1h17.2
		V94h3.2v-9c0-0.1,0-0.1,0-0.2c0-0.1,0-0.1,0-0.2c0,0,0,0,0,0c-0.1-0.1-0.1-0.2-0.2-0.4L99.9,81v-2.5h8.2v2.9l-0.1,3.3
		c0,0.1,0,0.1,0,0.2c0,0,0,0,0,0v9h3.2v-6.1h8.8v-2v-0.4V84v-3.4h-2.1v-2.1h2.1v-9.3v-1.5v-1.5h-2.1V52.6H120z M110,52.6h2v13.7h-2
		V52.6z M91.9,66.2V52.6h2.1v13.7H91.9z M90.1,66.2h-2.1V52.6h2.1V66.2z M90.1,78.5v2.1h-2.1v-2.1H90.1z M91.9,80.7v-2.1h2.1v2.1
		H91.9z M95.9,66.2V52.6h2.1v13.7H95.9z M84,52.6h2v13.7h-2V52.6z M86.1,78.5v2.1h-2v-2.1H86.1z M98.1,80.7h-2.1v-2.1h2.1V80.7z
		 M112,78.5v2.1h-2v-2.1H112z M116,80.7h-2.1v-2.1h2.1V80.7z M116,66.2h-2.1V52.6h2.1V66.2z"/>
	<path class="st3" id="shelf" d="M59.9,67H0v-7.1h59.9c0.5,0,0.9,0.4,0.9,0.9v5.4C60.7,66.6,60.4,67,59.9,67z"/>
	<path class="st3" id="tv" d="M60.2,34.6H27.4c-0.4,0-0.7,0.3-0.7,0.7v22.5c0,0.4,0.3,0.7,0.7,0.7h9.4l-2.9,2.9l20.5,0.6l-3.5-3.5h9.3
		c0.4,0,0.7-0.3,0.7-0.7V35.3C60.9,34.9,60.6,34.6,60.2,34.6z"/>
	<path class="st0" id="screen" d="M57.9,56.4H29.6c-0.4,0-0.7-0.3-0.7-0.7V37.3c0-0.4,0.3-0.7,0.7-0.7h28.3c0.4,0,0.7,0.3,0.7,0.7v18.4
		C58.6,56,58.3,56.4,57.9,56.4z"/>
	<path class="st3" id="microwave" d="M23.7,43.9H0l0,15.4h0v1.1h2.2v-1.1h18.5v1.1h2.2v-1.1h0.7c0.6,0,1.2-0.5,1.2-1.2V45.1
		C24.8,44.4,24.3,43.9,23.7,43.9z M8.2,49.3c0,0.2-0.1,0.3-0.3,0.3H3.5c-0.2,0-0.3-0.1-0.3-0.3v-2.3c0-0.2,0.1-0.3,0.3-0.3h4.3
		c0.2,0,0.3,0.1,0.3,0.3V49.3z M10.4,56V55h0.4c0.3,0,0.5-0.2,0.5-0.5v-5.7c0-0.3-0.2-0.5-0.5-0.5h-0.4v-1.1c0-0.4,0.3-0.7,0.7-0.7
		h10.6c0.4,0,0.7,0.3,0.7,0.7V56c0,0.4-0.3,0.7-0.7,0.7H11.1C10.7,56.7,10.4,56.4,10.4,56z"/>

<g id="momall">
		<path id="mom" class="st3" d="M35,91.2c0.2-1.5,0.5-1.4,0.6-4.7
		c0-0.9,0.2-3.7,0.3-4.6c0.1-0.7,0.2-1.4,0.3-2.1c0.1-0.5,0.2-1,0.2-1.5c0.1-0.5,0.1-1,0.1-1.5c0-2.3,0.8-4.5,0.2-6.8
		c0-0.1,0-0.1,0-0.2c0-2-0.5-4-0.4-6.1c0.1-2.4,0.2-4.8,0.3-7.1c0-0.2,0.1-0.5,0.4-0.6c0.4-0.2,0.5-0.5,0.5-1.1
		c0.2-0.2,0.2-0.5,0.1-0.8c-0.1-0.2-0.1-0.4,0-0.5c0.6-2.1,0.1-3.5-1.7-6c-1.7-2.5-2.9-5.5-5.1-7.5c-0.4-0.4-0.3-1.1,0.3-1.2
		c0.5-0.2,1-0.2,1.3-0.4c0.3-0.1,0.7-0.1,0.9-0.4c0.3-0.4,0-1,0.1-1.4c0.2-0.1,0.2-0.3,0.1-0.6c0.2-0.1,0.2-0.3,0.2-0.5
		c0-0.4,0.3-0.7,0.6-0.7c0.3,0,0.5-0.1,0.6-0.3c0.1-0.2,0.2-0.4,0.1-0.6c-0.1-0.4-0.4-0.6-0.7-0.9c-0.2-0.3-0.3-0.7,0-0.9
		c0.1-0.2,0.3-0.3,0.4-0.5c0.1-0.1,0.2-0.2,0.3-0.3c0.9-0.4,0.6-1.9,0.2-2.7c-0.4-0.7-0.9-1.7-1.6-2.1c-0.2-0.1-0.4-0.2-0.6-0.3
		c-0.1,0-0.2-0.1-0.3-0.2c-1.3-1.3-3.2-1.9-5.1-1.6C26,24.8,24.8,26,24,27.3c-0.2,0.2-0.4,0.4-0.7,0.3c-0.7-0.1-1.6,0-1.9,0.5
		c-0.1,0.2-0.1,0.3-0.1,0.5c0,0.2,0,0.5-0.2,0.6c-0.4,0.3-0.6,0.7-0.7,1.1c-0.1,0.4,0,0.8,0.3,1.1c0.1,0.2,0.1,0.3,0.1,0.5
		c0,0.2,0,0.4,0,0.6c0.1,0.3,0.2,0.5,0.4,0.7c0.2,0.2,0.3,0.5,0.2,0.7c-0.1,0.4-0.1,0.9,0.1,1.2c0.1,0.2,0.3,0.3,0.4,0.3
		c0,0.2,0.1,0.4,0.3,0.5c0.2,0.2,0.5,0.1,0.8,0.1c0.1,0.2,0.3,0.3,0.6,0.3c0.6,0,1.2-0.5,1.7-0.2c-0.8,0.3-1.5,0.6-2,1.2
		c-0.1,0.1-0.1,0.1-0.2,0.2c-1.7,0.8-3.3,2.7-4.1,4.2c-0.8,1.5-1.2,3.1-1.5,4.8c0,0.1,0,0.2-0.1,0.2c-0.4,0.7-0.6,1.6-0.9,2.4
		c-0.3,0.7-0.7,1.4-0.9,2.1c-0.2,0.7-0.1,1.1,0.3,1.4c0,0.2,0,0.4,0,0.6c-0.1,1.9-0.4,3.8,0.3,5.6c0.2,0.5,0.5,0.7,0.8,0.8
		c0.4,0.1,0.6,0.4,0.6,0.8c-0.1,1.9-0.4,3.8-0.5,5.7c-0.1,1.5,0.1,2.8,0.5,4c0,0.1,0,0.1,0,0.2c0,1.6,0.4,3.2,0.6,4.7
		c0.3,1.8,0.7,3.7,1.4,5.4c0,0.1,0,0.1,0.1,0.2c0.1,0.8,0.2,1.6,0.2,2.4c0,1.2-0.1,2.3,0,3.5c0,0.8,0.2,1.2,0.6,1.4
		c0,0.2,0,0.4-0.1,0.6c-0.1,0.5-0.3,1-0.4,1.5c-0.3,1.1-1,4.1-1,4.1h15.8C34.7,94,34.7,92.7,35,91.2z"/>
		<path id="front" class="st3" d="M41.7,94c0-0.1-0.4-1-0.4-1.7
		c0.1-0.7-0.3-1.3-0.2-2.1c0.2-1.3,0.1-2.8,0.1-4.1c0-0.6-0.2-1.6-0.2-2.4c0-5.5-3.4-9.3-4.5-13.8c-0.2-1-0.9-2-1.5-2.8
		c-0.7-0.7-1.7-1.2-2.7-1c-1.3,0.4-1.9,1.9-2.2,3.2c-2,8-2.5,16.3-2.9,24.5L41.7,94z"/>
		<path class="st3" id="back" d="M19.1,70.1c0.1,2.1,0,4.2-0.2,6.2c-0.2,2.2-0.6,3.3-0.9,5.5c-0.2,1.3-0.3,3.5-0.4,4.8
		c-0.1,1.8-0.1,2.2-0.2,3.3c-0.3,2.2-1,2.8-1.3,4.1c0.1,0,0.3-0.1,0.4-0.1h7.2c0-0.1,0-0.3,0-0.4V68c-0.1-0.5-0.2-1.1-0.4-1.6
		c0-0.2-0.1-0.3-0.2-0.5c-0.2-0.4-0.7-0.5-1.1-0.5c-0.8,0-1.6,0.2-2,0.8c-0.1,0.1-0.2,0.3-0.3,0.5C19.4,67.6,19.1,69.1,19.1,70.1z"
		/>

		<path class="st3" id="arms" d="M53.8,51.9c0-0.1-7,0.3-7.6,0.3c-2.3,0.1-4.6,0.1-6.9,0.1c-0.7,0-1.5,0-2.3-0.1c-0.1-0.3-0.2-0.6-0.4-0.8
			c-0.6-0.6-1.7-0.4-2.3,0.2l-0.1,0.2c0,0.2,0,0.3,0,0.5c-0.2,0-0.5,0.1-0.7,0.1c-3,0.6-2.6,4.9-2.4,7.7c0,0.5,0.6,0.8,1.1,0.6
			l5.1-2.7c1.2-0.7,2.5-1.3,3.7-2.1c0.4-0.3,0.9-0.6,1.4-0.7c0.6-0.1,1.3,0,1.6-0.5c0.2-0.3,0.1-0.6,0.3-0.9c0.3-0.6,1.1-0.7,1.8-0.8
			l7.1-0.2C53.5,52.8,53.8,52.4,53.8,51.9L53.8,51.9z"/>
		<path class="st3" id="salad" d="M50.1,44.3c0.3-0.4,0.6-0.9,0.7-1.4c0.1-0.5,0.1-1.1-0.3-1.4c-0.5,1-1,1.9-1.7,2.8c-0.4,0.6-1,1.1-1.5,1.7
			c-0.5,0-0.9,0-1.4,0l-0.1-0.5c0-0.2-0.1-0.3-0.2-0.5c-0.1-0.1-0.2-0.1-0.3-0.2c-0.6-0.3-0.6-1.3-1.2-1.6c-0.3-0.2-0.6-0.1-1,0
			c-0.1,0.1-0.3,0.1-0.4,0.2c-0.2,0.1-0.4,0.2-0.7,0.1c-0.2-0.1-0.4,0-0.5,0.1c-0.2,0.2-0.3,0.5-0.2,0.8c0,0.2,0,0.4-0.1,0.5
			c-0.1,0.1-0.2,0.1-0.3,0.2c-0.3,0.2-0.5,0.4-0.6,0.7c-1.3,0-2.5,0-3.8,0c-0.5,0-0.8,0.4-0.7,0.9c0.5,2,1.4,4,2.6,5.7
			c0.1,0.2,0.4,0.3,0.6,0.3l7.3-0.3c0.3,0,0.5-0.2,0.6-0.4c0.8-1.7,1.2-3.5,1.4-5.3c0-0.2,0-0.4-0.1-0.5
			C49.1,45.8,49.6,45.1,50.1,44.3z"/>
		<path class="st3" id="cup" d="M51.1,48.3l-1.1,0c-0.4,0-0.8,0.4-0.7,0.8c0.1,0.8,0.3,1.6,0.5,2.4c0.1,0.3,0.4,0.5,0.7,0.5l0.4,0
			c0.4,0,0.7-0.3,0.7-0.7l0.2-2.3C51.8,48.7,51.5,48.3,51.1,48.3z"/>
	</g>
</g>

</svg>
