<?xml version="1.0" encoding="utf-8"?>
<!-- Generator: Adobe Illustrator 27.0.0, SVG Export Plug-In . SVG Version: 6.00 Build 0)  -->
<svg version="1.1" xmlns="http://www.w3.org/2000/svg" xmlns:xlink="http://www.w3.org/1999/xlink" x="0px" y="0px"
	 viewBox="0 0 170 70" style="enable-background:new 0 0 170 70;" xml:space="preserve">
<style type="text/css">
	.st2{fill:#FFFB00;}
	.st3{fill:#000001;}
	#dogtail {
		transform-origin: 130px 67px;
		animation: dogtail 0.5s infinite;
		animation-timing-function: ease-in-out;
	}
	@keyframes dogtail {
		0% { transform: translateY(-2px) rotate(0) scale(100%);}
		50% {transform: translateY(-2px) rotate(-35deg) scale(90%);}
		100% { transform: translateY(-2px) rotate(0) scale(100%);}
	}
	#momhand {
		transform-origin: left bottom;
		animation: momhand 20s infinite;
	}
	@keyframes momhand {
		0% { transform: translate(0, 0) rotate(0);}
		85% { transform: translate(0, 0) rotate(0);}
		90% {transform: translate(1px, -3px) rotate(-15deg);}
		95% {transform: translate(1px, -3px) rotate(-15deg);}
		100% { transform: translate(0, 0) rotate(0);}
	}
	#fahand {
		transform-origin: 75px 40px;
		animation: fahand 12s infinite;
	}
	@keyframes fahand {
		0% { transform: translate(0, 0) rotate(0);}
		35% { transform: translate(0, 0) rotate(0);}
		45% {transform: translate(-3px, 3px) rotate(-80deg);}
		65% {transform: translate(-3px, 3px) rotate(-80deg);}
		75% { transform: translate(0, 0) rotate(0);}
		80% { transform: translate(-1px, -1px) rotate(-5deg);}
		90% { transform: translate(-1px, -1px) rotate(-5deg);}
		95% { transform: translate(0, 0) rotate(0);}
		100% { transform: translate(0, 0) rotate(0);}
	}
	#fahead {
		transform-origin: 57px 24px;
		animation: fahead 12s infinite;
	}
	@keyframes fahead {
		0% { transform: translate(0, 0) rotate(0);}
		75% { transform: translate(0, 0) rotate(0);}
		80% { transform: translate(0, 1px) rotate(5deg);}
		90% { transform: translate(0, 1px) rotate(5deg);}
		95% { transform: translate(0, 0) rotate(0);}
		100% { transform: translate(0, 0) rotate(0);}
	}
	#girhead {
		transform-origin: 25px 34px;
		animation: girhead 10s infinite;
	}
	@keyframes girhead {
		0% { transform: translate(0, 0) rotate(0);}
		35% { transform: translate(-1px, 0) rotate(15deg);}
		55% {transform: translate(0, 0) rotate(0);}
	}
	#girlhair {
		transform-origin: 25px 34px;
		animation: girlhair 10s infinite;
	}
	@keyframes girlhair {
		0% { transform: translate(0, 0) rotate(0);}
		35% { transform: translate(0, 0) rotate(15deg);}
		55% {transform: translate(0, 0) rotate(0);}
	}
	#boyface {
		transform-origin: 96px 36px;
		animation: boyface 14s infinite;
	}
	@keyframes boyface {
		0% { transform: translate(0, 0);}
		10% { transform: translate(1px, 0.5px) rotate(14deg);}
		40% { transform: translate(1px, 0.5px) rotate(14deg);}
		50% { transform: translate(0, 0);}
	}
	#boyhead {
		transform-origin: 96px 36px;
		animation: boyhead 14s infinite;
	}
	@keyframes boyhead {
		0% { transform: translate(0, 0) rotate(0);}
		10% { transform: translate(0, 0.5px) rotate(14deg);}
		40% { transform: translate(0, 0.5px) rotate(14deg);}
		50% { transform: translate(0, 0) rotate(0);}
	}
	#boyhand {
		transform-origin: 93px 39px;
		animation: boyhand 5s infinite;
	}
	@keyframes boyhand {
		0% { transform: translate(0, 0) rotate(0);}
		15% { transform: translate(0, 0) rotate(15deg);}
		30% {transform: translate(0, 0) rotate(-10deg);}
		40% { transform: translate(0, 0) rotate(5deg);}
		60% {transform: translate(0, 0) rotate(-10deg);}
		85% {transform: translate(0, 0) rotate(0);}
	}
</style>
<g id="bg">
	<rect class="st2" width="170" height="70"/>
</g>
<g id="objects">
	<g>
		<g>
			<path class="st3" id="dog" d="M131.8,70h-18.5c-0.1-0.7,0.1-1.5-0.1-2.2c-0.2-0.9-0.1-2-0.7-2.5c-1.1-1.1-0.5-2.7-2.1-3.3c-1.3-0.6-1.9-1.8-2.3-3.1
				c0.1-1.2,0.8-2.3,0.2-3.5c-0.1-0.2,0-0.5,0-0.8c0-0.6,0.2-1.2-0.1-1.8c-0.1-0.2,0.1-0.6,0.2-0.8c0.3-0.8,0.1-1-0.7-1.4
				c-0.6-0.3-1.2-0.3-1.8-0.1c-0.4,0.1-0.8,0-1.1-0.2c-0.1-0.1-0.3-0.3-0.5-0.3c-0.6-0.2-0.7-0.4-0.2-0.9c0.4-0.4,0.9-0.5,1.5-0.8
				c-1.3-0.2-2.3-0.6-2.7-1.9c-0.2-0.5-0.1-0.7,0.4-0.8c0.7-0.2,1.4-0.3,2.1-0.4c0.9,0,1.5-0.4,2-1.1c0.4-0.6,1-1,1.8-0.9
				c0.6,0.1,1.3,0,2,0c0.2,0,0.5,0,0.6,0.1c1.1,0.9,2.5,1.5,2.5,3.3c0,0.1,0.1,0.3,0.2,0.3c1.1,0.9,1.2,2.4,2.1,3.4
				c0.1,0.2,0.2,0.4,0.4,0.5c2.3,2.2,4.5,4.4,7.1,6.2c1,0.7,2,1.4,3,2.2c0.4,0.3,1,0.8,1,1.2c0,0.6,0.2,0.7,0.5,1
				c0.4,0.4,0.9,0.7,1.3,1.1c0.7,0.7,1.2,1.6,1.6,2.5l0.1,0.3C132.1,67.3,131.9,68.6,131.8,70z"/>
			<path class="st3" id="dogtail" d="M129.2,70c-0.7-0.2-1.4-0.8-1.7-1.5c-0.3-0.7-0.4-1.5,0-2.2c0.1-0.3,0.3-0.5,0.6-0.7c0.3-0.1,0.6-0.1,0.9-0.1
				c0.9,0,1.8,0,2.7,0.1c0.1,0,0.4-0.1,0.5-0.1c1.1-0.3,1.9-1.1,2.3-2.2c0.4-1.1,0.6-2.4,0.5-3.6c0-0.2-0.1-0.3-0.1-0.5
				c-0.5-1-1.1-1.7-2-2.6c1.1-0.2,2.1-0.5,2.9,0c0.5,0.3,1,0.8,1.6,1.1c0,0,0.1,0.1,0.1,0.1c-0.1,1,0.5,1.8,0.4,2.8
				c-0.2,1.7,0.6,3.4,0,5c-0.4,0.9-2.4,3.2-4.2,4.5c-0.5,0-0.9,0-1.4,0H129.2z"/>
		</g>
	</g>
	<g>
		<path class="st3" id="fridge1" d="M170,13.3h-29.1c-0.6,0-1.2,0.5-1.2,1.2V35c0,0.6,0.5,1.2,1.2,1.2H170V13.3z M144.7,32.6c0,0.3-0.2,0.5-0.5,0.5h-0.9
			c-0.3,0-0.5-0.2-0.5-0.5v-6.8c0-0.3,0.2-0.5,0.5-0.5h0.9c0.3,0,0.5,0.2,0.5,0.5V32.6z"/>
		<path class="st3" id="fridge2" d="M170,36.6h-29.1c-0.6,0-1.2,0.5-1.2,1.2V70H170V36.6z M144.7,47.1c0,0.3-0.2,0.5-0.5,0.5h-0.9c-0.3,0-0.5-0.2-0.5-0.5
			v-6.8c0-0.3,0.2-0.5,0.5-0.5h0.9c0.3,0,0.5,0.2,0.5,0.5V47.1z"/>
	</g>
</g>
<g id="main">
	<path class="st3" id="table" d="M101.2,48.7c0.1-0.6,0.3-1.2,0.8-1.6c0.7-0.7,0.8-1.6,1.1-2.5c1-2.7,2.1-5.4,2.5-8.3c0.3-2.7-1.1-3.9-3.7-3.2
		c-0.8,0.2-1.1,0.3-1.6,0.4c-0.3,0.1-0.6,0.2-1,0.3c-0.2,0-0.4,0.1-0.6,0.2c-0.2,0.1-0.3,0.3-0.4,0.5c-0.4,0.5-0.6,0.6-1,1
		c-0.2,0.2-0.4,0.5-0.6,0.7c-0.2,0.2-0.5,0.4-0.8,0.5c-0.2,0.1-0.5,0.3-0.7,0.4c-0.1,0.1-0.3,0.1-0.4,0.2c-0.2,0-0.3,0-0.5,0
		c-0.3,0.1-0.7,0.3-0.7,0.7c0,0.5-0.4,0.5-0.8,0.6c-2.4,0.5-4.7,1.3-7.2,1.1c-0.4,0-0.8,0-0.9-0.6c-0.1-0.7-0.8-0.9-1.4-1.2
		c-1.5-0.5-3-0.5-4.5-0.4c-1.1-0.4-2.1-1.5-3-2.4c-1.1-1.2-2.4-2.1-3.3-3.5c-2.1-3.4-1.6-3.3-7.1-6c-0.7-0.3-1.5-0.4-1.9-0.6
		c-0.1-0.1-0.2-0.5-0.4-0.6c-0.2-0.1-0.6,0-0.6-0.1c-0.5-0.3-1.1-0.6-1.7-0.8c-0.2-0.1-0.3-0.1-0.5-0.2c-0.2-0.1-0.4-0.2-0.7-0.2
		c-0.6-0.2-1.2-0.2-1.8-0.2c-0.5,0-0.9,0-1.4,0.1c-0.4,0.1-0.9,0.3-1.2,0.6c-0.1,0.1-0.3,0.3-0.4,0.4c-0.2,0.1-0.2,0.2-0.4,0.2
		c0,0.1-0.3-0.1-0.5,0c-0.3,0.2-0.5,0.5-0.9,0.6c-0.5,0.2-0.8,0.4-1.3,0.6c-3.5,1.3-6.2,3.5-7.9,7.2c-0.8,1.7-2,3.2-3,4.9
		c-0.3,0.5-0.7,1-1.4,1c-0.3,0-0.4,0.3-0.5,0.5c-0.3,0.7-0.6,0.6-1.1,0.5c-0.1,0-0.5-0.1-0.6-0.1c-0.1-0.2,0.3-4.2,0.3-4.2
		s-0.5-0.2-1.2-0.2c-0.7,0-1.1,0.2-1.1,0.2L35,36.6l-3,0c0,0-0.7-0.5-1-0.8c-0.5-0.4-1-0.5-1.6-0.7c-0.3-0.1-0.6-0.2-0.6-0.4
		c0-0.3-0.2-0.4-0.1-0.6c0-0.4-0.5-0.8-0.8-1.1c-0.2-0.2-0.3-0.3-0.5-0.5c-0.1-0.1-0.3-0.1-0.5-0.2c-0.5-0.1-1-0.2-1.4-0.3
		c-0.6-0.1-1.3,0-1.8,0.2c-0.6,0.3-1.2,0.8-1,1.4c0.1,0.2,0,0.4,0,0.5c0,0.1-0.2,0.1-0.2,0.1c-0.1,0.1,0,0.2-0.1,0.2
		c-0.1,0.1-0.3,0.1-0.6,0.1c-0.9,0.1-1.7,0.5-2.4,1.1c-0.2,0.2-0.3,0.3-0.5,0.6l-2.9,0v-1.7c-0.3-0.3-2.2-0.3-2.4,0l0.2,7.2
		c0,0-0.3,0-0.5,0c-0.6,0.1-0.5,0.6-0.5,1c0,1.2,0,2.2,0,2.2l-3.6,0.1c0,0-0.2-0.5-0.7-0.7c-0.3-0.1-0.7,0.1-1-0.1
		c-0.9-0.5-2.1-0.1-3.1-0.3s-2-0.4-2.6-1.3c-0.4-0.6-0.7-1.4-1-2.1c-0.6-1.5-0.3-2.1-0.7-3.7V70h44.6c0,0,0-1.7,0-1.7
		c0-3.6,0-7.1,0-10.7c0-0.3,0-1.1,0-1.1l1.1,0c0,0,0.5,11,0.5,13.5l10,0c-0.2-0.8-0.7-1.5-1-2.6c-0.3-1-0.8-1.9-1.1-3
		c-0.1-0.4,0-0.9,0-0.9s0.5,0,0.8,0c1.2,0,7.7,0,7.7,0s0,0.6,0,0.9c-0.1,1.2,0.1,2.4-0.2,3.6c-0.2,0.6-0.4,1.3-0.5,1.9l8.2,0
		c0.2-1.7,0.9-3.3,1.1-5.3c0.2-1.9,0.2-3,0-4.4c-0.2-1.1-0.4-1.6-0.6-2.7c-0.1-0.6-0.2-1.2-0.2-1.2l13.9-0.1c0,0,0,1,0,1.8
		c0,0.8,0.5,1.3,0.5,1.3c-0.1,0.8-0.1,1.6-0.1,2.4h-5.9c-0.5,0-0.9,0.4-0.9,0.9s0.4,0.9,0.9,0.9h5.5c0,0-0.1,0.3-0.4,0.9
		c-0.7,1.7-1.5,3.5-2.2,5.2h3c1-2.7,2-5.5,3.1-8.3c0.2-0.6,0.5-0.9,1.3-0.9c2.7,0,5.4,0,8.1,0c0.8,0,1.3,0.2,1.6,1
		c1,2.7,2,5.4,3,8.1h2.7c-0.8-2.1-1.7-4.2-2.4-6.3c-0.2-0.6-0.3-1.1-0.3-1.7c0-2.4-0.2-4.7-1.6-6.8c-0.3-0.4-0.1-0.8-0.1-1.2
		C100.4,52.2,100.8,50.4,101.2,48.7z M13.8,60.5c-2.9-3.1-6.7-3.3-10.2-4.1c3.2,0.1,10.3,0.4,10.3,0.4S13.8,59.3,13.8,60.5z
		 M17.3,43.5c0,0.2,0.1,0.6,0.1,0.6s-0.3,0-0.6,0h-0.6c0,0,0-1.7,0-1.9c0-0.2-0.1-0.3-0.2-0.3l-0.2,0c0-0.2,0-0.7,0-1
		c0,0,0.4,0,0.9,0c0.3,0,0.8,0,0.8,0s-0.1,0.5-0.1,0.9C17.3,42.4,17.3,42.9,17.3,43.5z M36.5,57.4c0-0.3,0-0.9,0-0.9l1.3,0
		c0,0,0.1,0.4,0.1,0.6c0,1.9,0,3.8,0,5.7C37.4,60.9,36.3,59.5,36.5,57.4z M44.7,45.1H43c0,0-0.1-0.7-0.1-1.1c0.3-0.3,0.8-0.5,1.5-1
		c0.4,0.2,0.6,0.3,0.6,1.4C45,44.9,44.7,45.1,44.7,45.1z M72.5,45.4c-0.1,0.1,0,0.7,0,0.7l-0.6,0c0,0,0-0.6-0.4-0.9
		c-0.4-0.3-2.8-0.1-2.8-0.1s0.1-3.3,0.1-3.6c0-0.7,0-1.4,0-2.4c0.7,1,1.2,1.7,1.7,2.5l1.2,1.4C73.2,44.1,73.2,44.1,72.5,45.4z"/>
	<g>
			<path class="st3" id="momhand" d="M0,44.2c0.9-0.6,1.8-0.7,2.7-1.4c1.1-0.9,3.1-1.7,4.1-2.8c0.4-0.5,0.4-0.9,0.6-1.5c0.1-0.5-0.2-1.1,0-1.5
				c0,0-1.8-2.2-1.8-2.5c0-0.4,0.1-0.7,1-1.4c0.7-0.5,1.3-0.7,1.7-0.6l1.7,2.1c0.1-0.1,0.3-0.2,0.6-0.1c0.4,0.1,0.8,0.3,0.8,0.8
				c0,0.6,0,1.3,0.2,1.8c0.2,0.9,0.1,1.7-0.4,2.4C10,41,8.7,42.3,7.4,43.7c-1,1.1-2.1,1.9-3.4,2.5c-1.3,0.7-2.6,1-4,0.7L0,44.2z"/>
		<g>		
			<path class="st3" id="fahead" d="M54.2,24.1c0.1-0.3-0.1-0.8-0.1-1.2c0-0.8-0.6-1.2-1-2.3c-0.3-1.3-0.3-2.3-0.4-3.7c0-0.5,0.1-1.3,0.3-1.9
				c0.5-1.4,1-2.4,2.1-2.9c1-0.5,1.4-0.8,2.5-0.9c0.8-0.1,1.8,0.3,2.7,0.5c0.8,0.2,1.5,0.6,2,1.2c0.5,0.6,1,1.8,1,2.6
				c0,0.9-0.1,0.7-0.1,1.6c0,0.6,0.9,1.7,0.9,2.3c0,0.7-0.4,0.6-0.6,1c-0.2,0.4,0.2,0.5,0.2,0.7c-0.1,0.3-0.2,0.3-0.1,0.7
				c0,0.3-0.3,0.4-0.4,0.9c0,0.2-0.2,0.5-0.4,0.7c-0.2,0.1-0.4,0.1-0.5,0.3c-0.6,0.6-1.3,1.2-2.1,1.6c-0.7,0.3-1.4,0.3-2.1,0.3
				c-0.7,0-1.4-0.1-2.1-0.2c-0.4-0.1-0.7-0.1-1-0.3C54.8,24.7,54.4,24.4,54.2,24.1z"/>
			<path class="st3" id="fahand" d="M78.7,38c-0.3-1.3-0.5-2.3-0.8-2.9c-0.7-1.4-1.1-3.1-1.4-4.6c-0.2-0.8-0.2-1.8-0.4-2.7c-0.1-0.4-0.2-1-0.3-1.3
				c-0.1-0.3-0.4-0.6-0.4-1c0-0.7,0.3-1.7,0.4-2.4c0.1-0.9-0.2-1.5-0.9-2c-0.8-0.5-1.5-1.2-2.3-1.7c-0.5-0.3-0.6-0.1-1.2,0.3
				c-0.4,0.3-1.2,0.6-1.6,1.1c-0.2,0.2-0.9,0.9-0.9,1.1c0,0.2,0.3,0.2,0.5,0.2l-2.8,1.4c-0.3-0.1-1.1,0.2-1.9,0.5
				c-1,0.4-1.6,0.8-1.5,1.1c0.2,0.3,1.2,0.3,2.1-0.1c0.9-0.4,1.4-1,1.4-1.3c0.9-0.5,1.8-0.8,2.6-1.1c0,0.1,0,0.2,0.1,0.5
				c0.4,0.7,0.4,1.5,0.9,2c0.2,0.2,0.7,0.5,0.9,0.7c0.1,0.1,0.1,0.7,0.1,0.9c0,0.4,0.2,0.9,0.2,1.3c0,0.4,0.2,1,0.2,1.3
				c0,1.4,0.1,2.1,0,3c-0.3,2.6,0.4,4.3,0.4,7.9c0,1.6,0.3,2.1,0.6,2.7c0.1,0.2,1.6,1.7,3.2,1.1c0.3-0.1,1.9-0.4,2.2-1.5
				C78.5,41.1,79,39.3,78.7,38z"/>
		</g>
		<g>	
			<path class="st3" id="girhead" d="M28.6,34.2c0.1-0.1,0.3-0.2,0.4-0.3c1.6-1.9,1.3-4,1-6.2c-0.1-0.8,0-1.5-0.5-2c-0.2-0.2-0.5-0.4-0.8-0.6
				c-0.1-0.1-0.1-0.2-0.3-0.3c-0.4-0.2-0.5-0.1-0.8-0.2c-0.7-0.2-1.5-0.3-2.5-0.2c-2.1,0.1-3.6,1.5-3.7,3.7c0,0.4,0,0.7-0.1,1.1
				c0,0.2,0,0.3,0,0.5c0,1.3,0.2,2.5,1,3.7c0.2,0.3,0.3,0.3,0.3,0.4c0.1,0.2,0.3,0.3,0.5,0.4c0.1,0.1,0.2,0.2,0.3,0.3
				c0.2,0.2,0.5,0.3,0.8,0.3c0.8,0.2,1.6,0.1,2.4,0c0.2,0,0.5,0,0.7-0.1c0.3-0.1,0.6-0.2,0.9-0.3C28.3,34.4,28.5,34.4,28.6,34.2z"/>
			<g id="girlhair">
				<ellipse class="st3" transform="matrix(0.4183 -0.9083 0.9083 0.4183 -11.2978 34.9904)" cx="21.7" cy="26.3" rx="1.7" ry="1.3"/>
				<ellipse transform="matrix(0.2976 -0.9547 0.9547 0.2976 -9.6924 37.5651)" cx="20.7" cy="25.4" rx="1" ry="0.7"/>
				<ellipse transform="matrix(0.6741 -0.7386 0.7386 0.6741 -9.2917 29.4348)" cx="28.7" cy="25.2" rx="0.7" ry="1"/>
				<ellipse transform="matrix(0.8396 -0.5431 0.5431 0.8396 -9.6117 19.4486)" cx="28.1" cy="26" rx="1.3" ry="1.7"/>
			</g>
		</g>
		<g>	
			<path class="st3" id="boyfoot" d="M83.9,62.9c0,0,0,0-0.7,0c-1.2,0-2.3-0.1-3.4-0.4c-0.8-0.2-1.6-0.8-1.4-1.3c0.2-0.5,1-0.2,1.5-0.5
				c0.5-0.3,1.1-0.5,1.1-0.9c0-0.2,0-0.5,0-0.8c-0.1-0.7,0-1.4,0-2c0-0.4,0-0.6,0-0.6c-0.1-0.6-0.2-1.2-0.2-1.8c0-0.2,0-0.5,0.2-0.6
				c0.1-0.1,0.3-0.2,0.5-0.2c0.7-0.2,1.4-0.2,2.1-0.1c0.4,0,0.8,0.1,1.1,0.4c0.3,0.3,0.3,0.8,0.3,1.2c0,1.9-0.1,3.8-0.1,5.7
				C84.8,61.6,84.5,62.9,83.9,62.9z"/>
			<path class="st3" id="boyhead" d="M93.3,37.3c-0.2,0-0.4-0.1-0.6-0.2c-0.4-0.1-0.9-0.1-1.1-0.5c-0.5-1.2-1.7-2.3-0.9-3.9c0.1-0.3-0.1-0.5-0.1-0.7
				c-0.4-1.2-0.2-2.4,0.3-3.4c0.3-0.6,0.3-1.6,1-1.8c0.9-0.3,1.7-1.7,3-0.6c0.1,0.1,0.3,0,0.5,0c2.8-0.2,5.6,2.9,5.1,5.6
				c-0.1,0.6-0.1,1-0.1,1.2c-0.1,0.9-0.7,2.1-2.4,3C96.2,36.8,94.8,37.5,93.3,37.3z"/>
			<path class="st3" id="boyface" d="M90.4,33.2c-0.1,0.1-0.2,0.3-0.3,0.4c-0.1,0.1-0.1,0.4,0,0.5c0.1,0.1,0.4,0.1,0.5,0.3c-0.2,0.2-0.1,0.6,0.1,0.7
		c-0.1,0.2,0,0.4,0.1,0.5c0.1,0.1,0.3,0.2,0.5,0.3c0.2,0.1,0.4,0.5,0.6,0.6c0.7,0.4,1.5-0.3,2-0.8c0.5-0.5,0.8-1.3,0.9-2.1
		c0.1-0.5,0.1-1,0.1-1.5c0-0.3,0-0.6-0.2-0.9c-0.1-0.2-0.4-0.4-0.6-0.5c-0.5-0.3-1.1-0.7-1.7-0.8c-0.7-0.1-1.7,0.2-1.8,0.9
		c-0.1,0.5,0.1,1.1,0.1,1.6c0,0-0.1,0.1-0.5,0.1c0,0,0.5,0,0.5,0.1C90.6,32.9,90.5,33,90.4,33.2z"/>
			<path class="st3" id="boyhand" d="M92.8,37.8c-1.1-0.4-1.8-0.6-3.2-0.9c-0.3-0.1-0.7,0.1-0.7-0.2c0-0.3,0.1-0.5,0.2-0.7c0.1-0.2,0.1-0.5-0.1-0.7
				c-0.1-0.1-0.1-0.1-0.2-0.2c-0.3-0.2-0.6-0.7-1-0.7c-0.3,0-0.5,0.2-0.7,0.4c-0.2,0.2-0.4,0.3-0.6,0.5c-0.2,0.1-0.3,0.3-0.5,0.5
				c-0.2,0.4-0.2,0.9,0.1,1.3c0,0,0.1,0.1,0.1,0.1c-0.1,0.1-0.2,0.2-0.3,0.2c-0.1,0.1-0.1,0.1-0.2,0.1c-0.1,0-0.1,0-0.2,0
				c-0.3,0-0.5,0.1-0.8,0.2c-0.1,0.1-0.4,0.4-0.3,0.6c0.2-0.1,0.5-0.3,0.6-0.4c0.1,0,0.3,0,0.2,0.1c0,0.1-0.1,0.1-0.2,0.1
				c-0.2,0.1-0.3,0.2-0.5,0.4c0,0,0,0,0,0.1c0,0,0,0.1,0,0.1c0,0.1,0.1,0.1,0.2,0.1s0.2-0.1,0.2-0.1c0.1-0.1,0.3-0.2,0.4-0.3
				c0.1-0.1,0.1-0.1,0.2,0c0.1,0.1,0,0.2-0.1,0.3c-0.1,0.1-0.3,0.3-0.4,0.4c0,0.1,0.1,0.1,0.2,0.1s0.2-0.1,0.2-0.1
				c0.2-0.1,0.4-0.3,0.5-0.5c0.1-0.2,0.2-0.5,0.1-0.7c0,0,0-0.1,0-0.1c0,0,0-0.1,0.1-0.1c0.1-0.1,0.2-0.2,0.3-0.2c0,0,0.1,0.1,0.1,0.1
				c0.3,0.3,1.2,1,1.6,1.3c1.4,1.1,3.3,1.4,5.1,1.4c0.1,0,0.2,0,0.4,0c0.3-0.1,0.5-0.5,0.6-0.8c0.1-0.3,0.1-0.6,0.1-0.9
				C94.4,37.3,93.5,38,92.8,37.8z"/>
		</g>
	</g>
</g>
</svg>
