<?xml version="1.0" encoding="utf-8"?>
<!-- Generator: Adobe Illustrator 27.0.0, SVG Export Plug-In . SVG Version: 6.00 Build 0)  -->
<svg version="1.1" id="Layer_1" xmlns="http://www.w3.org/2000/svg" xmlns:xlink="http://www.w3.org/1999/xlink" x="0px" y="0px"
	 viewBox="0 0 1500 300" style="enable-background:new 0 0 1500 300;" xml:space="preserve">
<path d="M1500,108.3h-4.1l0,0h-3.4l0,0h-19v26.8l-26.2,19.1v-26.1l-5.8-29.1h-7.9l-4.2-23.8h-1.7l0,0h-1.5l0,0h-1.5l-5.2,23.8h-7.9
	l-5.2,29.1v34.4l-33.9-8.8l-6.5-16.6h-22.9l0,0l-13.2-10.5v-12l-12.3-14.7h-17.6l-0.4,0h-8.6l0,0h-10.4v22.1h-14.3v0l-15.6,9.5l0,0
	h-13.7v-31h-29.7v21.5h-11v17h-18.9l-8.5,13.3h-11.4V123h-10.4v-17.5h-15.1V89.3l-11.4-13.6h-9.6V59h-30.8v18.2h-22.5l-22.3,20.9
	l-6.9-34.5l-12.7-15.8h-22.9l-11.9,14.8l-7.6,35.6v6.2l-14.3,0.2V63.8H934V45.9l-16.1-18.5v-13h-15.3v13h-6.2v-18L880,18.5v8.8
	l-14.2,1v31.7h-0.1l-0.1,49.7h-8.1V94.1h-12.5V64.4h-11.6L818.4,7.3h-3.6h-3.5l-15.2,57.1h-11.6v29.6h-11V75.7h-24l-11.4,13.6v23.8
	H723v0.1h-4.6v0h-9.2V66.4l-4.3-34.8l0,0h-8.5h-10.3h-10.3h-8.5l0,0L663,66.4v34.2h-5.3v0.1h-24.6V127l-14.2,9.5V70.3L602.7,70v0.1
	l-26.7,32.5l0,0H576v19.5h-10.4l0.1-35.1h-13.6l-9,0.3v35.3l-21.4,22.2v-35.5h-8.6V81.5h-8.3V38.2h-7V27.7h-7.6l0,0l-4.5,0l0,0h-1.4
	l0,0l-4.6,0l0,0h-7.6v10.5h-7v43.3h-8.3v27.8h-7.7V54.8L410.6,55l-0.4,50l-5.1,0h-19.4l-10.5,13.3v38.5l-13.5,0l-14.9-15l-14.9,15
	h-1.4c-1.1-1.7-9-16.6-9-16.6l-4.5-7.8l-4.3,7.8c0,0-8.1,14.9-9.2,16.6h-0.8V99.4H277v24.1h-14v13.8h-14l0,23.6l-15.5,0v-24.6
	l-6.3-5.7h-32.6l-6.3,5.7v17.4h-33.3v-40h-11.7h-2.8h-2.8h-10.5v20.1h-34v-18.3l-23.9,13.8v18.2H39.7v-42.8L0,116.6V302l1500,0
	V108.3z"/>
</svg>
