<?xml version="1.0" encoding="utf-8"?>
<!-- Generator: Adobe Illustrator 26.3.1, SVG Export Plug-In . SVG Version: 6.00 Build 0)  -->
<svg version="1.1" id="Layer_1" xmlns="http://www.w3.org/2000/svg" xmlns:xlink="http://www.w3.org/1999/xlink" x="0px" y="0px"
	 viewBox="0 0 350 591" style="enable-background:new 0 0 350 591;" xml:space="preserve">
<style type="text/css">
	.st0{display:none;}
	.st1{display:inline;fill:#FFC52C;}
	.st2{display:inline;fill:#FFFB00;}
	.st3{display:inline;}
	.st4{fill:#000001;}
</style>
<g id="Layer_3" class="st0">
	<rect x="71" y="266" class="st1" width="150" height="70"/>
	<rect x="-153.9" y="265.8" class="st2" width="170" height="70"/>
</g>
<g id="Layer_2_00000111188000817266601630000000320601607516999558_" class="st0">
	<g class="st3">
		<path class="st4" d="M124.9,276c-4.4,0-8,3.6-8,8s3.6,8,8,8s8-3.6,8-8S129.3,276,124.9,276z M124.9,290c-3.3,0-6-2.7-6-6
			s2.7-6,6-6c3.3,0,6,2.7,6,6S128.2,290,124.9,290z"/>
		<path class="st4" d="M125.1,283.1l-0.8-1.6l-0.5-1.2c-0.2-0.4-0.6-0.6-1-0.9c0,0.5,0,1,0.1,1.4l0.5,1.1l0.8,1.6
			c0,0.1-0.1,0.1-0.1,0.2c-0.7,0.2-1.5,0.4-1.7,0.4c-0.5,0.1-0.9,0.5-1.4,0.8c0.5,0.1,1.1,0.3,1.6,0.1c0.2-0.1,1.1-0.2,1.7-0.4
			c0.2,0.2,0.4,0.3,0.6,0.3c0.5,0,0.9-0.4,0.9-0.9C125.9,283.5,125.5,283.2,125.1,283.1z"/>
	</g>
	<g class="st3">
		<path d="M16.1,279.1H-13c-0.6,0-1.2,0.5-1.2,1.2v20.5c0,0.6,0.5,1.2,1.2,1.2h29.1V279.1z M-9.3,298.4c0,0.3-0.2,0.5-0.5,0.5h-0.9
			c-0.3,0-0.5-0.2-0.5-0.5v-6.8c0-0.3,0.2-0.5,0.5-0.5h0.9c0.3,0,0.5,0.2,0.5,0.5V298.4z"/>
		<path d="M16.1,302.5H-13c-0.6,0-1.2,0.5-1.2,1.2v32.2H16L16.1,302.5z M-9.3,312.9c0,0.3-0.2,0.5-0.5,0.5h-0.9
			c-0.3,0-0.5-0.2-0.5-0.5v-6.8c0-0.3,0.2-0.5,0.5-0.5h0.9c0.3,0,0.5,0.2,0.5,0.5V312.9z"/>
	</g>
	<path class="st3" d="M200,321.6h-0.5v-34c1.1,0,2.1-0.1,3-0.1v3.3c-0.1,0.1-0.2,0.3-0.2,0.6c0,0.4,0.2,0.7,0.4,0.7s0.4-0.3,0.4-0.7
		c0-0.3-0.1-0.5-0.2-0.6v-3.3c2.7-0.2,4.5-0.6,4.5-1.1v-6.1c0-0.7-3.8-1.2-8.4-1.2s-8.4,0.5-8.4,1.2v6.1c0,0.6,3.4,1.1,7.7,1.2v34
		H193c0-1.3,0-2.4,0-3c0-2.2-1.6-2.8-2.8-3.4c-2.3-1.1-3.2-1.3-3.9-1.8c-1.8-1.1-1.7-2.5-2.6-4.4c-0.4-0.7-0.7-1.6-1.4-1.8
		c-0.3-0.1-0.7-0.1-1-0.1c-0.7,0-1.4,0-2.1,0c-0.5-0.7-1-1.3-1.5-1.8c-0.2-0.2-0.5-0.4-0.7-0.5c-0.3-0.2-1.2-0.4-1.5-0.5
		c-1.1-0.3-2.3-0.6-3.5-1.1c-0.1-0.3-0.1-0.6,0-0.9c0.2-0.8-0.7-1.7-1.5-2s-1.7-0.3-2.5-0.2c-0.3,0-0.6,0-0.8,0.2
		c-0.3,0.1-0.4,0.4-0.6,0.6c-0.1,0.2-0.3,0.3-0.3,0.5c-0.2,0.3-0.2,0.8-0.2,1.1c0,0,0.1,0.1,0,0.3c0,0.1-0.1,0.4-0.1,0.4
		c-0.1,0-0.2,0.3-0.3,0.3c-0.1,0.1-2.3,0.3-3.6,0.6c-0.7,0.2-1.4,0.1-2,0.6c-0.5,0.4-1,0.9-1.4,1.4s-0.8,1.1-1.3,1.7
		c-1.6,0-3.4,0-5.6,0.1c-0.5,0-1.3,0.4-1.5,2.2c-0.2,4.3-0.3,8-0.4,11.7h-7.2c0.5-0.7,1-1.4,1.5-2.2c0.7-1,1.5-2.1,1.7-3.3
		c0.1-0.5,0.1-1,0-1.4s0.1-0.8-0.3-0.9c-0.3-0.1-0.6,0-0.9,0.1c-1,0.3-1.8,0.6-2.8,0.9c0.5-0.6,0.7-1.3,0.7-2c0-0.4-0.1-0.9-0.4-1.2
		c-0.3-0.3-0.7-0.5-1.1-0.5c-1.4-0.2-2.8,0.6-4,1.4c-1.2,0.7-2,1.9-3.3,2.2c-0.6,0.2-1.2,0.4-1.8,0.5c-0.4-0.2-0.8-0.3-1.3-0.2
		c-0.4,0-0.9,0.2-1.3,0.2c-0.5,0-1-0.2-1.6-0.1c-0.3,0-0.6,0.1-0.9,0.1c-0.8,0-1.4-0.5-2.2-0.7c-1.3-0.4-2.7-0.6-4-0.7
		c-0.7-0.1-1.5-0.1-2.2,0.1c-0.5,0.1-1,0.3-1.4,0.5c-0.8,0.3-1.6,0.3-2.4,0.6c-0.7,0.2-1.3,0.6-1.9,0.8c-1.2,0.5-2.5,0.7-3.8,0.9
		c0.1-0.9,0.2-1.9,0.3-2.8c0.1-1.1,1.1-2,1.7-2.9c0.7-1,0.9-2.3,1-3.5c0-0.5,0.1-1.1-0.2-1.4c-0.7-1-2-0.9-2.3-1.5
		c0.2-0.6,0.7-0.7,1.3-0.9c1.4-0.4,0.5-2.1,0.1-2.9s-1.2-1.4-2.1-1.7c-0.9-0.3-1.3-0.4-2.2-0.1c-0.3,0.1-0.9,0.4-1.1,0.6
		c-0.2,0.3-0.5,0.6-0.5,1.2c0,0.2,0,0.5-0.3,0.8s-0.5,0.5-1.1,0.6c-1.2,0.1-3,1.3-3.8,2c-0.6,0.5-1.1,1.1-1.5,1.8
		c-0.6,0.9-1.3,1.8-1.9,2.6c-0.8,1.1-1.7,2.3-2.2,3.6c-0.1,0.2-0.2,0.5-0.3,0.7c-0.9-0.6-1.8-1.1-2.8-1.4c-0.2-0.1-0.5-0.1-0.7-0.3
		c-0.3-0.2-0.5-0.5-0.7-0.8c-0.7-0.9-1.7-1.8-2.9-2.1c0.2-0.3,0.2-0.4,0.2-0.8c0-0.3,0.5-0.4,0.3-1c0.4-0.6-0.4-0.7-0.1-1
		c0.1-0.1,0.2-0.2,0.3-0.2c0.1-0.1,0.4-0.3,0.4-0.6c0-0.1-0.1-0.4-0.2-0.5c-0.2-0.2-0.4-0.2-0.6-0.4c-0.1-0.1-0.2-0.2-0.2-0.3
		c0-0.1,0-0.2,0-0.3c0-0.5-0.1-1.1-0.4-1.6c0.5-1.3-0.4-2.9-1.6-3.6c-1.3-0.7-2.8-0.8-4.2-0.8c-0.7,0-1.5,0-2.2,0.2
		c-0.9,0.2-1.7,0.7-2.5,1.2c-0.3,0.2-0.5,0.4-0.7,0.6c0-0.1,0-0.1-0.1-0.2c0-0.1-0.1-0.3-0.2-0.4s-0.3-0.2-0.5-0.2
		c-1.2-0.3-1.8-0.4-3.1-0.4v38h44.2l-0.1-3c0,0,1.1,0.8,1.4,2c0.1,0.4,0.2,0.7,0.4,1h8.6c-0.6-2.1-1.9-4.4-1.9-6.5l0,0l0,0v-0.1
		c0-0.2-0.1-0.5-0.2-0.7c-0.1-0.4-0.2-0.8-0.4-1.2c1.1-0.3,2.1-0.6,3.2-0.9c2.1-0.6,4.2-1.2,6.2-1.8c1.1-0.3,2.3-0.6,3.4-1v4.9v7.3
		h74.1v-7.3L200,321.6z"/>
</g>
<g id="Layer_4" class="st0">
	<path class="st3" d="M104.3,295.6c0,0.6-0.1,1.2-0.1,1.7c-0.1,0.8-0.1,1.7,0.2,2.4c0.1,0.3,0.2,0.5,0.3,0.8c0.4,1,0.9,2.1,1.9,2.6
		c0.4,0.2,0.9,0.2,1.4,0.3c0.9,0.1,1.8,0.1,2.7,0.1c0.6,0,1.3,0.1,1.9,0.1c0.2,0,0.7-0.1,0.9-0.2c0.3-0.2,0.4-0.4,0.5-0.6
		c0.1-0.5,0.3-0.4,0.4-0.5s0.5,0,0.4-0.6c0.5-0.2,0.4-0.5,0.3-0.6c0-0.1-0.1-0.2-0.2-0.3c0-0.1,0-0.2,0.3-0.3c0.2,0,0.4-0.2,0.4-0.4
		c0.1-0.3-0.1-0.7-0.2-1c-0.3-0.5-0.7-0.9-0.7-1.4c0-0.3,0.1-0.5,0.2-0.8c0.6-1.7-0.5-4.3-1.8-5.6c-1.3-1.3-3.4-1.7-5.1-1.1
		c-0.7,0.2-1.2,0.6-1.6,1.1C105.4,292.4,104.4,294,104.3,295.6z"/>
	<path class="st3" d="M114,324.8c-0.7-1.1-1-1.7-1.7-2.8c-0.4-0.6-1-1.2-1.2-1.9c-0.2-0.7-0.6-1.3-0.8-1.9c-0.6-1.4-1-2.9-1.2-4.4
		c-0.3-2.3-1.8-4.7-1.6-7c0-0.4,0.1-0.8,0.3-1.1c0.4-0.5,1.2-0.8,1.9-0.8c0.8,0,1.5,0.3,1.9,1c0.9,1.2,1.5,1.5,1.6,2.8
		c0.2,3,1.3,6.3,1.9,9.6c0.2,0.9,0.2,2.1,0.5,3s0.5,1.9,0.3,2.8c-0.1,0.3-0.2,0.7-0.5,0.9C114.9,325.4,114.5,325.4,114,324.8z"/>
	<path class="st3" d="M118.5,307c-0.3,0.6-0.1,1.9-0.4,2.8s-0.9,1.7-1.8,4.4c-0.7,1.9-1.1,3.3-1.3,4.1c-0.5,2-0.8,3.7-1.1,5.7
		c0,0.3-0.1,0.7,0.2,0.9c0.1,0.1,0.5,0.4,0.7,0.5c0.2,0,0.5,0,0.7,0s0.4,0,0.6-0.1s0.3-0.3,0.4-0.4c0.1-0.3,0.2-0.5,0.3-0.8
		c1.9-3.9,3.3-8,3.9-12.3c0.1-0.9,0.3-1.8,0.6-2.6c0.1-0.4,0.2-0.8,0.3-1.2c0.1-0.4,0.2-0.9-0.1-1.2c-0.2-0.2-0.5-0.3-0.8-0.3
		c-0.6-0.1-1.2,0.1-1.7,0.3C118.8,306.7,118.6,306.8,118.5,307z"/>
	<path class="st3" d="M120.1,298.3c-0.2-0.9-0.5-2.2-0.5-2.2c-0.1-0.3-0.4-0.4-0.7-0.3c-0.3,0.1-0.6,0.2-0.5,0.6
		c0,0,0.3,1.3,0.5,2.2c0.2,1-0.8,2.3-0.7,3.2l1.2,5.4c0.2,1.1,1.3,1.7,2.3,1.5c1.1-0.2,1.7-1.3,1.5-2.3L122,301
		C121.9,300.1,120.3,299.2,120.1,298.3z"/>
	<path class="st3" d="M177.3,301.3c-0.5-0.5-1.4-1.4-1.4-1.4c-0.2-0.2-0.4-0.1-0.7,0.1c-0.2,0.2-0.3,0.4-0.1,0.7
		c0,0,0.8,0.8,1.4,1.4s0.5,2,1,2.5l4.1,4c0.6,0.6,1.3,0.2,2-0.5c0.6-0.6,1-1.2,0.4-1.9l-4.1-4C179.3,301.7,177.8,301.8,177.3,301.3z
		"/>
	<path class="st3" d="M165.1,296.5c0,0,0,0.2,0,0.3c-0.1,0.4-0.2,0.5-0.1,0.9c0.1,0.3-0.1,0.8-0.2,1.1c0,0.1-0.1,0.3,0,0.9
		c0,0.6,0.1,1,0.3,1.5c0.1,0.3,0.4,1.1,0.8,1.2c0.9,0.3,1.8,0.8,2.7,0.9s2.1-0.1,2.8-0.7c0.4-0.3,0.4-0.6,0.8-1
		c0.1-0.1,0.3-0.7,0.5-0.9c0.2-0.2,0.2-0.4,0.3-0.7c0.2-0.5,0.2-1,0.3-1.5c0-0.1,0.2-0.2,0.2-0.3c0.1-0.6,0.1-1.2,0-1.8
		c-0.1-0.8-1-1.4-1.5-2.2c-0.2-0.3-1.1-0.6-1.4-0.8c-0.5-0.3-0.8-0.4-1.5-0.4c-0.9,0.2-0.7,0-1.6,0.2c-0.2,0-1.4,0.4-1.6,0.6
		c-0.1,0.1-0.3,0.3-0.3,0.4c-0.1,0.2-0.1,0.4-0.2,0.7C165.3,295.4,165.3,296,165.1,296.5z"/>
	<path class="st3" d="M176.5,317.2c1-0.1,1.8-0.8,2.3-1.7s0.7-1.8,1-2.7c0.2-0.6,0.3-1.3,0.4-1.9c0.1-1.4-0.3-2.9,0.4-4.2
		c0.4-0.2,0.9-0.8,1.1-1.2c-0.1-0.1,0-0.2,0-0.3c0.2-0.3,0.3-0.5,0.5-0.8c0.1-0.3,0.2-0.6,0.1-0.9c-0.1-0.2-0.2-0.3-0.3-0.4
		c-0.4-0.5-0.9-0.9-1.4-1.2c-0.8,0.1-1.5,0.6-2.2,1.2c-0.1,0.1-0.2,0.2-0.2,0.3c0,0.1,0.2,1.2,0.3,1.2c-0.4,1.5-0.9,1.5-1.6,3.1
		c-0.6,1.5-1.2,2.8-1.6,4.5C174.4,315.2,174.2,316.7,176.5,317.2z"/>
	<path class="st3" d="M94.4,306.3c0.3-0.2,0.6-0.3,1-0.3c0.3,0,0.5,0.2,0.5,0.5c0,0.2-0.8,0.4-1.1,0.9c0.3,0,0.6,0,0.9,0.1
		c0.4,0.1,0.9,0.2,1.4,0.2c0.4,0.1,0.8,0.1,1.2,0.4c0.6,0.4,1,1,1.1,1.8c0,0.4,0.2,0.7-0.1,1c-0.3,0.4-0.5,0.2-1,0.1
		c-0.7,0-1.1-0.3-1.9-0.3c-0.4,0-1.4,0.2-1.8,0.2s-1.2,0-1.4,0.4c-0.2,0.3,0.8,1.7,0.7,2.1c-0.1,0.8-0.3,1.6-0.7,2.3
		c-0.2,0.4-2.7-1.9-2.9-2.2c-0.4-0.9-0.5-3.1,0-3.9C91.3,307.9,92.7,307.4,94.4,306.3z"/>
	<path class="st3" d="M115.1,297.8c0.2-0.8,0.2-1.7,0.1-2.5c-0.2-1.3-0.7-2.5-1.5-3.4l-0.1-0.3c-0.1-0.1-0.1-0.2-0.2-0.2
		c-0.2-0.2-0.4-0.6-0.7-0.7c-0.9-0.7-2.1-1-3.4-0.9c-1.7,0-3.3,1.1-4.2,2.5c-0.9,1.4-1.2,3.2-1.1,4.9c0.1,1.5,0.4,3,1.2,4.4
		c0.2,0.4,0.5,0.8,0.9,1.1c0.7,0.5,1.6,0.7,2.5,0.8c0.5,0,1,0.1,1.5,0.1c0.4,0,0.8,0,1.3-0.1c0.4,0.1,0.8,0.1,1.2,0.1
		c0.2,0,0.5,0,0.7-0.2c0.3-0.1,0.5-0.4,0.6-0.6c0.6-0.7,1.2-1.4,1.2-2.3c0-0.6-0.2-1.1-0.2-1.7C114.9,298.5,115,298.2,115.1,297.8z"
		/>
	<path class="st3" d="M108.2,290.1c-0.6-0.4-1.2-0.8-1.8-0.9s-1.4,0-1.8,0.5c-0.2,0.2-0.3,0.4-0.5,0.6c-0.1,0.1-0.3,0.1-0.5,0.2
		c-0.7,0.2-1.2,1.1-0.9,1.9c0.1,0.2,0.2,0.3,0.2,0.5c0,0.1,0,0.3,0,0.4c-0.2,1.1,0.6,2.2,1.6,2.4c1.1,0.2,2.1,0.1,3-0.5
		c0.6-0.4,0.9-1,1.1-1.6s0.2-1.3,0.2-2C108.6,290.9,108.6,290.3,108.2,290.1z"/>
	<path class="st3" d="M121.4,309.1c0.5,0,1.1-0.1,1.6-0.2c0.7-0.2,1.4-0.5,1.6-1.2c0.1-0.5-0.1-1-0.4-1.4s-0.6-0.8-0.7-1.2
		c-0.1-0.3-0.1-0.7-0.4-0.9c-0.2-0.2-0.5-0.2-0.8-0.2c-0.6,0.1-1.2,0.2-1.8,0.5c-0.5,0.2-1,0.4-1.5,0.8s-0.6,1.2-0.5,1.7
		c0.1,0.4,0.3,0.7,0.5,0.9c0.4,0.5,1.1,0.7,1.8,0.9C121,308.9,121.2,309,121.4,309.1z"/>
	<path class="st3" d="M156.9,310.1c0.1-1.8-0.1-3.5,0-5.3c0-0.6,0.4-1.2,0.4-1.8c0-0.3,0.2-0.7,0.2-1c0-0.9-0.4-1.1-0.4-1.1
		c-0.1-1-0.3-1.6-0.9-2.4c-0.2-0.3-0.4-0.5-0.7-0.7s-0.7,0-0.8,0.3c-0.2,0.6,0.6,1,0.6,1.6c0,0.2,0.3,0.6,0.1,0.8
		c0,0-0.1-0.2-0.4-0.1c-0.1,0-0.5,0.2-0.5,0.2l-0.5-0.1c-0.2,0.1-0.2,0.3-0.5,0.3c-0.3,0.1-0.5,0-0.7,0.2s-0.4,0.4-0.4,0.7
		c0,0.3,0.1,0.9,0.2,1.2c0.1,0.6,0.3,0.9,0.6,1.4c0.1,0.2,0.5,0.6,0.5,0.6s0,0.5,0,0.8c0,1-0.3,2.2-0.4,3.3c-0.1,1.1,0.1,2,0,3.1
		C154.7,311.8,155.8,310.9,156.9,310.1z"/>
	<path class="st3" d="M165.5,294.8c-0.9,0-2.7,0.1-3.3,0.4c-0.8,0.4,2.9,1.3,2.9,1.3c0.3,0,0.5,0,0.8,0s0.6,0,0.8-0.1
		c0.1-0.1,0.1-0.1,0.2-0.2c0.1-0.1,0.1-0.2,0.1-0.4c0-0.3-0.2-0.6-0.5-0.8S165.8,294.8,165.5,294.8z"/>
</g>
<g id="Layer_1_00000066503383287579920550000005565889670118515356_">
	<path class="st0" d="M57,369.6V187.5L74.8,202L92,181l0,0l-69.4-56.6v-15.9H3.1l-72.3-58.9l-0.5-0.5l-0.5,0.5L-231.5,181l17.2,21
		l17.8-14.5v182.1h-49.1v227.2H48.1h9h49.1V369.6H57z M-92.9,141.4H-46v46.5v36.9h-46.9v-36.9l0,0V141.4z M-114.2,327.4h-31.7v-54.6
		h31.7V327.4z M-70.4,327.4h-41.5v-54.6h41.5V327.4z M-26.4,327.4h-41.5v-54.6h41.5C-26.4,272.8-26.4,327.4-26.4,327.4z M6.8,327.4
		h-30.9v-54.6H6.8V327.4z"/>
	<g>
		<path d="M153.1,124.5L153.1,124.5L153.1,124.5z"/>
		<path d="M311.8,252l-0.1,0.1L311.8,252h-44.9v-35.1l24,13l12.9-23.9l-71.5-38.7v-46.7h-33.8V149l-45.4-24.5L2.4,206l12.9,23.9
			l24-13v61.5l-39.4,0.1v319l50.1-0.6h289.1h6.9l0,0l0,0h5.2V289.2v-2.7L311.8,252z M105.6,278.2H73.8v-65.5h31.8V278.2z
			 M150.9,278.2h-42.5v-65.5h42.5V278.2z M196,278.2h-42.5v-65.5H196L196,278.2L196,278.2z M230.7,248.2v5.3v24.6h-31.9v-65.5h11.6
			h4h16.2v35.6L230.7,248.2L230.7,248.2z M272.8,295.4h-6v-31.3h6V295.4z M282.3,295.4h-7.2v-31.3h7.2V295.4z M291.8,295.4h-7.2
			v-31.3h7.2V295.4z M301.3,308.1h-2.1v-12.7h-5.1v-31.3h7.2V308.1z M310.7,308.1h-7.2v-44h3.6l3.5,3.1v40.9H310.7z M320.2,308.1
			H313v-38.9l7.2,6.3V308.1z M329.7,319.6h-4v-11.5h-3.2v-30.6l7.2,6.3V319.6z M339.1,319.6H332v-33.9l7.2,6.3v27.6H339.1z"/>
	</g>
</g>
</svg>
