<?xml version="1.0" encoding="utf-8"?>
<!-- Generator: Adobe Illustrator 27.0.0, SVG Export Plug-In . SVG Version: 6.00 Build 0)  -->
<svg version="1.1" xmlns="http://www.w3.org/2000/svg" xmlns:xlink="http://www.w3.org/1999/xlink" x="0px" y="0px"
	 viewBox="0 0 420 600" style="enable-background:new 0 0 420 600;" xml:space="preserve">
<style type="text/css">
	.st0{display:none;}
	.st1{display:inline;fill:#FFA92C;}
	.st2{display:inline;fill:#FFC52C;}
	.st3{display:inline;fill:#FFFB00;}
	.st4{display:inline;fill:#000001;}
	.st5{display:inline;}
	.st6{fill:#000001;}
	.st7{display:inline;fill:none;stroke:#000001;stroke-miterlimit:10;}
	.st8{display:inline;fill:none;stroke:#000000;stroke-miterlimit:10;}
	.st9{display:inline;fill:none;stroke:#000000;stroke-width:2;stroke-miterlimit:10;}
	.st10{display:inline;fill:none;stroke:#000001;stroke-width:0.25;stroke-miterlimit:10;}
	.st11{fill:none;stroke:#000000;stroke-width:2;stroke-miterlimit:10;}
	.st12{fill:none;}
</style>
<g id="Layer_3" class="st0">
	<rect x="108" y="259.2" class="st1" width="210" height="130"/>
</g>
<g id="Layer_2" class="st0">
	<path class="st4" d="M165.9,363.5l-14.3-1.3v-2.2c3-1.2,5-2,5.3-2.1c1.8-0.8,1.8-1.2,1.8-3.4c0-1.5,0-24.3,0-26.5
		c0-1.7-0.8-2-2-1.9l-35.9,3.4c0,0-2.9,0.4-2.9,2.8s0,32.4,0,34.4c0,1.7,0.5,4.2,2.8,4.4l-12.7,4.6v13.5h33.4l25.1-18.1v-6.9
		C166.6,363.9,166.3,363.6,165.9,363.5z"/>
	<path class="st1" d="M123.8,333v34.2c0,0.3,0.3,0.6,0.7,0.5l32-11.3c0.2-0.1,0.3-0.3,0.3-0.5v-27.3c0-0.3-0.3-0.5-0.6-0.5l-32,4.3
		C124,332.5,123.8,332.7,123.8,333z"/>
	<g class="st5">
		<path class="st6" d="M201.9,286v-26.8h-1V286c-3.8,0.3-6.8,3.4-6.8,7.3c0,4,3.3,7.3,7.3,7.3s7.3-3.3,7.3-7.3
			C208.7,289.4,205.7,286.2,201.9,286z"/>
		<path class="st6" d="M216.5,297v-37.8h-1V297c-3.8,0.3-6.8,3.4-6.8,7.3c0,4,3.3,7.3,7.3,7.3s7.3-3.3,7.3-7.3
			C223.3,300.4,220.3,297.2,216.5,297z"/>
		<path class="st6" d="M230.8,279.8v-20.6h-1v20.6c-3.8,0.3-6.8,3.4-6.8,7.3c0,4,3.3,7.3,7.3,7.3s7.3-3.3,7.3-7.3
			C237.6,283.2,234.6,280.1,230.8,279.8z"/>
	</g>
	<path class="st5" d="M318,350.8c0,0-9.3-2.1-19.1-4.2c0-0.1,0-0.1,0-0.2c0-0.2,0-0.8,0-1c-0.3-2.8-1.6-3.2-1.3-4.7
		c0.2-1,0.3-2-0.1-2.9c0-0.1-0.1-0.2-0.1-0.3c0-0.1,0.1-0.1,0.1-0.2c0.3-0.4,0.1-1,0-1.6c-0.3-1.1-0.5-2.2-0.5-3.4
		c0-0.4,0-0.9-0.2-1.3c-0.1-0.3-0.3-0.6-0.5-0.9c-0.5-0.9-0.8-2-1.1-3c-0.1-0.2-0.1-0.4-0.3-0.6c-0.2-0.3-0.5-0.5-0.8-0.7
		c-0.3-0.3-0.4-0.7-0.7-1c-0.5-0.4-1.3-0.4-1.8-0.8c-0.1-0.1-0.2-0.2-0.4-0.3c-0.2-0.1-0.4-0.1-0.6-0.1c-0.5-0.1-0.9-0.1-1.4-0.2
		c-0.4,0-0.8-0.1-1.1,0c-0.3,0.1-0.6,0.3-0.9,0.4c-1,0.5-2.2,0.5-3,1.2c-0.5,0.4-0.9,1.1-1.2,1.7c-0.1,0.1-0.1,0.4-0.1,0.6
		c-0.3,0.5-0.3,0.8-0.5,1.4c-0.1,0.2,0.2,1,0,1.2c-0.2,0.4-0.3,0.5-0.4,1c-0.1,0.9-0.1,2,0.1,2.9c0.2,0.6,0,1.2,0.3,1.8
		c0.1,0.4,0.3,0.7,0.6,0.9c-1.3,0.5-2.9,1.2-4.3,1.7l-8,0.3c-0.1,0.1-0.8,0.3-1,0.4c-0.4,0.1-0.8,0.3-1.1,0.4
		c-6-1.4-11.7-2.2-18.6-3.2c-1.1-0.2-2.8-0.3-3.9-0.3c-0.2,0-0.4,0-0.6,0.1c-0.3-0.4-0.6-0.6-0.7-0.7c-0.6-1-1.2-1-1.5-2
		c-0.1-0.2-0.2-0.5-0.2-0.7c0-0.1,0.2-0.3,0.2-0.4c0.2-0.5,0.4-1,0.4-1.6c0-1-0.1-1.9-0.2-2.7c0,0-0.2-0.3-0.2-0.4
		c0-0.3-0.1-0.5-0.2-0.7c-0.4-0.6-0.6-0.7-1.3-1.4c-0.8-0.5-1-0.9-1.9-1.3c-0.3-0.2-1.6-0.5-1.9-0.4c-1.2,0.3-1.9,0.2-3,0.7
		c-0.1,0.1-0.3,0.2-0.4,0.3c-1,0.4-1.1,0.8-1.3,1.4c0,0.2,0,0.4-0.1,0.5c-0.4,0.7-0.5,1.8-0.8,2.5c-0.1,0.2-0.2,0.6-0.1,0.7
		c0.3,0.6,0,1-0.3,1.4c-0.5,0.7-0.5,0.9,0.3,1.4c0.1,0.1,0.2,0.1,0.2,0.2c0,0.7,0.5,1,0.5,1.8c0,0.4,0.3,0.7,0.7,0.8
		c0.6,0.2,1.2,0,1.8,0.2c0.3,0.1,0.4,0.5,0.3,0.8c-0.1,0.5-0.8,0.5-1,0.8c-0.8,1-1.8,1.8-2.5,2.9c-0.9,1.5-2,3-3.6,3.7
		c-0.8,0.4-1.4,1.2-2.2,1.6c-0.9,0.5-1.8,1.1-2.2,2c-0.2,0.6-0.2,1.2-0.2,1.8c0,0.4,0,0.8,0.2,1.1c0.1,0.2,0.3,0.3,0.6,0.4
		c0.3,0.2,0.7,0.3,1.1,0.4c-0.3,0.3-0.5,0.7-0.7,1c-2.8,0.1-5.3,0.2-7.3,0.3c-0.8,0.1-1.6,0.1-2.2,0.5c-0.8,0.4-1.2,1.2-1.4,2
		c-0.2,0-0.3,0-0.5,0c-3.3-0.1-6.5,0.2-9.7,1.1c-1,0.3-2,0.4-3.1,0.6c-0.4,0.1-0.9,0.1-1.2,0.5c-0.1,0.1-0.3,0.1-0.5,0.1
		c-2,0-3.9,0.1-5.9-0.2c-1.4-0.2-2.7-0.8-3.9-1.5c-0.3-0.2-0.5-0.5-0.6-0.8c-0.7-1.7-1.6-3.2-2.7-4.6c-0.5-0.7-1.1-1-2-0.9
		c-0.8,0.1-1.4,0.7-1.6,1.5c-0.2,0.6-0.2,1.3-0.2,2c0,0.4-0.1,0.6-0.6,0.7c-1.1,0.2-1.2,0.4-1,1.6c0.3,1.5,0.7,2.9,1.2,4.2
		c-0.6,0-1.2,0-1.9,0.1c-0.7,0-1.5,0-2.1,0.4c-0.6,0.3-1.1,1.1-1.1,1.8c0,1.6,0,2.9,0,4.3v11.5c0,2.7,2.1,4.9,6.1,4.9
		c12.4,0,30.8-0.1,43.3-0.1c1.8,0,2.7,0,3.8,0.4c1.1,0.3,1.8,0.6,3,1.5c2.6,1.8,4.5,3.1,6.9,4.9c0.1,0,2.8,0,2.9,0l74.5,0.1
		L318,350.8z"/>
</g>
<g id="Layer_4" class="st0">
	<path class="st5" d="M271.1,338.6c-0.1,0.1-0.8,0.3-1,0.4c-1.9,0.6-3.7,1.5-5.2,2.8c-0.8,0.6-1.4,1.6-2,2.3c-0.3,0.4-0.6,0.7-0.9,1
		c-0.3,0.3-0.6,0.5-0.9,0.8c-0.8,0.7-1.5,1.5-2.1,2.3c-0.8,1-1.5,2.1-1.6,3.3c-0.1,1.1,0.4,2.2,0.9,3.3c0.3,0,0.5,0.2,0.8,0.2
		l37.4-2.6c1.3-1.7,3.3-2.4,2.6-5.3c-0.1-0.2-0.1-0.4-0.1-0.7c0-0.2,0-0.8,0-1c-0.3-2.8-1.6-3.2-1.3-4.7c0.2-1,0.3-2-0.1-2.9
		c0-0.1-0.1-0.2-0.1-0.3c0-0.1,0.1-0.1,0.1-0.2c0.3-0.4,0.1-1,0-1.6c-0.3-1.1-0.5-2.2-0.5-3.4c0-0.4,0-0.9-0.2-1.3
		c-0.1-0.3-0.3-0.6-0.5-0.9c-0.5-0.9-0.8-2-1.1-3c-0.1-0.2-0.1-0.4-0.3-0.6c-0.2-0.3-0.5-0.5-0.8-0.7c-0.3-0.3-0.4-0.7-0.7-1
		c-0.5-0.4-1.3-0.4-1.8-0.8c-0.1-0.1-0.2-0.2-0.4-0.3c-0.2-0.1-0.4-0.1-0.6-0.1c-0.5-0.1-0.9-0.1-1.4-0.2c-0.4,0-0.8-0.1-1.1,0
		c-0.3,0.1-0.6,0.3-0.9,0.4c-1,0.5-2.2,0.5-3,1.2c-0.5,0.4-0.9,1.1-1.2,1.7c-0.1,0.1-0.1,0.4-0.1,0.6c-0.3,0.5-0.3,0.8-0.5,1.4
		c-0.1,0.2,0.2,1,0,1.2c-0.2,0.4-0.3,0.5-0.4,1c-0.1,0.9-0.1,2,0.1,2.9c0.2,0.6,0,1.2,0.3,1.8c0.1,0.4,0.3,0.7,0.6,0.9
		c-1.3,0.5-2.9,1.2-4.3,1.7L271.1,338.6z"/>
	<path class="st5" d="M281.7,333.1c0,0.9,0,1.3-0.1,2.2s-0.5,1.7-1,2.4c-0.4,0.5-0.9,0.8-1.5,1.1c-0.1,0.1-0.2,0.1-0.3,0.2
		c-0.1,0.1,0.3,0.4,0.1,0.4c-0.6,0.3-2.4,0.3-4.5,0.2c-2.1-0.1-2.2-0.6-3.6-1c-0.1-0.2-0.6-0.1-0.7-0.3c-0.1-0.2-0.1-0.5-0.1-0.7
		c0-0.3-0.1-0.2-0.2-0.5c-0.1-0.3,0.1-0.5,0.2-0.6c0-0.1-0.1-0.1-0.1-0.4s0.3-0.4,0.3-0.6c0-0.3-0.6-0.5-0.4-0.9
		c0.3-0.5,0.8-0.7,0.8-1c0-0.3-0.3-0.9-0.2-1.4c0.1-0.4,0.2-0.4,0.3-0.8c0.1-0.4,0.1-1,0.7-1.7c0.4-0.4,0.6-0.8,1-1.1
		c0.7-0.7,1.9-0.7,2.9-0.6c1,0,1.5-0.1,2.4,0.1c0.5,0.1,1.1,0.3,1.6,0.5c0.8,0.4,1.5,1.1,1.8,1.9S281.6,332.2,281.7,333.1z"/>
	<path class="st5" d="M265.4,344.2c-0.5-1.1-0.1-7.1-1.1-7.9c-1-0.9-1.8-2-2.4-3.3c-0.1-0.2-0.3-0.5-0.1-0.7
		c0.3-0.3,0.6-0.1,0.8,0.1c0.6,0.6,1.4,0.7,2.3,0.6c-0.1-0.2-0.1-0.4-0.2-0.5c-0.3-0.4-0.5-0.9,0.1-1.2c0.6-0.3,0.8,0.2,1,0.6
		c0.3,0.5,0.7,1.1,1.1,1.6c0.5,0.5,0.7,0.9,0.7,1.7c-0.1,1.3,0.2,9.5,1.5,9.1L265.4,344.2z"/>
	<path class="st5" d="M290.2,343.7c-0.4,1.3-0.8,2.6-1.3,3.9c-1.6,4-2.5,8.1-2.2,12.4c0.1,1.8,0.4,2,2.2,2c1.7,0,3.3-1,5-0.5
		c0.3,0.1,0.5-0.2,0.6-0.4c0.2-0.3,0.3-0.8,0.3-0.8c1.2-0.9,3.6-1.2,4.9-1.7c1.4-0.6,3.3-1.4,4.7-1.5c0,0,1.5,0.4,2.6,0.4
		c1.8-0.2,3.3-1,4.7-2.3c0.2-0.2,0.4-0.4,0.5-0.6c0.3-0.4,0-0.8,0.2-1.2c0.2-0.4,0.2-0.9,0-1c-0.2-0.1-0.6,0.2-0.7,0.3
		c-0.7,0.3-1.3,0.9-2,1.2c-0.7,0.2-1.6,0.1-2.3,0c-0.4,0-0.8-0.2-0.9-0.6c0-0.3,0.2-0.5,0.4-0.7c0.4-0.4,0.8-0.7,1.2-1.1
		c0.2-0.2,0.4-0.3,0.4-0.6c0.1-0.2,0.1-0.8-0.2-0.8c-0.1,0-0.4,0.3-0.5,0.4c-0.6,0.4-1.6,1.3-2.2,1.7c0,0-1.4,1-2.7,1.6
		c-1.3,0.8-2.6,1.2-4.1,1.5c-1.6,0.2-3.2,0.5-4.8,0.4c-1.9-0.1-2.1-0.5-1.1-2.1c0.9-1.5,1.2-3.2,2.5-4.5c0.8-0.8,1.6-1.5,2.4-2.3
		c1-0.9,1.3-2.2,1.2-3.5c-0.1-1.3-0.8-2.6-1.8-3.4c-0.2-0.2-0.5-0.3-0.7-0.4c-0.3-0.1-0.6,0-0.9,0.1c-1.3,0.3-2.6,0.9-3.6,1.8
		C291.1,342,290.5,342.7,290.2,343.7z"/>
	<path class="st5" d="M274.2,329.6c1.4-0.1,2.8,0.2,4,1c0.3,0.2,0.7,0.5,0.9,0.9c0.1,0.3,0.2,0.5,0.3,0.8c0.3,1.5,0,3-0.7,4.3
		c-0.5,1-1.3,1.8-2.3,2.3c-1.4,0.7-3.1,0.4-4.5-0.2c-0.3-0.1-0.5-0.3-0.7-0.5c-0.1-0.2-0.2-0.4-0.2-0.6c-0.2-1-0.4-2.2,0.1-3.1
		c0.1-0.2,0.3-0.5,0.4-0.7c0.1-0.2,0-0.4,0-0.6c0-1.1,0.3-2.3,1.1-3.1C273.1,329.6,273.7,329.6,274.2,329.6z"/>
	<path class="st5" d="M280.3,331.6c0.8,0.1,1.3-0.5,1.8-1.1c0.6-0.6,0.8-1.5,0.6-2.3c-0.1-0.3-0.2-0.5-0.4-0.6c-0.1,0-0.2,0-0.3-0.1
		c-0.1-0.1-0.2-0.3-0.2-0.4c-0.2-0.5-0.9-0.6-1.4-0.6c-0.8,0-1.8,0-2.2,0.7c-0.4,0.1-0.5,0.6-0.6,1c-0.1,0.7-0.2,1.5,0.1,2.1
		c0.2,0.5,0.7,0.8,1.2,1S279.8,331.5,280.3,331.6z"/>
	<path class="st5" d="M226.3,351.4c-2.2-0.9-4.3-1.8-6.2-3.1c-0.7-0.5-1.5-1-2.2-1.4c-0.4-0.2-0.6-0.4-0.4-0.8
		c0-0.1,0.1-0.3,0.1-0.4c0.1-1.6,0.5-1.5-1.4-1.4c-0.7,0.1-1.4-0.1-2-0.6c-0.4-0.4-0.9-1-1.6-0.9c-0.6,0.1-0.9-0.2-1-0.8
		c-0.1-0.5-0.4-0.6-0.8-0.7c-0.7-0.1-1.3-0.3-1.9-0.4c-0.4-0.1-0.6-0.4-0.5-0.8c0.1-0.8,0.5-1.1,1.5-0.7c1.1,0.4,2.2,0.5,3.3,0.7
		c0.2,0,0.4,0.1,0.5-0.2c0.2-0.4,0.5-0.3,0.9-0.1c1.1,0.7,2.3,0.9,3.6,1.2c0.9,0.2,1,0.3,0.8,1.2c0,0.2-0.2,0.5,0.2,0.5
		c0.6,0,1,0.4,1.5,0.6c1.5,0.7,2.9,1.5,4.4,2.1c0.6,0.2,1.5,0.3,2.2,0.8c0.7,0,1.4,0.1,2,0.4c0.7,0.3,1.3,0.9,1.6,1.6
		c0.1,0.3,0.1,0.7,0.1,1.1c0,0.4,0,0.9-0.2,1.2c-0.4,0.6-1.1,0.9-1.8,1C228,351.7,227.1,351.8,226.3,351.4z"/>
	<path class="st5" d="M229.4,342.8c-0.2-0.3-0.4-0.7-0.5-1c-0.1-0.3-0.2-0.6-0.2-0.7c0-0.2,0,0.2-0.2,0.1c-0.5-0.1-1-0.2-1.6-0.6
		c-0.7-0.3-1.1-0.6-1.6-1c-0.4-0.3-0.5-0.6-0.2-1.1c0.6-1.2,1.2-2.3,1.7-3.5c0.3-0.6,0.6-0.7,1.2-0.5c1.3,0.5,2.3,0.8,3.2,2.1
		c0.2,0.3,0,0.5,0,0.7c0,0.2,0.2,0.2,0.2,0.3c0.4,0.6,0.7,1,0.5,1.7c-0.1,0.2-0.1,0.4-0.1,0.6c0,0.3,0,1.2,0.1,1.6
		c0.2,0.6,0.3,1.2,0.4,1.8c0.1,0.4,0.1,0.8,0.1,1.2c-0.1,0.4-0.2,0.8-0.5,1c-0.3,0.3-0.8,0.4-1.2,0.2s-0.7-0.5-0.8-0.9
		c0-0.2-0.1-0.4-0.1-0.5C229.9,343.8,229.7,343.2,229.4,342.8z"/>
</g>
<g id="Layer_1">
	<path class="st0" d="M590.8,184.1l-10.2-5.5V133h1v-9.2h-42.5v9.2h1v23.8l-67-36.1l0,0l-0.1-0.2l-110.3,74.1l18.2,27l5-3.4l4.8-3.4
		v385.2h200.1V184.1z M477.9,196.6c10.5,0,19.1,8.5,19.1,19.1c0,10.5-8.5,19.1-19.1,19.1c-10.5,0-19.1-8.5-19.1-19.1
		C458.9,205.2,467.4,196.6,477.9,196.6z M467.2,381.4h-34v-81.7h34V381.4z M503.5,381.4h-34v-81.7h34V381.4z M539.9,381.4h-34v-81.7
		h34V381.4z"/>
	<path d="M383.3,440.7v-171l18.9,6.1l8-31.3l-194.9-64.2l0,0l-84.5,27.7v-8.9H68.4v29.5l-56.1,18.4l7.5,29.8l18.9-6.1v171H0V601
		l420-1V440.7H383.3z M263.6,275.3c29.8,11,43.1,29.5,46.2,34.3h-46.2V275.3z M169,379.8h-53.3v-65.1c0-0.1,0-0.2,0-0.3H169V379.8z
		 M169,309.6h-52.9c3.3-5.2,18.4-26.1,52.9-36.6V309.6z M258.8,379.8h-85.1v-65.4h85.1V379.8z M258.8,309.6h-85.1v-37.9
		c11.1-2.9,24.1-4.8,39.1-4.8c18.2,0,33.4,2.7,45.9,6.7V309.6z M310.5,379.8h-46.9v-65.4h46.9V379.8z"/>
</g>
</svg>
