<?xml version="1.0" encoding="utf-8"?>
<svg version="1.1" id="Layer_1" xmlns="http://www.w3.org/2000/svg" xmlns:xlink="http://www.w3.org/1999/xlink" x="0px" y="0px"
	 viewBox="0 0 588.5 600" style="enable-background:new 0 0 588.5 600;" xml:space="preserve">
<style type="text/css">
	.st5{fill:#000000;}
</style>
<g>
	<path class="st5" d="M291.1,373.8V191.7l17.8,14.5l17.2-21l0,0l-69.4-56.6v-15.9h-19.5l-72.3-58.9l-0.5-0.5l-0.5,0.5L2.6,185.2l17.2,21
		l17.8-14.5v182.1h-49.1V601h293.6h9h297.4V373.8H291.1z M141.2,145.6h46.9v46.5V229h-46.9v-36.9l0,0L141.2,145.6L141.2,145.6z
		 M111,337.1h-38v-65.5h38C111,271.5,111,337.1,111,337.1z M163.5,337.1h-49.8v-65.5h49.8V337.1z M216.3,337.1h-49.8v-65.5h49.8
		V337.1z M256.2,337.1h-37.1v-65.5h37.1V337.1z"/>
</g>
</svg>
