<?xml version="1.0" encoding="utf-8"?>
<!-- Generator: Adobe Illustrator 27.0.0, SVG Export Plug-In . SVG Version: 6.00 Build 0)  -->
<svg version="1.1" xmlns="http://www.w3.org/2000/svg" xmlns:xlink="http://www.w3.org/1999/xlink" x="0px" y="0px"
	 viewBox="0 0 1500 400" style="enable-background:new 0 0 1500 400;" xml:space="preserve">
<style type="text/css">
	.st0{fill:#FFA92C;}
	.st1{fill:#FFFB00;}
	.st2{fill:#FFFB96;}
	.st3{fill:#FFC52C;}
</style>
<g id="Layer_2">
	<rect x="22.3" y="95.2" class="st0" width="26.6" height="32.3"/>
	<rect x="81.6" y="95.2" class="st0" width="26.6" height="32.3"/>
	<rect x="81.6" y="169.4" class="st1" width="26.6" height="32.3"/>
	<rect x="52" y="97.9" class="st2" width="26.6" height="32.3"/>
	<rect x="23.9" y="129.8" class="st1" width="26.6" height="32.3"/>
	<rect x="44.8" y="55.9" class="st1" width="41.1" height="32.3"/>
	<rect x="23.9" y="164.9" class="st2" width="26.6" height="32.3"/>
	<rect x="54.9" y="132.3" class="st3" width="53.2" height="32.3"/>
	<rect x="131.3" y="161.9" class="st3" width="53.2" height="32.3"/>
	<rect x="131.3" y="126.4" class="st2" width="53.2" height="32.3"/>
	<rect x="175.7" y="126.4" class="st0" width="53.2" height="32.3"/>
	<rect x="266.5" y="128.3" class="st0" width="75.5" height="32.3"/>
	<rect x="447.7" y="127.8" class="st3" width="41.1" height="32.3"/>
	<rect x="386.3" y="127.8" class="st1" width="41.1" height="32.3"/>
	<rect x="343.4" y="127.8" class="st2" width="41.1" height="32.3"/>
	<rect x="263.4" y="159.3" class="st2" width="41.1" height="32.3"/>
	<rect x="383.3" y="159.3" class="st1" width="41.1" height="32.3"/>
	<rect x="575.6" y="132" class="st3" width="50.1" height="32.3"/>
	<rect x="525.1" y="132" class="st1" width="50.1" height="32.3"/>
	<rect x="525.1" y="98.2" class="st0" width="50.1" height="32.3"/>
	<rect x="625.7" y="133.5" class="st0" width="50.1" height="32.3"/>
	<rect x="529.1" y="167.3" class="st3" width="50.1" height="32.3"/>
	<rect x="579.2" y="101.1" class="st2" width="45.9" height="32.3"/>
	<rect x="625.6" y="101.1" class="st1" width="45.9" height="32.3"/>
	<rect x="747.9" y="136.7" class="st0" width="27.2" height="32.3"/>
	<rect x="747.9" y="166.8" class="st2" width="27.2" height="32.3"/>
	<rect x="711.4" y="136.7" class="st1" width="27.2" height="32.3"/>
	<rect x="674.3" y="136.7" class="st3" width="27.2" height="58.1"/>
	<rect x="858.6" y="136.7" class="st0" width="27.2" height="32.3"/>
	<rect x="800.9" y="134.7" class="st3" width="27.2" height="32.3"/>
	<rect x="830.7" y="134.7" class="st2" width="27.2" height="32.3"/>
	<rect x="890.8" y="134.7" class="st2" width="27.2" height="32.3"/>
	<rect x="982.6" y="173.6" class="st0" width="27.2" height="32.3"/>
	<rect x="1019.4" y="141" class="st3" width="27.2" height="32.3"/>
	<rect x="982.5" y="141" class="st1" width="27.2" height="32.3"/>
	<rect x="920.6" y="133.5" class="st1" width="27.2" height="32.3"/>
	<rect x="1055.9" y="144" class="st2" width="27.2" height="61.9"/>
	<rect x="1141.6" y="159.3" class="st0" width="27.2" height="32.3"/>
	<rect x="1174" y="159.3" class="st1" width="27.2" height="32.3"/>
	<rect x="1109.5" y="159.3" class="st3" width="27.2" height="32.3"/>
	<rect x="1319.3" y="130.7" class="st0" width="27.2" height="32.3"/>
	<rect x="1423.5" y="165" class="st2" width="27.2" height="32.3"/>
	<rect x="1450.7" y="165" class="st3" width="27.2" height="32.3"/>
	<rect x="1281.6" y="131.7" class="st1" width="27.2" height="32.3"/>
	<rect x="1390.8" y="147.6" class="st0" width="32.7" height="32.3"/>
	<rect x="1355.4" y="131.7" class="st3" width="32.7" height="32.3"/>
	<rect x="1241.1" y="169.7" class="st0" width="32.7" height="32.3"/>
	<rect x="1241.1" y="130.7" class="st2" width="32.7" height="32.3"/>
	<rect x="1321.7" y="174.9" class="st1" width="63.7" height="25.1"/>
	<rect x="1012.8" y="96.9" class="st0" width="43.6" height="23.8"/>
	<rect x="803.5" y="167.3" class="st1" width="36.6" height="32.3"/>
	<rect x="909" y="167.3" class="st0" width="36.6" height="32.3"/>
</g>
<g id="Layer_1">
	<rect x="0.1" y="200" width="1500" height="200"/>
	<g>
		<path d="M1094.1,131.8c0,2.1-2.1,3.7-4.8,3.7H976.4c-2.6,0-4.8-1.7-4.8-3.7c0-0.9,0-2.8,0-3.7c0-2.1,2.1-3.7,4.8-3.7h112.9
			c2.6,0,4.8,1.7,4.8,3.7C1094.1,129,1094.1,130.9,1094.1,131.8z"/>
		<rect x="994.3" y="146.8" width="3.7" height="15.1"/>
		<rect x="985.4" y="153.3" width="21.4" height="2"/>
		<path d="M1074.4,108.5l-37.1-37.1c-0.7-0.7-1.7-1.1-2.7-1.1c-1,0-2,0.3-2.7,1.1l-37.1,37.1c-1.5,1.5-1.5,3.8,0,5.3
			c1.5,1.5,3.8,1.5,5.3,0l17.3-17.3l17.2,0.9l19.3,1.2l15.2,15.2c1.5,1.5,3.8,1.5,5.3,0C1075.9,112.3,1075.9,109.9,1074.4,108.5z"/>
		<g>
			<rect x="1031" y="146.8" width="3.7" height="15.1"/>
			<rect x="1022.1" y="153.3" width="21.4" height="2"/>
		</g>
		<g>
			<rect x="1067.6" y="146.8" width="3.7" height="15.1"/>
			<rect x="1058.7" y="153.3" width="21.4" height="2"/>
		</g>
		<g>
			<rect x="994.3" y="181.2" width="3.7" height="15.1"/>
			<rect x="985.4" y="187.7" width="21.4" height="2"/>
		</g>
		<g>
			<path d="M976.1,124.1v83.5h113.4v-83.5H976.1z M985.4,146.8h21.4v15.1h-21.4V146.8z M1006.8,196.2h-21.4v-15.1h21.4V196.2z
				 M1043.4,161.9H1022v-15.1h21.4V161.9z M1058.7,146.8h21.4v15.1h-21.4V146.8z M1080.1,196.2h-21.4v-15.1h21.4V196.2z"/>
			<rect x="1067.7" y="181.2" width="3.7" height="15.1"/>
			<rect x="1058.8" y="187.7" width="21.4" height="2"/>
		</g>
		<polygon points="1032.9,167.4 1013.6,180.2 1052.3,180.2 		"/>
		<path d="M1081.6,89.5h-94.4l-14,35.8h119.5L1081.6,89.5z M1032.8,114.6h-15.4V103h15.4V114.6z M1051.8,114.6h-15.4V103h15.4V114.6
			z"/>
		<g>
			<path d="M1209.7,155.2c0,1.1-1.5,2-3.3,2h-103.6c-1.8,0-3.3-0.9-3.3-2c0-0.5,0-1.5,0-2c0-1.1,1.5-2,3.3-2h103.6
				c1.8,0,3.3,0.9,3.3,2C1209.7,153.7,1209.7,154.7,1209.7,155.2z"/>
			<polygon points="1099.6,153.2 1209.8,153.2 1203.9,134.8 1105.7,134.8 			"/>
		</g>
	</g>
	<g>
		<polygon points="70.2,32.5 66.2,27.8 12.9,90 16.9,94.7 		"/>
		<polygon points="119.5,90 115.4,94.7 62.1,32.5 66.2,27.8 		"/>
		<polygon points="122.6,86.3 118.3,91.3 61.9,25.5 66.2,20.5 		"/>
		<rect x="95" y="100.9" width="1.6" height="20.7"/>
		<rect x="65.3" y="100.9" width="1.6" height="20.7"/>
		<rect x="35.6" y="100.9" width="1.6" height="20.7"/>
		<rect x="95" y="135.6" width="1.6" height="20.7"/>
		<rect x="65.3" y="135.6" width="1.6" height="20.7"/>
		<rect x="35.6" y="135.6" width="1.6" height="20.7"/>
		<rect x="94.9" y="173.4" width="1.3" height="17.2"/>
		<rect x="36" y="173.4" width="1.3" height="17.2"/>
		<polygon points="70.4,25.5 66.2,20.5 9.8,86.3 14.1,91.3 		"/>
		<path d="M114.2,93v-3.7h-3.1L66.2,36.7L21.2,89.3h-3.4v118.3h96.4V93.2h0.1L114.2,93z M43.4,190.6H30v-17.2h13.4V190.6z
			 M44.4,156.3h-16v-20.7h16V156.3z M44.4,121.6h-16v-20.7h16V121.6z M74.1,156.3h-16v-20.7h16V156.3z M74.1,121.6h-16v-20.7h16
			V121.6z M80.6,81.7H51.8V65.9h28.8V81.7z M102.2,190.6H88.8v-17.2h13.4V190.6z M103.8,156.3h-16v-20.7h16V156.3z M103.8,121.6h-16
			v-20.7h16V121.6z"/>
	</g>
	<g>
		<rect x="144.9" y="137.1" width="25.9" height="2.6"/>
		<rect x="144.9" y="175.5" width="25.9" height="2.6"/>
		<path d="M124.8,111.3v96.3h112.5v-96.3H124.8z M170.5,189.8h-25.5v-21.2h25.5V189.8z M170.5,151.4h-25.5v-21.2h25.5V151.4z
			 M215,151.4h-25.5v-21.2H215V151.4z"/>
		<rect x="189.4" y="137.1" width="25.9" height="2.6"/>
		<polygon points="245.4,116.9 116.7,116.9 137.2,74.9 225.9,74.9 		"/>
		<rect x="199.2" y="66.9" width="12.9" height="19.6"/>
	</g>
	<g>
		<rect x="548.9" y="170.4" width="2.5" height="25.1"/>
		<polygon points="517.9,92.3 682.6,92.3 660.4,52.4 539.3,52.4 		"/>
		<rect x="592.7" y="101.8" width="2.5" height="25.1"/>
		<rect x="606.8" y="101.8" width="2.5" height="25.1"/>
		<rect x="542" y="101.8" width="2.5" height="25.1"/>
		<rect x="556" y="101.8" width="2.5" height="25.1"/>
		<rect x="542" y="135.3" width="2.5" height="25.1"/>
		<rect x="556" y="135.3" width="2.5" height="25.1"/>
		<rect x="592.7" y="135.3" width="2.5" height="25.1"/>
		<rect x="606.8" y="135.3" width="2.5" height="25.1"/>
		<rect x="642" y="135.3" width="2.5" height="25.1"/>
		<rect x="656.1" y="135.3" width="2.5" height="25.1"/>
		<path d="M521.3,88.8v118.8h158.3V88.8H521.3z M561,194.9h-21.6v-23.8H561V194.9z M566.5,157.1h-33.3v-18.5h33.3V157.1z
			 M566.5,123.6h-33.3v-18.5h33.3V123.6z M617.3,157.1H584v-18.5h33.3V157.1z M617.3,123.6H584v-18.5h33.3V123.6z M666.6,157.1
			h-33.3v-18.5h33.3V157.1z M666.6,123.9h-33.3v-18.5h33.3V123.9z"/>
		<rect x="642" y="102.1" width="2.5" height="25.1"/>
		<rect x="656.1" y="102.1" width="2.5" height="25.1"/>
	</g>
	<g>
		<rect x="678.7" y="146.3" width="18.5" height="2.3"/>
		<rect x="751.9" y="146.3" width="18.5" height="2.3"/>
		<rect x="678.7" y="178.8" width="18.5" height="2.3"/>
		<g>
			<path d="M666.6,124.7v83H783v-83H666.6z M696,190.5h-16.3v-16.9H696V190.5z M696,158.1h-16.3v-16.9H696V158.1z M736.9,157.1H713
				v-14.8h23.8V157.1z M769.3,190.5h-16.3v-16.9h16.3V190.5z M769.3,158.1h-16.3v-16.9h16.3V158.1z"/>
			<rect x="751.9" y="178.8" width="18.5" height="2.3"/>
		</g>
		<polygon points="664.1,125.2 785.2,125.2 749.9,97.4 699.7,97.4 		"/>
	</g>
	<g>
		<polygon points="1385.5,155.5 1485.4,155.5 1482.2,119.3 1388.6,119.3 		"/>
		<rect x="1465.7" y="111.1" width="9.3" height="14.1"/>
		<polygon points="1427.8,107.1 1408.4,119.9 1447.2,119.9 		"/>
		<path d="M1387.5,154.6v53h95.1v-53H1387.5z M1418.5,172.1h-27.8v-15.4h27.8V172.1z M1444.5,192.5h-14.7V179c0-5.1,3.3-9.3,7.3-9.3
			c4.1,0,7.3,4.1,7.3,9.3V192.5z M1458.2,192.5l0-13.5c0-5.1,3.3-9.3,7.3-9.3c4.1,0,7.3,4.1,7.3,9.3l0,13.5H1458.2z"/>
		<rect x="1398.1" y="154" width="2.1" height="20.9"/>
		<rect x="1409.8" y="154" width="2.1" height="20.9"/>
	</g>
	<g>
		<polygon points="1231.4,124 1396.8,124 1379.5,86.4 1250.9,86.4 		"/>
		<polygon points="1374.1,99.6 1340.5,65.9 1306.9,99.6 1306.9,113.5 1374.1,113.5 		"/>
		<g>
			<rect x="1260.4" y="134" width="1.9" height="25.6"/>
			<rect x="1252.8" y="134" width="1.9" height="25.6"/>
			<rect x="1246.2" y="145.8" width="22.4" height="2.1"/>
		</g>
		<g>
			<rect x="1298.1" y="134" width="1.9" height="25.6"/>
			<rect x="1290.5" y="134" width="1.9" height="25.6"/>
			<rect x="1283.9" y="144.8" width="22.4" height="2.1"/>
		</g>
		<g>
			<rect x="1335.8" y="134" width="1.9" height="25.6"/>
			<rect x="1328.2" y="134" width="1.9" height="25.6"/>
			<rect x="1321.7" y="144.8" width="22.4" height="2.1"/>
		</g>
		<rect x="1256.3" y="178.7" width="2.6" height="14.3"/>
		<rect x="1333.3" y="178.7" width="2.6" height="14.3"/>
		<g>
			<rect x="1373.5" y="134" width="1.9" height="25.6"/>
			<rect x="1366" y="134" width="1.9" height="25.6"/>
			<rect x="1359.4" y="144.8" width="22.4" height="2.1"/>
		</g>
		<g>
			<path d="M1234.6,119.9v87.7h159v-87.7H1234.6z M1267.5,193h-20.2v-14.2h20.2V193z M1268.7,159.6h-22.4V134h22.4V159.6z
				 M1306.4,159.6h-22.4V134h22.4V159.6z M1321.7,134h22.4v25.6h-22.4V134z M1344.6,193h-20.2v-14.2h20.2V193z M1380.5,193h-20.2
				v-14.2h20.2V193z M1381.8,159.6h-22.4V134h22.4V159.6z"/>
			<rect x="1369.2" y="178.7" width="2.6" height="14.3"/>
		</g>
	</g>
	<g>
		<rect x="279.3" y="131.4" width="4.7" height="25.2"/>
		<rect x="266.5" y="139.4" width="30.2" height="3.1"/>
		<rect x="319.3" y="131.4" width="4.7" height="25.2"/>
		<rect x="306.5" y="139.4" width="30.2" height="3.1"/>
		<rect x="359.2" y="131.4" width="4.7" height="25.2"/>
		<rect x="346.5" y="139.4" width="30.2" height="3.1"/>
		<rect x="399.2" y="131.4" width="4.7" height="25.2"/>
		<rect x="386.4" y="139.4" width="30.2" height="3.1"/>
		<rect x="279.3" y="168.7" width="4.7" height="19.1"/>
		<rect x="266.5" y="174.8" width="30.2" height="2.4"/>
		<path d="M261,124.4v83.3h162v-83.3H261z M294.9,187.1h-26.7v-17.6h26.7V187.1z M294.9,155.7h-26.7v-23.4h26.7V155.7z M334.8,155.7
			h-26.7v-23.4h26.7V155.7z M374.8,155.7h-26.7v-23.4h26.7V155.7z M414.8,187.1h-26.7v-17.6h26.7V187.1z M414.8,155.7h-26.7v-23.4
			h26.7V155.7z"/>
		<rect x="399.2" y="168.7" width="4.7" height="19.1"/>
		<rect x="386.4" y="174.8" width="30.2" height="2.4"/>
		<rect x="257.2" y="109.6" width="168.5" height="15.3"/>
		<polygon points="257,109.8 425.7,109.8 394.1,76.2 290.5,76.2 		"/>
		<polygon points="381.1,100 342.8,61.5 304.4,100 304.4,116 381.1,116 		"/>
		<path d="M390.5,97.5L346,53c-0.9-0.9-2.1-1.3-3.2-1.3c-1.2,0-2.4,0.4-3.2,1.3L295,97.5c-1.7,1.7-1.7,4.6,0,6.3
			c1.7,1.7,4.6,1.7,6.3,0l41.5-41.5l41.5,41.5c1.7,1.7,4.6,1.7,6.3,0C392.3,102.1,392.3,99.3,390.5,97.5z"/>
	</g>
	<g>
		<polygon points="342.5,126.2 494.2,126.2 449.6,85.8 372.6,85.8 		"/>
		<polygon points="441.4,98.8 406.9,64.1 372.3,98.8 		"/>
		<g>
			<path d="M419.8,125v84.6h72V125H419.8z M464.9,130.4c6.6,0,12,2.8,12,6.3h-23.9C452.9,133.2,458.3,130.4,464.9,130.4z M477,157.5
				h-24.3V140H477V157.5z"/>
			<rect x="462.3" y="129.7" width="5.5" height="27.8"/>
		</g>
	</g>
	<g>
		<rect x="820.5" y="174.9" width="4.6" height="17.2"/>
		<rect x="925.1" y="174.9" width="4.6" height="17.2"/>
		<polygon points="791.3,125.2 958.4,125.2 927.1,82.4 824.4,82.4 		"/>
		<polygon points="914.3,99.7 876.3,65 838.2,99.7 		"/>
		<path d="M923.6,98.3l-44.1-40.1c-0.9-0.8-2.1-1.2-3.2-1.2c-1.2,0-2.3,0.4-3.2,1.2l-44.1,40.1c-1.7,1.6-1.7,4.1,0,5.7
			c1.7,1.6,4.5,1.6,6.3,0l41.1-37.3l41.1,37.3c1.7,1.6,4.5,1.6,6.3,0C925.3,102.4,925.3,99.8,923.6,98.3z"/>
		<polygon points="929.7,105.4 906.9,84.6 884,105.4 		"/>
		<path d="M935.3,101.9l-26.5-24c-0.5-0.5-1.2-0.7-1.9-0.7c-0.7,0-1.4,0.2-1.9,0.7l-26.5,24c-1,0.9-1,2.5,0,3.4c1,0.9,2.7,0.9,3.8,0
			l24.6-22.4l24.7,22.4c1,0.9,2.7,0.9,3.8,0C936.3,104.3,936.3,102.8,935.3,101.9z"/>
		<polygon points="867.1,105.4 844.3,84.6 821.4,105.4 		"/>
		<path d="M872.7,101.9l-26.5-24c-0.5-0.5-1.2-0.7-1.9-0.7c-0.7,0-1.4,0.2-1.9,0.7l-26.5,24c-1,0.9-1,2.5,0,3.4c1,0.9,2.7,0.9,3.8,0
			l24.7-22.4l24.7,22.4c1,0.9,2.7,0.9,3.8,0C873.7,104.3,873.7,102.8,872.7,101.9z"/>
		<rect x="812.5" y="138.9" width="4.6" height="19.4"/>
		<rect x="842.3" y="138.9" width="4.6" height="19.4"/>
		<rect x="872.2" y="138.9" width="4.6" height="19.4"/>
		<rect x="902.1" y="138.9" width="4.6" height="19.4"/>
		<g>
			<path d="M794.2,122v84.6h160.5V122H794.2z M804.4,138.9h20.5v19.4h-20.5V138.9z M835.9,191.4h-26.5v-15.9h26.5V191.4z
				 M854.8,158.3h-20.5v-19.4h20.5V158.3z M884.7,158.3h-20.5v-19.4h20.5V158.3z M894,138.9h20.5v19.4H894V138.9z M940.5,191.4H914
				v-15.9h26.5V191.4z M944.4,158.3h-20.5v-19.4h20.5V158.3z"/>
			<rect x="932" y="138.9" width="4.6" height="19.4"/>
		</g>
	</g>
	<rect x="1187.6" y="164.6" width="1.6" height="20.7"/>
	<rect x="1155.2" y="164.6" width="1.6" height="20.7"/>
	<path d="M1101.7,149.2v58.5h106v-58.5H1101.7z M1131.6,185.2h-16v-20.7h16V185.2z M1164,185.2h-16v-20.7h16V185.2z M1196.4,185.2
		h-16v-20.7h16V185.2z"/>
	<rect x="1122.8" y="164.6" width="1.6" height="20.7"/>
</g>
</svg>
