<?xml version="1.0" encoding="utf-8"?>
<!-- Generator: Adobe Illustrator 27.0.0, SVG Export Plug-In . SVG Version: 6.00 Build 0)  -->
<svg version="1.1" xmlns="http://www.w3.org/2000/svg" xmlns:xlink="http://www.w3.org/1999/xlink" x="0px" y="0px"
	 viewBox="0 0 239 600" style="enable-background:new 0 0 239 600;" xml:space="preserve">
<style type="text/css">
	.st0{display:none;}
	.st1{display:inline;fill:#FFA92C;}
	.st2{display:inline;fill:#FFC52C;}
	.st3{display:inline;fill:#FFFB00;}
	.st4{display:inline;fill:#000001;}
	.st5{display:inline;}
	.st6{fill:#000001;}
	.st7{display:inline;fill:none;stroke:#000001;stroke-miterlimit:10;}
	.st8{display:inline;fill:none;stroke:#000000;stroke-width:2;stroke-miterlimit:10;}
	.st9{display:inline;fill:none;stroke:#000001;stroke-width:0.25;stroke-miterlimit:10;}
	.st10{display:inline;fill:none;stroke:#000000;stroke-miterlimit:10;}
	.st11{fill:none;stroke:#000000;stroke-width:2;stroke-miterlimit:10;}
	.st12{fill:none;}
</style>
<g id="Layer_3" class="st0">
	<rect x="91.7" y="190.5" class="st2" width="50" height="50"/>
	<rect x="65.5" y="294.3" class="st3" width="120" height="94"/>
</g>
<g id="Layer_2" class="st0">
	<path class="st4" d="M174.7,306.5c0-0.4-0.4-0.7-0.8-0.7h-10.7c-0.4,0-0.7,0.3-0.8,0.7l-1.9,17c-0.1,0.5,0.3,0.9,0.8,0.9h6.4v64
		h1.5v-64h3.3v4.1c-0.1,0.1-0.2,0.3-0.2,0.6c0,0.4,0.2,0.7,0.4,0.7s0.4-0.3,0.4-0.7c0-0.3-0.1-0.5-0.2-0.6v-4.1h2.9
		c0.5,0,0.8-0.4,0.8-0.9L174.7,306.5z"/>
	<path class="st4" d="M185.5,346.9V345h-11c-0.5,0-0.9,0.4-0.9,0.9c0,0,0,0,0,0c0,0,0,0,0,0v14.6h-8.2v-14.6c0-0.5-0.4-0.9-0.9-0.9
		h-15.9c-0.5,0-0.9,0.4-0.9,0.9c0,0,0,0,0,0c0,0,0,0,0,0v14.6H138h-0.5h-0.4c-0.6,0-1.1,0.1-1.6,0.4l-3.1,1.8h0
		c-0.4,0.3-0.7,0.7-0.7,1.3c0,0.8,0.7,1.5,1.5,1.5h2.5v22.8h3.6v-15.5h8.4v2.9l-3.7,2.9c0,0,0,0-0.1,0l0,0c0,0,0,0,0,0
		c-0.2,0.2-0.3,0.4-0.3,0.6v9h3.2v-6.1h17.2v6.1h3.2v-9c0-0.1,0-0.1,0-0.2c0-0.1,0-0.1,0-0.2c0,0,0,0,0,0c-0.1-0.1-0.1-0.2-0.2-0.4
		l-1.6-3.2v-2.5h8.2v2.9l-0.1,3.3c0,0.1,0,0.1,0,0.2c0,0,0,0,0,0v9h3.2v-6.1h8.8v-2v-0.4v-1.4v-3.4h-2.1v-2.1h2.1v-9.3V362v-1.5
		h-2.1v-13.7H185.5z M175.5,346.9h2v13.7h-2V346.9z M157.4,360.5v-13.7h2.1v13.7H157.4z M155.6,360.5h-2.1v-13.7h2.1V360.5z
		 M155.6,372.8v2.1h-2.1v-2.1H155.6z M157.4,374.9v-2.1h2.1v2.1H157.4z M161.4,360.5v-13.7h2.1v13.7H161.4z M149.5,346.9h2v13.7h-2
		V346.9z M151.6,372.8v2.1h-2v-2.1H151.6z M163.6,374.9h-2.1v-2.1h2.1V374.9z M177.5,372.8v2.1h-2v-2.1H177.5z M181.5,374.9h-2.1
		v-2.1h2.1V374.9z M181.5,360.5h-2.1v-13.7h2.1V360.5z"/>
	<path class="st4" d="M125.4,361.3H65.5v-7.1h59.9c0.5,0,0.9,0.4,0.9,0.9v5.4C126.2,360.9,125.9,361.3,125.4,361.3z"/>
	<path class="st4" d="M125.7,328.9H92.9c-0.4,0-0.7,0.3-0.7,0.7v22.5c0,0.4,0.3,0.7,0.7,0.7h9.4l-2.9,2.9l20.5,0.6l-3.5-3.5h9.3
		c0.4,0,0.7-0.3,0.7-0.7v-22.5C126.4,329.2,126.1,328.9,125.7,328.9z"/>
	<path class="st1" d="M123.5,350.6H95.1c-0.4,0-0.7-0.3-0.7-0.7v-18.4c0-0.4,0.3-0.7,0.7-0.7h28.3c0.4,0,0.7,0.3,0.7,0.7v18.4
		C124.2,350.3,123.8,350.6,123.5,350.6z"/>
	<path id="XMLID_00000017489209693804357410000005687683675332681091_" class="st4" d="M105.5,388.3c0-0.1,0.4-1.6,0.5-1.7
		c0.4-0.6,0.7-1.3,0.8-2.1c0.2-1.3,0.1-2.8,0.1-4.1c0-0.6,0.1-1.6-0.2-2.4c0,0,0,0,0,0c1.6-4.7-3.4-9.3-4.5-13.8c0-0.1,0-0.1,0-0.2
		c0-2-0.5-4-0.4-6.1c0.1-2.4,0.2-4.8,0.3-7.1c0-0.2,0.1-0.5,0.4-0.6c0.4-0.2,0.5-0.5,0.5-1.1c0.2-0.2,0.2-0.5,0.1-0.8
		c-0.1-0.2-0.1-0.4,0-0.5c0.6-2.1,0.1-3.5-1.7-6c-1.7-2.5-2.9-5.5-5.1-7.5c-0.4-0.4-0.3-1.1,0.3-1.2c0.5-0.2,1-0.2,1.3-0.4
		c0.3-0.1,0.7-0.1,0.9-0.4c0.3-0.4,0-1,0.1-1.4c0.2-0.1,0.2-0.3,0.1-0.6c0.2-0.1,0.2-0.3,0.2-0.5c0-0.4,0.3-0.7,0.6-0.7
		c0.3,0,0.5-0.1,0.6-0.3c0.1-0.2,0.2-0.4,0.1-0.6c-0.1-0.4-0.4-0.6-0.7-0.9c-0.2-0.3-0.3-0.7,0-0.9c0.1-0.2,0.3-0.3,0.4-0.5
		c0.1-0.1,0.2-0.2,0.3-0.3c0.9-0.4,0.6-1.9,0.2-2.7c-0.4-0.7-0.9-1.7-1.6-2.1c-0.2-0.1-0.4-0.2-0.6-0.3c-0.1,0-0.2-0.1-0.3-0.2
		c-1.3-1.3-3.2-1.9-5.1-1.6c-1.4,0.3-2.6,1.5-3.4,2.8c-0.2,0.2-0.4,0.4-0.7,0.3c-0.7-0.1-1.6,0-1.9,0.5c-0.1,0.2-0.1,0.3-0.1,0.5
		c0,0.2,0,0.5-0.2,0.6c-0.4,0.3-0.6,0.7-0.7,1.1c-0.1,0.4,0,0.8,0.3,1.1c0.1,0.2,0.1,0.3,0.1,0.5c0,0.2,0,0.4,0,0.6
		c0.1,0.3,0.2,0.5,0.4,0.7c0.2,0.2,0.3,0.5,0.2,0.7c-0.1,0.4-0.1,0.9,0.1,1.2c0.1,0.2,0.3,0.3,0.4,0.3c0,0.2,0.1,0.4,0.3,0.5
		c0.2,0.2,0.5,0.1,0.8,0.1c0.1,0.2,0.3,0.3,0.6,0.3c0.6,0,1.2-0.5,1.7-0.2c-0.8,0.3-1.5,0.6-2,1.2c-0.1,0.1-0.1,0.1-0.2,0.2
		c-1.7,0.8-3.3,2.7-4.1,4.2c-0.8,1.5-1.2,3.1-1.5,4.8c0,0.1,0,0.2-0.1,0.2c-0.4,0.7-0.6,1.6-0.9,2.4c-0.3,0.7-0.7,1.4-0.9,2.1
		c-0.2,0.7-0.1,1.1,0.3,1.4c0,0.2,0,0.4,0,0.6c-0.1,1.9-0.4,3.8,0.3,5.6c0.2,0.5,0.5,0.7,0.8,0.8c0.4,0.1,0.6,0.4,0.6,0.8
		c-0.1,1.9-0.4,3.8-0.5,5.7c-0.1,1.5,0.1,2.8,0.5,4c0,0.1,0,0.1,0,0.2c0,1.6,0.4,3.2,0.6,4.7c0.3,1.8,0.7,3.7,1.4,5.4
		c0,0.1,0,0.1,0.1,0.2c0.1,0.8,0.2,1.6,0.2,2.4c0,1.2-0.1,2.3,0,3.5c0,0.8,0.2,1.2,0.6,1.4c0,0.2,0,0.4-0.1,0.6
		c-0.1,0.5-0.3,1-0.4,1.5c-0.3,1.1-1,4.1-1,4.1H105.5z"/>
	<path class="st4" d="M121.9,346.1c0-0.1-7,0.3-7.6,0.3c-2.3,0.1-4.6,0.1-6.9,0.1c-0.7,0-1.5,0-2.3-0.1c-0.1-0.3-0.2-0.6-0.4-0.8
		c-0.6-0.6-1.7-0.4-2.3,0.2l-0.1,0.2c0,0.2,0,0.3,0,0.5c-0.2,0-0.5,0.1-0.7,0.1c-3,0.6-2.6,4.9-2.4,7.7c0,0.5,0.6,0.8,1.1,0.6
		l5.1-2.7c1.2-0.7,2.5-1.3,3.7-2.1c0.4-0.3,0.9-0.6,1.4-0.7c0.6-0.1,1.3,0,1.6-0.5c0.2-0.3,0.1-0.6,0.3-0.9c0.3-0.6,1.1-0.7,1.8-0.8
		l7.1-0.2C121.7,347,122,346.6,121.9,346.1L121.9,346.1z"/>
	<g class="st5">
		<path class="st6" d="M118.3,338.6c0.3-0.4,0.6-0.9,0.7-1.4c0.1-0.5,0.1-1.1-0.3-1.4c-0.5,1-1,1.9-1.7,2.8c-0.4,0.6-1,1.1-1.5,1.7
			c-0.5,0-0.9,0-1.4,0l-0.1-0.5c0-0.2-0.1-0.3-0.2-0.5c-0.1-0.1-0.2-0.1-0.3-0.2c-0.6-0.3-0.6-1.3-1.2-1.6c-0.3-0.2-0.6-0.1-1,0
			c-0.1,0.1-0.3,0.1-0.4,0.2c-0.2,0.1-0.4,0.2-0.7,0.1c-0.2-0.1-0.4,0-0.5,0.1c-0.2,0.2-0.3,0.5-0.2,0.8c0,0.2,0,0.4-0.1,0.5
			c-0.1,0.1-0.2,0.1-0.3,0.2c-0.3,0.2-0.5,0.4-0.6,0.7c-1.3,0-2.5,0-3.8,0c-0.5,0-0.8,0.4-0.7,0.9c0.5,2,1.4,4,2.6,5.7
			c0.1,0.2,0.4,0.3,0.6,0.3l7.3-0.3c0.3,0,0.5-0.2,0.6-0.4c0.8-1.7,1.2-3.5,1.4-5.3c0-0.2,0-0.4-0.1-0.5
			C117.3,340.1,117.8,339.3,118.3,338.6z"/>
		<path class="st6" d="M119.2,342.6l-1.1,0c-0.4,0-0.8,0.4-0.7,0.8c0.1,0.8,0.3,1.6,0.5,2.4c0.1,0.3,0.4,0.5,0.7,0.5l0.4,0
			c0.4,0,0.7-0.3,0.7-0.7l0.2-2.3C120,343,119.6,342.6,119.2,342.6z"/>
	</g>
	<path class="st4" d="M89.2,338.2H65.5l0,15.4h0v1.1h2.2v-1.1h18.5v1.1h2.2v-1.1h0.7c0.6,0,1.2-0.5,1.2-1.2v-13.1
		C90.3,338.7,89.8,338.2,89.2,338.2z M73.7,343.5c0,0.2-0.1,0.3-0.3,0.3H69c-0.2,0-0.3-0.1-0.3-0.3v-2.3c0-0.2,0.1-0.3,0.3-0.3h4.3
		c0.2,0,0.3,0.1,0.3,0.3V343.5z M75.9,350.3v-1.1h0.4c0.3,0,0.5-0.2,0.5-0.5v-5.7c0-0.3-0.2-0.5-0.5-0.5h-0.4v-1.1
		c0-0.4,0.3-0.7,0.7-0.7h10.6c0.4,0,0.7,0.3,0.7,0.7v8.8c0,0.4-0.3,0.7-0.7,0.7H76.6C76.2,351,75.9,350.7,75.9,350.3z"/>
	<path class="st5" d="M141.7,229.5H124c-0.1-0.6-0.3-1.1-0.3-1.5c-0.2-1.7,1.1-2.9,0.4-4c-0.7-1.1-1.2-1.3-1.6-1.8
		c-0.6-0.7-0.7-1.3-1.4-1.5c-0.4-0.1-0.7-0.1-0.9-0.1c-1.2,0-2.3-0.2-3.4-0.2c-0.4,0-0.7,0-1.1,0.1c-0.3,0.1-0.6,0.1-0.9,0.2
		c-0.6,0.2-1.3,0.4-1.9,0.2c-0.3-0.1-0.6-0.2-1-0.2c-1.4,0.4-1.7,1-2.4,2.6c-0.6,1.3-0.8,2.5-0.8,2.5c-0.5,1.7-1.1,2.1-0.8,3.6H91.7
		l0,0v11l0,0h50l0,0V229.5L141.7,229.5z"/>
</g>
<g id="Layer_4" class="st0">
	<path class="st5" d="M126.4,219l2.7-0.7c0,0,0.6-0.8,0.4-1.7c-0.2-0.9-0.7-1.1-0.7-1.1l-5.8,1c0,0-0.4,0.4-0.5,0.9l-0.8-0.3
		l-1.1,0.3c0,0-0.4,0.8-0.3,1.3s0.7,0.9,0.7,0.9l0.7,0l0.8-0.6c0,0,0.6,0.7,1.1,0.7l0.3-0.1c0,1.1-0.6,6.3-0.7,6.9
		c-0.1,0.7-0.4,0.9-0.4,0.9s0.8,1.4,2.3,1.1c1-0.1,1.4-0.7,1.5-1.4c0.3-1.7,0.1-4.2-0.2-5.5c-0.4-1.3-0.3-1.8-0.1-2.5
		C126.3,219.2,126.4,219.1,126.4,219z"/>
	<path class="st5" d="M120.7,217c-0.2-0.5-0.2-0.6-0.5-1c-0.2-0.3-0.2-1.5-0.5-1.9c-0.1-0.1-0.2-0.3-0.3-0.4c0,0,0-0.1,0-0.1
		c0-0.2-0.2-0.4-0.4-0.4c0,0,0,0,0,0c0,0,0-0.1,0-0.1c0-0.2-0.2-0.4-0.4-0.4c0,0,0,0-0.1,0c0,0,0,0,0,0c0-0.2-0.2-0.4-0.4-0.4
		c-0.1,0-0.2,0-0.2,0.1c-0.1-0.1-0.2-0.2-0.3-0.2c0,0,0,0,0,0c0-0.2-0.2-0.3-0.3-0.3c-0.2,0-0.3,0.1-0.3,0.3c0-0.2-0.2-0.3-0.3-0.3
		c-0.1,0-0.3,0.1-0.3,0.2c0-0.2-0.2-0.3-0.3-0.3c-0.1,0-0.2,0.1-0.3,0.1c-0.1-0.1-0.2-0.1-0.3-0.1c-0.1,0-0.2,0.1-0.3,0.2
		c-0.1-0.1-0.2-0.2-0.3-0.2c-0.2,0-0.4,0.2-0.4,0.4c0,0,0,0.1,0,0.1c-0.1-0.1-0.1-0.1-0.2-0.1c-0.1,0-0.2,0-0.3,0.1
		c-0.1-0.1-0.2-0.1-0.3-0.1c-0.2,0-0.4,0.2-0.4,0.4c0,0,0,0,0,0.1c-0.1,0-0.1-0.1-0.2-0.1c-0.2,0-0.4,0.2-0.4,0.4
		c-0.1,0-0.3,0.1-0.3,0.2c0,0-0.1,0-0.2,0c-0.2,0-0.4,0.2-0.4,0.4c0,0,0,0.1,0,0.1c-0.2,0-0.3,0.2-0.3,0.4c0,0,0,0.1,0,0.1
		c-0.2,0-0.3,0.2-0.3,0.4c0,0.1,0,0.1,0.1,0.2c-0.2,0-0.3,0.2-0.3,0.4c0,0.1,0.1,0.2,0.1,0.3c-0.1,0.1-0.2,0.2-0.2,0.3
		c0,0.1,0,0.1,0.1,0.2c-0.2,0-0.3,0.2-0.3,0.4c0,0.1,0.1,0.2,0.2,0.3c0,0.1-0.1,0.1-0.1,0.2c0,0.1,0,0.2,0.1,0.2
		c0,0.1-0.1,0.1-0.1,0.2c0,0.1,0.1,0.2,0.2,0.3c0,0,0,0,0,0c0,0.1,0,0.2,0.1,0.3c0,0.1-0.1,0.1-0.1,0.2c0,0.1,0.1,0.3,0.2,0.3
		c0,0,0,0.1,0,0.2c0,0.2,0.2,0.4,0.4,0.4c0.1,0,0.1,0,0.1,0c0,0,0,0,0,0c0,0,0,0,0,0c0,0.1,0.1,0.2,0.2,0.3c0,0.1-0.2,0-0.2,0.2
		c0,0.6,0.4,0.8,0.7,1.2c0.2,0.3,0.2,0.4,0.5,0.6c0.6,0.4,2.1,0.7,3.4,0.7c0.6,0,1.7,0,2.3-0.1c0.6-0.1,1.1-0.3,1.5-0.7
		c0.1-0.2,0.3-0.3,0.4-0.5c0.1-0.4,0.2-1,0.3-1.5C121,217.7,120.8,217.5,120.7,217z"/>
	<path class="st5" d="M122,206.4c-0.3-0.3-0.5-0.5-0.8-0.7c-0.5-0.4-1-0.7-1.5-1c-0.7-0.4-1.4-0.7-2.1-0.9c-0.7-0.2-1.4-0.3-2.1-0.3
		c-0.4,0-0.8,0-1.2,0c0,0,0,0,0,0v-13.1h-1v13.1c-0.3,0-0.6,0-0.9,0.1c-0.9,0.1-1.8,0.2-2.8,0.3c-0.1,0-0.1,0-0.2-0.1
		c-0.1-0.1-0.2-0.2-0.3-0.3c-0.4-0.4-0.8-0.8-1.2-1.2c0,0,0,0,0,0c-0.1-0.1-0.1-0.1-0.2-0.2c-0.1-0.1-0.2-0.1-0.3-0.1
		c-0.2,0-0.4,0.1-0.7,0.1c-0.5,0.1-1,0.1-1.5,0.2c-0.1,0-0.2,0.1-0.1,0.2c0,0,0,0,0,0.1c0.4,0.6,0.7,1.1,1.1,1.7c0,0,0,0.1,0,0.1
		c-0.1,0.1-0.1,0.2-0.2,0.3c-0.3,0.1-0.5,0.2-0.7,0.3c-0.1,0-0.2,0.1-0.2,0.2c-0.1,0.1-0.1,0.2-0.1,0.3c-0.1,0.5-0.1,1-0.1,1.6
		c0,0.3,0,0.5,0.1,0.8c0,0.1,0.1,0.2,0.2,0.3c0.2,0.1,0.5,0.2,0.7,0.3c0.1,0,0.2,0.1,0.3,0.2c0.1,0.1,0.1,0.1,0,0.2
		c-0.3,0.4-0.6,0.9-0.8,1.3c-0.1,0.1-0.2,0.3-0.3,0.4c-0.1,0.1-0.1,0.2,0.1,0.2c0,0,0,0,0,0c0.6,0.1,1.3,0.1,1.9,0.2
		c0.4,0.1,0.4,0,0.6-0.2c0.3-0.3,0.5-0.5,0.8-0.8c0.3-0.3,0.5-0.5,0.8-0.8c0-0.1,0.1-0.1,0.2-0.1c0.6,0.1,1.2,0.1,1.8,0.2
		c0.5,0,1.1,0.1,1.6,0.1c0.5,0,1.1,0.1,1.6,0.1c0.6,0,1.2,0,1.8,0c0.7-0.1,1.5-0.3,2.2-0.6c0.9-0.4,1.7-0.8,2.5-1.4
		c0.3-0.3,0.7-0.5,1-0.8C122,206.5,122,206.4,122,206.4z M116.3,207.3c-0.5,0.5-1.2,0.5-1.6,0.1c-0.6-0.5-0.6-1.3-0.1-1.8
		c0.4-0.4,1.2-0.5,1.7,0C116.7,206,116.8,206.8,116.3,207.3z"/>
	<path class="st5" d="M130.5,214.8c-0.3-0.8-0.8-1-0.8-1l-3.6,0.9c-0.3-0.2-0.5-0.3-0.8-0.2c-0.4,0.2-0.4,0.2-0.8,0.4
		c-0.1,0-0.1,0.1-0.2,0.2l-0.2,0.1c0,0-0.4,0.4-0.4,0.9l-0.8-0.3l-1.1,0.4c0,0-0.2,0.6,0,1.1c0.1,0.5,0.7,0.8,0.7,0.8l0.6-0.2
		l0.8-0.5c0,0,0.1,0.1,0.2,0.3c-0.3,0.8-0.7,2-0.9,3.1c-0.4,1.7-0.8,3.6-0.8,3.6l2.7-0.7c0,0,0.3-0.8,0.5-3c0.1-1,0.2-2,0.3-2.7
		l0.3,0l4.1-1.4C130.2,216.5,130.7,215.6,130.5,214.8z"/>
	<ellipse class="st2" cx="128.3" cy="217.1" rx="0.7" ry="1"/>
	<ellipse class="st2" cx="129.5" cy="215.3" rx="0.7" ry="1"/>
</g>
<g id="Layer_1">
	<path class="st0" d="M22.5,440.7v-171l18.9,6.1l8-31.3l-194.9-64.2l0,0l-84.5,27.7v-8.9h-62.5v29.5l-56.1,18.4l7.5,29.8l18.9-6.1
		v171h-38.7V601l420-1V440.7H22.5z M-97.2,275.3c29.8,11,43.1,29.5,46.2,34.3h-46.2V275.3z M-191.8,379.8H-245v-65.1
		c0-0.1,0-0.2,0-0.3h53.3V379.8z M-191.8,309.6h-52.9c3.3-5.2,18.4-26.1,52.9-36.6V309.6z M-101.9,379.8H-187v-65.4h85.1V379.8z
		 M-101.9,309.6H-187v-37.9c11.1-2.9,24.1-4.8,39.1-4.8c18.2,0,33.4,2.7,45.9,6.7V309.6z M-50.3,379.8h-46.9v-65.4h46.9V379.8z"/>
	<path d="M194.3,260.4v-45.5l4.8,3.4l5,3.4l18.2-27l-30.1-20.2v-45.1h1v-9.2h-42.5v9.2h1v17.8L112,120.5l0.1,0.1L1.9,194.7l18.2,27
		l5-3.4l4.8-3.4v385.2l210.2-0.1V260.4H194.3z M112.3,120.7L112.3,120.7l-0.1-0.1L112.3,120.7z M117.1,196.6
		c10.5,0,19.1,8.5,19.1,19.1c0,10.5-8.5,19.1-19.1,19.1c-10.5,0-19.1-8.5-19.1-19.1C98.1,205.2,106.6,196.6,117.1,196.6z
		 M106.4,381.4h-34v-81.7h34V381.4z M142.7,381.4h-34v-81.7h34V381.4z M179.1,381.4h-34v-81.7h34V381.4z"/>
</g>
</svg>
